<mxfile host="app.diagrams.net" modified="2023-07-27T16:29:30.552Z" agent="Mozilla/5.0 (Windows NT 10.0; Win64; x64) AppleWebKit/537.36 (KHTML, like Gecko) Chrome/115.0.0.0 Safari/537.36 Edg/115.0.1901.183" etag="wSAVhsJ4p8eqIvRzZ_Vj" version="21.5.2" type="device">
  <diagram name="Page-1" id="FoZ7tQgb3fkx7N-CDwaJ">
    <mxGraphModel dx="5740" dy="6696" grid="1" gridSize="10" guides="1" tooltips="1" connect="1" arrows="1" fold="1" page="0" pageScale="1" pageWidth="850" pageHeight="1100" math="0" shadow="0">
      <root>
        <mxCell id="0" />
        <mxCell id="1" parent="0" />
        <mxCell id="AQ1_ctODMUg5cEXQnaUs-40" value="" style="group;fontSize=18;fillColor=#d0cee2;strokeColor=#56517e;" parent="1" vertex="1" connectable="0">
          <mxGeometry x="1320" y="-2340" width="240" height="280" as="geometry" />
        </mxCell>
        <mxCell id="AQ1_ctODMUg5cEXQnaUs-32" value="&lt;font style=&quot;&quot;&gt;&lt;font style=&quot;font-size: 24px;&quot;&gt;REG FILE&lt;/font&gt;&lt;br style=&quot;&quot;&gt;&lt;br style=&quot;&quot;&gt;&lt;br&gt;&lt;br&gt;&lt;br style=&quot;&quot;&gt;&lt;br&gt;&lt;br style=&quot;&quot;&gt;&lt;/font&gt;" style="rounded=0;whiteSpace=wrap;html=1;fontFamily=Roboto;fontSize=18;fontColor=default;fillColor=none;gradientColor=none;labelPosition=center;verticalLabelPosition=middle;align=center;verticalAlign=middle;fontSource=https%3A%2F%2Ffonts.googleapis.com%2Fcss%3Ffamily%3DRoboto;fontStyle=1" parent="AQ1_ctODMUg5cEXQnaUs-40" vertex="1">
          <mxGeometry width="240" height="280" as="geometry" />
        </mxCell>
        <mxCell id="AQ1_ctODMUg5cEXQnaUs-33" value="DATA_IN" style="text;html=1;strokeColor=none;fillColor=none;align=center;verticalAlign=middle;whiteSpace=wrap;rounded=0;fontSize=18;fontFamily=Roboto;fontColor=default;fontSource=https%3A%2F%2Ffonts.googleapis.com%2Fcss%3Ffamily%3DRoboto;" parent="AQ1_ctODMUg5cEXQnaUs-40" vertex="1">
          <mxGeometry y="184" width="100" height="24" as="geometry" />
        </mxCell>
        <mxCell id="AQ1_ctODMUg5cEXQnaUs-34" value="DATA_OUT1" style="text;html=1;strokeColor=none;fillColor=none;align=center;verticalAlign=middle;whiteSpace=wrap;rounded=0;fontSize=18;fontFamily=Roboto;fontColor=default;fontSource=https%3A%2F%2Ffonts.googleapis.com%2Fcss%3Ffamily%3DRoboto;" parent="AQ1_ctODMUg5cEXQnaUs-40" vertex="1">
          <mxGeometry x="130" y="112" width="110" height="24" as="geometry" />
        </mxCell>
        <mxCell id="AQ1_ctODMUg5cEXQnaUs-35" value="DATA_OUT2" style="text;html=1;strokeColor=none;fillColor=none;align=center;verticalAlign=middle;whiteSpace=wrap;rounded=0;fontSize=18;fontFamily=Roboto;fontColor=default;fontSource=https%3A%2F%2Ffonts.googleapis.com%2Fcss%3Ffamily%3DRoboto;" parent="AQ1_ctODMUg5cEXQnaUs-40" vertex="1">
          <mxGeometry x="130" y="220" width="110" height="24" as="geometry" />
        </mxCell>
        <mxCell id="AQ1_ctODMUg5cEXQnaUs-36" value="IN_ADDR" style="text;html=1;strokeColor=none;fillColor=none;align=center;verticalAlign=middle;whiteSpace=wrap;rounded=0;fontSize=18;fontFamily=Roboto;fontColor=default;fontSource=https%3A%2F%2Ffonts.googleapis.com%2Fcss%3Ffamily%3DRoboto;" parent="AQ1_ctODMUg5cEXQnaUs-40" vertex="1">
          <mxGeometry y="148" width="100" height="24" as="geometry" />
        </mxCell>
        <mxCell id="AQ1_ctODMUg5cEXQnaUs-37" value="OUT1_ADDR" style="text;html=1;strokeColor=none;fillColor=none;align=center;verticalAlign=middle;whiteSpace=wrap;rounded=0;fontSize=18;fontFamily=Roboto;fontColor=default;fontSource=https%3A%2F%2Ffonts.googleapis.com%2Fcss%3Ffamily%3DRoboto;" parent="AQ1_ctODMUg5cEXQnaUs-40" vertex="1">
          <mxGeometry y="112" width="120" height="24" as="geometry" />
        </mxCell>
        <mxCell id="AQ1_ctODMUg5cEXQnaUs-38" value="OUT2_ADDR" style="text;html=1;strokeColor=none;fillColor=none;align=center;verticalAlign=middle;whiteSpace=wrap;rounded=0;fontSize=18;fontFamily=Roboto;fontColor=default;fontSource=https%3A%2F%2Ffonts.googleapis.com%2Fcss%3Ffamily%3DRoboto;" parent="AQ1_ctODMUg5cEXQnaUs-40" vertex="1">
          <mxGeometry y="220" width="120" height="24" as="geometry" />
        </mxCell>
        <mxCell id="AQ1_ctODMUg5cEXQnaUs-39" value="WRITE_EN" style="text;html=1;strokeColor=none;fillColor=none;align=center;verticalAlign=middle;whiteSpace=wrap;rounded=0;fontSize=18;fontFamily=Roboto;fontColor=default;fontSource=https%3A%2F%2Ffonts.googleapis.com%2Fcss%3Ffamily%3DRoboto;" parent="AQ1_ctODMUg5cEXQnaUs-40" vertex="1">
          <mxGeometry x="70" width="100" height="30" as="geometry" />
        </mxCell>
        <mxCell id="AQ1_ctODMUg5cEXQnaUs-41" value="&lt;font data-font-src=&quot;https://fonts.googleapis.com/css?family=Roboto&quot; face=&quot;Roboto&quot; style=&quot;font-size: 64px;&quot;&gt;IF&lt;/font&gt;" style="text;html=1;strokeColor=none;fillColor=none;align=center;verticalAlign=middle;whiteSpace=wrap;rounded=0;fontSize=64;fontFamily=Helvetica;fontColor=default;fontStyle=1" parent="1" vertex="1">
          <mxGeometry x="375" y="-3680" width="100" height="80" as="geometry" />
        </mxCell>
        <mxCell id="AQ1_ctODMUg5cEXQnaUs-60" value="" style="group;fontSize=18;fillColor=#d0cee2;strokeColor=#56517e;" parent="1" vertex="1" connectable="0">
          <mxGeometry x="1280" y="-3360" width="280" height="440" as="geometry" />
        </mxCell>
        <mxCell id="AQ1_ctODMUg5cEXQnaUs-49" value="&lt;font style=&quot;font-size: 24px;&quot;&gt;CONTROL UNIT&lt;br&gt;&lt;br style=&quot;&quot;&gt;&lt;br style=&quot;&quot;&gt;&lt;br&gt;&lt;br&gt;&lt;br&gt;&lt;br style=&quot;&quot;&gt;&lt;br&gt;&lt;br&gt;&lt;br&gt;&lt;br&gt;&lt;br style=&quot;&quot;&gt;&lt;br style=&quot;&quot;&gt;&lt;br style=&quot;&quot;&gt;&lt;br style=&quot;&quot;&gt;&lt;/font&gt;" style="rounded=0;whiteSpace=wrap;html=1;fontFamily=Roboto;fontSize=18;fontColor=default;fillColor=none;gradientColor=none;fontSource=https%3A%2F%2Ffonts.googleapis.com%2Fcss%3Ffamily%3DRoboto;fontStyle=1" parent="AQ1_ctODMUg5cEXQnaUs-60" vertex="1">
          <mxGeometry width="280" height="439.99999999999994" as="geometry" />
        </mxCell>
        <mxCell id="AQ1_ctODMUg5cEXQnaUs-50" value="INSTR" style="text;html=1;strokeColor=none;fillColor=none;align=center;verticalAlign=middle;whiteSpace=wrap;rounded=0;fontSize=18;fontFamily=Helvetica;fontColor=default;" parent="AQ1_ctODMUg5cEXQnaUs-60" vertex="1">
          <mxGeometry y="197.99999999999997" width="70" height="44" as="geometry" />
        </mxCell>
        <mxCell id="AQ1_ctODMUg5cEXQnaUs-51" value="MEM_READ" style="text;html=1;strokeColor=none;fillColor=none;align=center;verticalAlign=middle;whiteSpace=wrap;rounded=0;fontSize=18;fontFamily=Helvetica;fontColor=default;" parent="AQ1_ctODMUg5cEXQnaUs-60" vertex="1">
          <mxGeometry x="160" y="44" width="120" height="44" as="geometry" />
        </mxCell>
        <mxCell id="AQ1_ctODMUg5cEXQnaUs-52" value="REG_WRITE_EN" style="text;html=1;strokeColor=none;fillColor=none;align=center;verticalAlign=middle;whiteSpace=wrap;rounded=0;fontSize=18;fontFamily=Helvetica;fontColor=default;" parent="AQ1_ctODMUg5cEXQnaUs-60" vertex="1">
          <mxGeometry x="116.66666666666666" y="88" width="163.33333333333331" height="44" as="geometry" />
        </mxCell>
        <mxCell id="AQ1_ctODMUg5cEXQnaUs-53" value="WB_VALUE_SEL" style="text;html=1;strokeColor=none;fillColor=none;align=center;verticalAlign=middle;whiteSpace=wrap;rounded=0;fontSize=18;fontFamily=Helvetica;fontColor=default;" parent="AQ1_ctODMUg5cEXQnaUs-60" vertex="1">
          <mxGeometry x="120" y="132" width="160" height="44" as="geometry" />
        </mxCell>
        <mxCell id="AQ1_ctODMUg5cEXQnaUs-54" value="MEM_WRITE" style="text;html=1;strokeColor=none;fillColor=none;align=center;verticalAlign=middle;whiteSpace=wrap;rounded=0;fontSize=18;fontFamily=Helvetica;fontColor=default;" parent="AQ1_ctODMUg5cEXQnaUs-60" vertex="1">
          <mxGeometry x="140" y="178" width="140" height="44" as="geometry" />
        </mxCell>
        <mxCell id="AQ1_ctODMUg5cEXQnaUs-55" value="ALU_SEL" style="text;html=1;strokeColor=none;fillColor=none;align=center;verticalAlign=middle;whiteSpace=wrap;rounded=0;fontSize=18;fontFamily=Helvetica;fontColor=default;" parent="AQ1_ctODMUg5cEXQnaUs-60" vertex="1">
          <mxGeometry x="180" y="218" width="100" height="44" as="geometry" />
        </mxCell>
        <mxCell id="AQ1_ctODMUg5cEXQnaUs-56" value="IMM_SEL" style="text;html=1;strokeColor=none;fillColor=none;align=center;verticalAlign=middle;whiteSpace=wrap;rounded=0;fontSize=18;fontFamily=Helvetica;fontColor=default;" parent="AQ1_ctODMUg5cEXQnaUs-60" vertex="1">
          <mxGeometry x="175" y="395.99999999999994" width="105" height="44" as="geometry" />
        </mxCell>
        <mxCell id="AQ1_ctODMUg5cEXQnaUs-57" value="OP1_SEL" style="text;html=1;strokeColor=none;fillColor=none;align=center;verticalAlign=middle;whiteSpace=wrap;rounded=0;fontSize=18;fontFamily=Helvetica;fontColor=default;" parent="AQ1_ctODMUg5cEXQnaUs-60" vertex="1">
          <mxGeometry x="175" y="257.99999999999994" width="105" height="44" as="geometry" />
        </mxCell>
        <mxCell id="AQ1_ctODMUg5cEXQnaUs-58" value="OP2_SEL" style="text;html=1;strokeColor=none;fillColor=none;align=center;verticalAlign=middle;whiteSpace=wrap;rounded=0;fontSize=18;fontFamily=Helvetica;fontColor=default;" parent="AQ1_ctODMUg5cEXQnaUs-60" vertex="1">
          <mxGeometry x="175" y="298" width="105" height="44" as="geometry" />
        </mxCell>
        <mxCell id="AQ1_ctODMUg5cEXQnaUs-59" value="BRANCH_CTRL" style="text;html=1;strokeColor=none;fillColor=none;align=center;verticalAlign=middle;whiteSpace=wrap;rounded=0;fontSize=18;fontFamily=Helvetica;fontColor=default;" parent="AQ1_ctODMUg5cEXQnaUs-60" vertex="1">
          <mxGeometry x="116.66666666666666" y="338" width="163.33333333333331" height="44" as="geometry" />
        </mxCell>
        <mxCell id="AQ1_ctODMUg5cEXQnaUs-94" value="" style="group;fontSize=18;fillColor=#d0cee2;strokeColor=#56517e;" parent="1" vertex="1" connectable="0">
          <mxGeometry x="1480" y="-1880" width="240" height="160" as="geometry" />
        </mxCell>
        <mxCell id="AQ1_ctODMUg5cEXQnaUs-76" value="&lt;font style=&quot;font-size: 24px;&quot;&gt;&lt;br style=&quot;&quot;&gt;IMM&lt;br style=&quot;&quot;&gt;SEL UNIT&lt;/font&gt;" style="rounded=0;whiteSpace=wrap;html=1;fontFamily=Roboto;fontSize=18;fontColor=default;fillColor=none;gradientColor=none;fontSource=https%3A%2F%2Ffonts.googleapis.com%2Fcss%3Ffamily%3DRoboto;fontStyle=1" parent="AQ1_ctODMUg5cEXQnaUs-94" vertex="1">
          <mxGeometry width="240" height="160" as="geometry" />
        </mxCell>
        <mxCell id="AQ1_ctODMUg5cEXQnaUs-77" value="INSTR" style="text;html=1;strokeColor=none;fillColor=none;align=center;verticalAlign=middle;whiteSpace=wrap;rounded=0;fontSize=18;fontFamily=Helvetica;fontColor=default;" parent="AQ1_ctODMUg5cEXQnaUs-94" vertex="1">
          <mxGeometry y="57.14142857142857" width="60" height="45.71428571428572" as="geometry" />
        </mxCell>
        <mxCell id="AQ1_ctODMUg5cEXQnaUs-90" value="OUT" style="text;html=1;strokeColor=none;fillColor=none;align=center;verticalAlign=middle;whiteSpace=wrap;rounded=0;fontSize=18;fontFamily=Helvetica;fontColor=default;" parent="AQ1_ctODMUg5cEXQnaUs-94" vertex="1">
          <mxGeometry x="193.2467532467533" y="57.14142857142857" width="46.75324675324676" height="45.71428571428572" as="geometry" />
        </mxCell>
        <mxCell id="AQ1_ctODMUg5cEXQnaUs-91" value="SELECT" style="text;html=1;strokeColor=none;fillColor=none;align=center;verticalAlign=middle;whiteSpace=wrap;rounded=0;fontSize=18;fontFamily=Helvetica;fontColor=default;" parent="AQ1_ctODMUg5cEXQnaUs-94" vertex="1">
          <mxGeometry x="90.38961038961041" width="59.22077922077922" height="45.71428571428572" as="geometry" />
        </mxCell>
        <mxCell id="AQ1_ctODMUg5cEXQnaUs-116" value="&lt;font data-font-src=&quot;https://fonts.googleapis.com/css?family=Roboto&quot; face=&quot;Roboto&quot; style=&quot;font-size: 64px;&quot;&gt;ID&lt;/font&gt;" style="text;html=1;strokeColor=none;fillColor=none;align=center;verticalAlign=middle;whiteSpace=wrap;rounded=0;fontSize=64;fontFamily=Helvetica;fontColor=default;fontStyle=1" parent="1" vertex="1">
          <mxGeometry x="1415" y="-3680" width="100" height="80" as="geometry" />
        </mxCell>
        <mxCell id="AQ1_ctODMUg5cEXQnaUs-117" value="&lt;font data-font-src=&quot;https://fonts.googleapis.com/css?family=Roboto&quot; face=&quot;Roboto&quot; style=&quot;font-size: 64px;&quot;&gt;EX&lt;/font&gt;" style="text;html=1;strokeColor=none;fillColor=none;align=center;verticalAlign=middle;whiteSpace=wrap;rounded=0;fontSize=64;fontFamily=Helvetica;fontColor=default;fontStyle=1" parent="1" vertex="1">
          <mxGeometry x="2265" y="-3680" width="100" height="80" as="geometry" />
        </mxCell>
        <mxCell id="AQ1_ctODMUg5cEXQnaUs-118" value="&lt;font data-font-src=&quot;https://fonts.googleapis.com/css?family=Roboto&quot; face=&quot;Roboto&quot; style=&quot;font-size: 64px;&quot;&gt;MEM&lt;/font&gt;" style="text;html=1;strokeColor=none;fillColor=none;align=center;verticalAlign=middle;whiteSpace=wrap;rounded=0;fontSize=64;fontFamily=Helvetica;fontColor=default;fontStyle=1" parent="1" vertex="1">
          <mxGeometry x="3075" y="-3680" width="180" height="80" as="geometry" />
        </mxCell>
        <mxCell id="AQ1_ctODMUg5cEXQnaUs-119" value="&lt;font data-font-src=&quot;https://fonts.googleapis.com/css?family=Roboto&quot; face=&quot;Roboto&quot; style=&quot;font-size: 64px;&quot;&gt;WB&lt;/font&gt;" style="text;html=1;strokeColor=none;fillColor=none;align=center;verticalAlign=middle;whiteSpace=wrap;rounded=0;fontSize=64;fontFamily=Helvetica;fontColor=default;fontStyle=1" parent="1" vertex="1">
          <mxGeometry x="3965" y="-3680" width="100" height="80" as="geometry" />
        </mxCell>
        <mxCell id="AQ1_ctODMUg5cEXQnaUs-135" value="" style="group" parent="1" vertex="1" connectable="0">
          <mxGeometry x="3040" y="-2540" width="119.32573128408558" height="120" as="geometry" />
        </mxCell>
        <mxCell id="AQ1_ctODMUg5cEXQnaUs-130" value="&lt;font style=&quot;font-size: 18px;&quot;&gt;4&lt;/font&gt;" style="whiteSpace=wrap;html=1;aspect=fixed;rounded=0;fontFamily=Roboto;fontSize=10;fillColor=#dae8fc;fontSource=https%3A%2F%2Ffonts.googleapis.com%2Fcss%3Ffamily%3DRoboto;strokeColor=#6c8ebf;container=0;" parent="AQ1_ctODMUg5cEXQnaUs-135" vertex="1">
          <mxGeometry y="14" width="20" height="20" as="geometry" />
        </mxCell>
        <mxCell id="AQ1_ctODMUg5cEXQnaUs-124" value="&lt;font size=&quot;1&quot; data-font-src=&quot;https://fonts.googleapis.com/css?family=Roboto&quot; face=&quot;Roboto&quot;&gt;&lt;b style=&quot;font-size: 24px;&quot;&gt;+&amp;nbsp;&lt;/b&gt;&lt;/font&gt;" style="shape=stencil(tZXtDoIgFIavhr8NYVZ/G9V9oJ2SZeCQvu4+BN0i05ofm3M778HnvOirIsrKjBeACM4Q3SJCIozt2dZ3X6/rkpcFpMZrN64FT3LwndJodYa7OJgaIWQGWpiqS3cIb+ya6qAsVVJaiFCyDDpvfQvjQtpr8cPD6vHPoCos/wIGdO3Zq4js/8cu4nnA0Ux+Q2zjfnK/04FDx9FcD24ycDQcS5lVusJNWcLT80mrqzx8NVPw6sVpNZr2Rd3gx+vwfZsNIBfyDbAOCSQejVgNQHyEAw/YSIhYDjDxgYhHm6Cj70SvBRezVlqc2hExyo5KQ0/2jiLP/fe7Z2rnAje6NcGp/q/ihBc=);whiteSpace=wrap;html=1;points=[[0,0,0,0,0],[0,0.2,0,0,0],[0,0.8,0,0,0],[0,1,0,0,0],[0.5,0.13,0,0,0],[0.5,0.88,0,0,0],[1,0.25,0,0,0],[1,0.5,0,0,0],[1,0.75,0,0,0]];connectable=1;container=0;fillColor=#fad9d5;strokeColor=#ae4132;" parent="AQ1_ctODMUg5cEXQnaUs-135" vertex="1">
          <mxGeometry x="40" width="79.32573128408544" height="120" as="geometry" />
        </mxCell>
        <mxCell id="AQ1_ctODMUg5cEXQnaUs-134" style="edgeStyle=orthogonalEdgeStyle;rounded=0;orthogonalLoop=1;jettySize=auto;html=1;exitX=1;exitY=0.5;exitDx=0;exitDy=0;entryX=0;entryY=0.2;entryDx=0;entryDy=0;entryPerimeter=0;fontFamily=Helvetica;fontSize=10;fontColor=default;" parent="AQ1_ctODMUg5cEXQnaUs-135" source="AQ1_ctODMUg5cEXQnaUs-130" target="AQ1_ctODMUg5cEXQnaUs-124" edge="1">
          <mxGeometry relative="1" as="geometry" />
        </mxCell>
        <mxCell id="AQ1_ctODMUg5cEXQnaUs-126" value="&lt;font data-font-src=&quot;https://fonts.googleapis.com/css?family=Roboto&quot; face=&quot;Roboto&quot; style=&quot;font-size: 18px;&quot;&gt;IN&lt;/font&gt;" style="text;html=1;strokeColor=none;fillColor=none;align=center;verticalAlign=middle;whiteSpace=wrap;rounded=0;fontSize=18;connectable=0;container=0;" parent="AQ1_ctODMUg5cEXQnaUs-135" vertex="1">
          <mxGeometry x="44.957858205255434" y="90" width="14.873574615766021" height="12.495000000000001" as="geometry" />
        </mxCell>
        <mxCell id="AQ1_ctODMUg5cEXQnaUs-127" value="&lt;font data-font-src=&quot;https://fonts.googleapis.com/css?family=Roboto&quot; face=&quot;Roboto&quot; style=&quot;font-size: 18px;&quot;&gt;OUT&lt;/font&gt;" style="text;html=1;strokeColor=none;fillColor=none;align=center;verticalAlign=middle;whiteSpace=wrap;rounded=0;fontSize=18;connectable=0;rotation=-90;container=0;" parent="AQ1_ctODMUg5cEXQnaUs-135" vertex="1">
          <mxGeometry x="88.89439762022812" y="50.59999999999991" width="34.23896876549338" height="18.806666666666665" as="geometry" />
        </mxCell>
        <mxCell id="OJpxC2O1msqaGfNZDnol-70" style="edgeStyle=orthogonalEdgeStyle;rounded=0;orthogonalLoop=1;jettySize=auto;html=1;exitDx=0;exitDy=0;entryX=0;entryY=0.5;entryDx=0;entryDy=0;strokeWidth=4;" parent="1" source="OJpxC2O1msqaGfNZDnol-122" target="AQ1_ctODMUg5cEXQnaUs-77" edge="1">
          <mxGeometry relative="1" as="geometry">
            <Array as="points">
              <mxPoint x="1040" y="-1800" />
            </Array>
          </mxGeometry>
        </mxCell>
        <mxCell id="OJpxC2O1msqaGfNZDnol-60" style="edgeStyle=orthogonalEdgeStyle;rounded=0;orthogonalLoop=1;jettySize=auto;html=1;exitX=1;exitY=0.5;exitDx=0;exitDy=0;entryX=0;entryY=0.5;entryDx=0;entryDy=0;fillColor=#008a00;strokeColor=#005700;strokeWidth=3;" parent="1" source="OJpxC2O1msqaGfNZDnol-6" target="OJpxC2O1msqaGfNZDnol-7" edge="1">
          <mxGeometry relative="1" as="geometry" />
        </mxCell>
        <mxCell id="ypKwjD0F9mnU9vVVUhoT-101" style="edgeStyle=orthogonalEdgeStyle;rounded=0;orthogonalLoop=1;jettySize=auto;html=1;exitX=1;exitY=0.5;exitDx=0;exitDy=0;entryX=0.25;entryY=1;entryDx=0;entryDy=0;fillColor=#008a00;strokeColor=#005700;strokeWidth=3;" parent="1" source="OJpxC2O1msqaGfNZDnol-9" target="ypKwjD0F9mnU9vVVUhoT-100" edge="1">
          <mxGeometry relative="1" as="geometry">
            <Array as="points">
              <mxPoint x="3720" y="-2480" />
              <mxPoint x="3720" y="-2330" />
            </Array>
          </mxGeometry>
        </mxCell>
        <mxCell id="ypKwjD0F9mnU9vVVUhoT-102" style="edgeStyle=orthogonalEdgeStyle;rounded=0;orthogonalLoop=1;jettySize=auto;html=1;exitDx=0;exitDy=0;entryX=0.5;entryY=1;entryDx=0;entryDy=0;fillColor=#e51400;strokeColor=#B20000;strokeWidth=3;" parent="1" target="ypKwjD0F9mnU9vVVUhoT-100" edge="1">
          <mxGeometry relative="1" as="geometry">
            <mxPoint x="3720" y="-2130" as="targetPoint" />
            <Array as="points">
              <mxPoint x="3780" y="-2280" />
              <mxPoint x="3780" y="-2280" />
            </Array>
            <mxPoint x="3680" y="-2280" as="sourcePoint" />
          </mxGeometry>
        </mxCell>
        <mxCell id="ypKwjD0F9mnU9vVVUhoT-103" style="edgeStyle=orthogonalEdgeStyle;rounded=0;orthogonalLoop=1;jettySize=auto;html=1;exitX=1;exitY=0.5;exitDx=0;exitDy=0;entryX=0.75;entryY=1;entryDx=0;entryDy=0;fillColor=#e51400;strokeColor=#B20000;strokeWidth=3;" parent="1" source="OJpxC2O1msqaGfNZDnol-33" target="ypKwjD0F9mnU9vVVUhoT-100" edge="1">
          <mxGeometry relative="1" as="geometry">
            <Array as="points">
              <mxPoint x="3720" y="-2040" />
              <mxPoint x="3720" y="-2230" />
            </Array>
          </mxGeometry>
        </mxCell>
        <mxCell id="ypKwjD0F9mnU9vVVUhoT-99" style="edgeStyle=orthogonalEdgeStyle;rounded=0;orthogonalLoop=1;jettySize=auto;html=1;exitDx=0;exitDy=0;entryX=0;entryY=0.5;entryDx=0;entryDy=0;fillColor=#008a00;strokeColor=#005700;strokeWidth=3;" parent="1" source="bYtuZZROuVN-XpoLcYeS-50" target="AQ1_ctODMUg5cEXQnaUs-36" edge="1">
          <mxGeometry relative="1" as="geometry">
            <mxPoint x="1234.6665445963542" y="-2180" as="targetPoint" />
            <Array as="points">
              <mxPoint x="1240" y="-1240" />
              <mxPoint x="1240" y="-2180" />
            </Array>
          </mxGeometry>
        </mxCell>
        <mxCell id="ypKwjD0F9mnU9vVVUhoT-104" style="edgeStyle=orthogonalEdgeStyle;rounded=0;orthogonalLoop=1;jettySize=auto;html=1;exitX=1;exitY=0.5;exitDx=0;exitDy=0;fillColor=#0050ef;strokeColor=#001DBC;strokeWidth=3;" parent="1" source="OJpxC2O1msqaGfNZDnol-35" target="ypKwjD0F9mnU9vVVUhoT-100" edge="1">
          <mxGeometry relative="1" as="geometry" />
        </mxCell>
        <mxCell id="bYtuZZROuVN-XpoLcYeS-141" style="edgeStyle=orthogonalEdgeStyle;rounded=0;orthogonalLoop=1;jettySize=auto;html=1;exitX=1;exitY=0.5;exitDx=0;exitDy=0;entryX=1;entryY=0.5;entryDx=0;entryDy=0;fillColor=#0050ef;strokeColor=#001DBC;strokeWidth=3;" parent="1" source="OJpxC2O1msqaGfNZDnol-36" target="bYtuZZROuVN-XpoLcYeS-106" edge="1">
          <mxGeometry relative="1" as="geometry">
            <Array as="points">
              <mxPoint x="3680" y="-3400" />
              <mxPoint x="3680" y="-3460" />
              <mxPoint x="3440" y="-3460" />
              <mxPoint x="3440" y="-1667" />
            </Array>
          </mxGeometry>
        </mxCell>
        <mxCell id="ypKwjD0F9mnU9vVVUhoT-105" style="edgeStyle=orthogonalEdgeStyle;rounded=0;orthogonalLoop=1;jettySize=auto;html=1;exitDx=0;exitDy=0;entryX=0.5;entryY=0;entryDx=0;entryDy=0;fillColor=#0050ef;strokeColor=#001DBC;strokeWidth=3;" parent="1" source="bYtuZZROuVN-XpoLcYeS-54" target="AQ1_ctODMUg5cEXQnaUs-39" edge="1">
          <mxGeometry relative="1" as="geometry">
            <mxPoint x="1203.8461538461538" y="-4080" as="targetPoint" />
            <Array as="points">
              <mxPoint x="3760" y="-3500" />
              <mxPoint x="1200" y="-3500" />
              <mxPoint x="1200" y="-2400" />
              <mxPoint x="1440" y="-2400" />
            </Array>
          </mxGeometry>
        </mxCell>
        <mxCell id="bYtuZZROuVN-XpoLcYeS-65" style="edgeStyle=orthogonalEdgeStyle;rounded=0;orthogonalLoop=1;jettySize=auto;html=1;exitX=1;exitY=0.5;exitDx=0;exitDy=0;entryX=0.317;entryY=0.483;entryDx=0;entryDy=0;entryPerimeter=0;endArrow=none;endFill=0;fillColor=#0050ef;strokeColor=#001DBC;strokeWidth=3;" parent="1" source="OJpxC2O1msqaGfNZDnol-37" target="bYtuZZROuVN-XpoLcYeS-54" edge="1">
          <mxGeometry relative="1" as="geometry" />
        </mxCell>
        <mxCell id="OJpxC2O1msqaGfNZDnol-56" style="edgeStyle=orthogonalEdgeStyle;rounded=0;orthogonalLoop=1;jettySize=auto;html=1;entryX=0;entryY=0.5;entryDx=0;entryDy=0;fillColor=#008a00;strokeColor=#005700;strokeWidth=3;" parent="1" source="OJpxC2O1msqaGfNZDnol-85" target="OJpxC2O1msqaGfNZDnol-6" edge="1">
          <mxGeometry relative="1" as="geometry">
            <mxPoint x="400" y="-2480" as="sourcePoint" />
          </mxGeometry>
        </mxCell>
        <mxCell id="OJpxC2O1msqaGfNZDnol-43" value="PC" style="rounded=0;whiteSpace=wrap;html=1;fontFamily=Roboto;fontSource=https%3A%2F%2Ffonts.googleapis.com%2Fcss%3Ffamily%3DRoboto;fontStyle=1;fontSize=24;fillColor=#d0cee2;strokeColor=#56517e;" parent="1" vertex="1">
          <mxGeometry x="219.67000000000002" y="-2320" width="80" height="160" as="geometry" />
        </mxCell>
        <mxCell id="OJpxC2O1msqaGfNZDnol-45" style="edgeStyle=orthogonalEdgeStyle;rounded=0;orthogonalLoop=1;jettySize=auto;html=1;exitX=0;exitY=0.5;exitDx=0;exitDy=0;" parent="1" source="AQ1_ctODMUg5cEXQnaUs-137" edge="1">
          <mxGeometry relative="1" as="geometry">
            <mxPoint x="240" y="-2655.9613526570047" as="targetPoint" />
          </mxGeometry>
        </mxCell>
        <mxCell id="AQ1_ctODMUg5cEXQnaUs-137" value="&lt;font style=&quot;font-size: 18px;&quot;&gt;4&lt;/font&gt;" style="whiteSpace=wrap;html=1;aspect=fixed;rounded=0;fontFamily=Roboto;fontSize=10;fillColor=#dae8fc;fontSource=https%3A%2F%2Ffonts.googleapis.com%2Fcss%3Ffamily%3DRoboto;strokeColor=#6c8ebf;container=0;rotation=0;" parent="1" vertex="1">
          <mxGeometry x="260" y="-2666" width="20" height="20" as="geometry" />
        </mxCell>
        <mxCell id="OJpxC2O1msqaGfNZDnol-50" style="edgeStyle=orthogonalEdgeStyle;rounded=0;orthogonalLoop=1;jettySize=auto;html=1;exitX=1;exitY=0.5;exitDx=0;exitDy=0;exitPerimeter=0;entryX=0.75;entryY=1;entryDx=0;entryDy=0;fillColor=#008a00;strokeColor=#005700;strokeWidth=3;" parent="1" source="AQ1_ctODMUg5cEXQnaUs-138" target="hj1TQCpyKpw-rvz4jUIR-73" edge="1">
          <mxGeometry relative="1" as="geometry">
            <mxPoint x="40" y="-2540" as="targetPoint" />
            <Array as="points">
              <mxPoint x="-100" y="-2620" />
              <mxPoint x="-100" y="-2240" />
            </Array>
          </mxGeometry>
        </mxCell>
        <mxCell id="AQ1_ctODMUg5cEXQnaUs-138" value="&lt;font size=&quot;1&quot; data-font-src=&quot;https://fonts.googleapis.com/css?family=Roboto&quot; face=&quot;Roboto&quot;&gt;&lt;b style=&quot;font-size: 24px;&quot;&gt;+&amp;nbsp;&lt;/b&gt;&lt;/font&gt;" style="shape=stencil(tZXtDoIgFIavhr8NYVZ/G9V9oJ2SZeCQvu4+BN0i05ofm3M778HnvOirIsrKjBeACM4Q3SJCIozt2dZ3X6/rkpcFpMZrN64FT3LwndJodYa7OJgaIWQGWpiqS3cIb+ya6qAsVVJaiFCyDDpvfQvjQtpr8cPD6vHPoCos/wIGdO3Zq4js/8cu4nnA0Ux+Q2zjfnK/04FDx9FcD24ycDQcS5lVusJNWcLT80mrqzx8NVPw6sVpNZr2Rd3gx+vwfZsNIBfyDbAOCSQejVgNQHyEAw/YSIhYDjDxgYhHm6Cj70SvBRezVlqc2hExyo5KQ0/2jiLP/fe7Z2rnAje6NcGp/q/ihBc=);whiteSpace=wrap;html=1;points=[[0,0,0,0,0],[0,0.2,0,0,0],[0,0.8,0,0,0],[0,1,0,0,0],[0.5,0.13,0,0,0],[0.5,0.88,0,0,0],[1,0.25,0,0,0],[1,0.5,0,0,0],[1,0.75,0,0,0]];connectable=1;container=0;rotation=-180;fillColor=#fad9d5;strokeColor=#ae4132;" parent="1" vertex="1">
          <mxGeometry x="160.67000000000002" y="-2680" width="79.32573128408544" height="120" as="geometry" />
        </mxCell>
        <mxCell id="AQ1_ctODMUg5cEXQnaUs-140" value="&lt;font data-font-src=&quot;https://fonts.googleapis.com/css?family=Roboto&quot; face=&quot;Roboto&quot; style=&quot;font-size: 18px;&quot;&gt;IN&lt;/font&gt;" style="text;html=1;strokeColor=none;fillColor=none;align=center;verticalAlign=middle;whiteSpace=wrap;rounded=0;fontSize=18;connectable=0;container=0;rotation=0;" parent="1" vertex="1">
          <mxGeometry x="219.67000000000002" y="-2590.25" width="14.873574615766021" height="12.495000000000001" as="geometry" />
        </mxCell>
        <mxCell id="AQ1_ctODMUg5cEXQnaUs-141" value="&lt;font data-font-src=&quot;https://fonts.googleapis.com/css?family=Roboto&quot; face=&quot;Roboto&quot; style=&quot;font-size: 18px;&quot;&gt;OUT&lt;/font&gt;" style="text;html=1;strokeColor=none;fillColor=none;align=center;verticalAlign=middle;whiteSpace=wrap;rounded=0;fontSize=18;connectable=0;rotation=-90;container=0;" parent="1" vertex="1">
          <mxGeometry x="156.67000000000002" y="-2629" width="34.23896876549338" height="18.806666666666665" as="geometry" />
        </mxCell>
        <mxCell id="OJpxC2O1msqaGfNZDnol-49" style="edgeStyle=orthogonalEdgeStyle;rounded=0;orthogonalLoop=1;jettySize=auto;html=1;exitX=0.5;exitY=0;exitDx=0;exitDy=0;entryX=0;entryY=0.5;entryDx=0;entryDy=0;fillColor=#008a00;strokeColor=#005700;strokeWidth=3;" parent="1" source="OJpxC2O1msqaGfNZDnol-48" target="OJpxC2O1msqaGfNZDnol-43" edge="1">
          <mxGeometry relative="1" as="geometry" />
        </mxCell>
        <mxCell id="OJpxC2O1msqaGfNZDnol-48" value="BRANCH&lt;br&gt;SELECT" style="shape=trapezoid;perimeter=trapezoidPerimeter;whiteSpace=wrap;html=1;fixedSize=1;rotation=90;size=30;textDirection=ltr;verticalAlign=middle;horizontal=0;fontFamily=Roboto;fontSource=https%3A%2F%2Ffonts.googleapis.com%2Fcss%3Ffamily%3DRoboto;fontStyle=1;fillColor=#b1ddf0;strokeColor=#10739e;" parent="1" vertex="1">
          <mxGeometry x="36.669999999999995" y="-2270" width="120" height="60" as="geometry" />
        </mxCell>
        <mxCell id="OJpxC2O1msqaGfNZDnol-52" value="" style="edgeStyle=orthogonalEdgeStyle;rounded=0;orthogonalLoop=1;jettySize=auto;html=1;entryX=0;entryY=0.5;entryDx=0;entryDy=0;strokeWidth=4;" parent="1" source="AQ1_ctODMUg5cEXQnaUs-107" target="OJpxC2O1msqaGfNZDnol-5" edge="1">
          <mxGeometry relative="1" as="geometry">
            <mxPoint x="670" y="-2240" as="targetPoint" />
          </mxGeometry>
        </mxCell>
        <mxCell id="OJpxC2O1msqaGfNZDnol-53" value="PC_next [31:0]" style="text;html=1;strokeColor=none;fillColor=none;align=center;verticalAlign=middle;whiteSpace=wrap;rounded=0;fontFamily=Roboto;fontSource=https%3A%2F%2Ffonts.googleapis.com%2Fcss%3Ffamily%3DRoboto;" parent="1" vertex="1">
          <mxGeometry x="130" y="-2260" width="79.09" height="20" as="geometry" />
        </mxCell>
        <mxCell id="OJpxC2O1msqaGfNZDnol-54" value="PC_plus_4 [31:0]" style="text;html=1;strokeColor=none;fillColor=none;align=center;verticalAlign=middle;whiteSpace=wrap;rounded=0;fontFamily=Roboto;fontSource=https%3A%2F%2Ffonts.googleapis.com%2Fcss%3Ffamily%3DRoboto;" parent="1" vertex="1">
          <mxGeometry x="48.56" y="-2640" width="96.22" height="20" as="geometry" />
        </mxCell>
        <mxCell id="OJpxC2O1msqaGfNZDnol-58" value="PC [31:0]" style="text;html=1;strokeColor=none;fillColor=none;align=center;verticalAlign=middle;whiteSpace=wrap;rounded=0;fontFamily=Roboto;fontSource=https%3A%2F%2Ffonts.googleapis.com%2Fcss%3Ffamily%3DRoboto;" parent="1" vertex="1">
          <mxGeometry x="299.67" y="-2260" width="60.33" height="20" as="geometry" />
        </mxCell>
        <mxCell id="OJpxC2O1msqaGfNZDnol-59" value="INSTRUCTION [31:0]" style="text;html=1;strokeColor=none;fillColor=none;align=center;verticalAlign=middle;whiteSpace=wrap;rounded=0;fontFamily=Roboto;fontSource=https%3A%2F%2Ffonts.googleapis.com%2Fcss%3Ffamily%3DRoboto;" parent="1" vertex="1">
          <mxGeometry x="650" y="-2260" width="120" height="20" as="geometry" />
        </mxCell>
        <mxCell id="OJpxC2O1msqaGfNZDnol-69" style="edgeStyle=orthogonalEdgeStyle;rounded=0;orthogonalLoop=1;jettySize=auto;html=1;exitX=1;exitY=0.5;exitDx=0;exitDy=0;entryX=0;entryY=0.5;entryDx=0;entryDy=0;fillColor=#e51400;strokeColor=#B20000;strokeWidth=3;" parent="1" source="AQ1_ctODMUg5cEXQnaUs-90" target="OJpxC2O1msqaGfNZDnol-23" edge="1">
          <mxGeometry relative="1" as="geometry" />
        </mxCell>
        <mxCell id="OJpxC2O1msqaGfNZDnol-71" style="edgeStyle=orthogonalEdgeStyle;rounded=0;orthogonalLoop=1;jettySize=auto;html=1;exitX=1;exitY=0.5;exitDx=0;exitDy=0;entryX=0.5;entryY=0;entryDx=0;entryDy=0;strokeWidth=3;fillColor=#0050ef;strokeColor=#001DBC;" parent="1" source="AQ1_ctODMUg5cEXQnaUs-56" target="AQ1_ctODMUg5cEXQnaUs-91" edge="1">
          <mxGeometry relative="1" as="geometry" />
        </mxCell>
        <mxCell id="OJpxC2O1msqaGfNZDnol-73" style="edgeStyle=orthogonalEdgeStyle;rounded=0;orthogonalLoop=1;jettySize=auto;html=1;exitX=1;exitY=0.5;exitDx=0;exitDy=0;entryX=0;entryY=0.5;entryDx=0;entryDy=0;fillColor=#e51400;strokeColor=#B20000;strokeWidth=3;" parent="1" source="AQ1_ctODMUg5cEXQnaUs-34" target="OJpxC2O1msqaGfNZDnol-21" edge="1">
          <mxGeometry relative="1" as="geometry" />
        </mxCell>
        <mxCell id="OJpxC2O1msqaGfNZDnol-74" style="edgeStyle=orthogonalEdgeStyle;rounded=0;orthogonalLoop=1;jettySize=auto;html=1;exitX=1;exitY=0.5;exitDx=0;exitDy=0;entryX=0;entryY=0.5;entryDx=0;entryDy=0;fillColor=#e51400;strokeColor=#B20000;strokeWidth=3;" parent="1" source="AQ1_ctODMUg5cEXQnaUs-35" target="OJpxC2O1msqaGfNZDnol-22" edge="1">
          <mxGeometry relative="1" as="geometry" />
        </mxCell>
        <mxCell id="OJpxC2O1msqaGfNZDnol-75" value="ID_INSTRUCTION [31:0]" style="text;html=1;strokeColor=none;fillColor=none;align=center;verticalAlign=middle;whiteSpace=wrap;rounded=0;fontFamily=Roboto;fontSource=https%3A%2F%2Ffonts.googleapis.com%2Fcss%3Ffamily%3DRoboto;" parent="1" vertex="1">
          <mxGeometry x="890" y="-2260" width="140" height="20" as="geometry" />
        </mxCell>
        <mxCell id="OJpxC2O1msqaGfNZDnol-77" value="ID_INSTRUCTION [31:0]" style="text;html=1;strokeColor=none;fillColor=none;align=center;verticalAlign=middle;whiteSpace=wrap;rounded=0;fontFamily=Roboto;fontSource=https%3A%2F%2Ffonts.googleapis.com%2Fcss%3Ffamily%3DRoboto;rotation=0;" parent="1" vertex="1">
          <mxGeometry x="1050" y="-3160" width="140" height="20" as="geometry" />
        </mxCell>
        <mxCell id="OJpxC2O1msqaGfNZDnol-78" value="ID_INSTRUCTION [31:0]" style="text;html=1;strokeColor=none;fillColor=none;align=center;verticalAlign=middle;whiteSpace=wrap;rounded=0;fontFamily=Roboto;fontSource=https%3A%2F%2Ffonts.googleapis.com%2Fcss%3Ffamily%3DRoboto;" parent="1" vertex="1">
          <mxGeometry x="1070" y="-1820" width="140" height="20" as="geometry" />
        </mxCell>
        <mxCell id="OJpxC2O1msqaGfNZDnol-81" value="ID_IMMEDIATE [31:0]" style="text;html=1;strokeColor=none;fillColor=none;align=center;verticalAlign=middle;whiteSpace=wrap;rounded=0;fontFamily=Roboto;fontSource=https%3A%2F%2Ffonts.googleapis.com%2Fcss%3Ffamily%3DRoboto;" parent="1" vertex="1">
          <mxGeometry x="1740" y="-1820" width="120" height="20" as="geometry" />
        </mxCell>
        <mxCell id="OJpxC2O1msqaGfNZDnol-86" value="" style="edgeStyle=orthogonalEdgeStyle;rounded=0;orthogonalLoop=1;jettySize=auto;html=1;entryDx=0;entryDy=0;entryPerimeter=0;endArrow=none;endFill=0;fillColor=#008a00;strokeColor=#005700;strokeWidth=3;" parent="1" source="OJpxC2O1msqaGfNZDnol-89" target="OJpxC2O1msqaGfNZDnol-85" edge="1">
          <mxGeometry relative="1" as="geometry">
            <mxPoint x="400" y="-2280" as="sourcePoint" />
            <mxPoint x="240" y="-2584" as="targetPoint" />
            <Array as="points" />
          </mxGeometry>
        </mxCell>
        <mxCell id="OJpxC2O1msqaGfNZDnol-88" value="" style="edgeStyle=orthogonalEdgeStyle;rounded=0;orthogonalLoop=1;jettySize=auto;html=1;entryX=0;entryY=0.2;entryDx=0;entryDy=0;entryPerimeter=0;fillColor=#008a00;strokeColor=#005700;strokeWidth=3;" parent="1" source="OJpxC2O1msqaGfNZDnol-85" target="AQ1_ctODMUg5cEXQnaUs-138" edge="1">
          <mxGeometry relative="1" as="geometry">
            <mxPoint x="360" y="-2550" as="targetPoint" />
            <Array as="points">
              <mxPoint x="360" y="-2584" />
            </Array>
          </mxGeometry>
        </mxCell>
        <mxCell id="hj1TQCpyKpw-rvz4jUIR-76" value="" style="edgeStyle=orthogonalEdgeStyle;rounded=0;orthogonalLoop=1;jettySize=auto;html=1;entryX=0.25;entryY=1;entryDx=0;entryDy=0;fillColor=#008a00;strokeColor=#005700;strokeWidth=3;" parent="1" source="OJpxC2O1msqaGfNZDnol-85" target="hj1TQCpyKpw-rvz4jUIR-73" edge="1">
          <mxGeometry relative="1" as="geometry">
            <mxPoint x="260" y="-2480" as="targetPoint" />
          </mxGeometry>
        </mxCell>
        <mxCell id="OJpxC2O1msqaGfNZDnol-85" value="" style="shape=waypoint;sketch=0;fillStyle=solid;size=6;pointerEvents=1;points=[];fillColor=none;resizable=0;rotatable=0;perimeter=centerPerimeter;snapToPoint=1;" parent="1" vertex="1">
          <mxGeometry x="350" y="-2490" width="20" height="20" as="geometry" />
        </mxCell>
        <mxCell id="OJpxC2O1msqaGfNZDnol-90" value="" style="edgeStyle=orthogonalEdgeStyle;rounded=0;orthogonalLoop=1;jettySize=auto;html=1;exitX=1;exitY=0.5;exitDx=0;exitDy=0;entryDx=0;entryDy=0;entryPerimeter=0;endArrow=none;endFill=0;fillColor=#008a00;strokeColor=#005700;strokeWidth=3;" parent="1" source="OJpxC2O1msqaGfNZDnol-43" target="OJpxC2O1msqaGfNZDnol-89" edge="1">
          <mxGeometry relative="1" as="geometry">
            <mxPoint x="425" y="-2240" as="targetPoint" />
            <mxPoint x="300" y="-2240" as="sourcePoint" />
          </mxGeometry>
        </mxCell>
        <mxCell id="OJpxC2O1msqaGfNZDnol-89" value="" style="shape=waypoint;sketch=0;fillStyle=solid;size=6;pointerEvents=1;points=[];fillColor=none;resizable=0;rotatable=0;perimeter=centerPerimeter;snapToPoint=1;" parent="1" vertex="1">
          <mxGeometry x="350" y="-2250" width="20" height="20" as="geometry" />
        </mxCell>
        <mxCell id="OJpxC2O1msqaGfNZDnol-92" value="" style="edgeStyle=orthogonalEdgeStyle;rounded=0;orthogonalLoop=1;jettySize=auto;html=1;exitX=1;exitY=0.5;exitDx=0;exitDy=0;entryDx=0;entryDy=0;endArrow=none;endFill=0;strokeWidth=4;" parent="1" source="OJpxC2O1msqaGfNZDnol-5" target="OJpxC2O1msqaGfNZDnol-91" edge="1">
          <mxGeometry relative="1" as="geometry">
            <mxPoint x="880" y="-2240" as="sourcePoint" />
            <mxPoint x="1280" y="-1800" as="targetPoint" />
            <Array as="points">
              <mxPoint x="1040" y="-2240" />
            </Array>
          </mxGeometry>
        </mxCell>
        <mxCell id="OJpxC2O1msqaGfNZDnol-96" value="" style="edgeStyle=orthogonalEdgeStyle;rounded=0;orthogonalLoop=1;jettySize=auto;html=1;entryX=0;entryY=0.5;entryDx=0;entryDy=0;strokeWidth=4;" parent="1" source="hj1TQCpyKpw-rvz4jUIR-13" target="AQ1_ctODMUg5cEXQnaUs-50" edge="1">
          <mxGeometry relative="1" as="geometry">
            <mxPoint x="1040" y="-2870" as="targetPoint" />
            <Array as="points">
              <mxPoint x="1040" y="-3140" />
            </Array>
          </mxGeometry>
        </mxCell>
        <mxCell id="OJpxC2O1msqaGfNZDnol-91" value="" style="shape=waypoint;sketch=0;fillStyle=solid;size=6;pointerEvents=1;points=[];fillColor=none;resizable=0;rotatable=0;perimeter=centerPerimeter;snapToPoint=1;strokeWidth=4;" parent="1" vertex="1">
          <mxGeometry x="1030" y="-2250" width="20" height="20" as="geometry" />
        </mxCell>
        <mxCell id="OJpxC2O1msqaGfNZDnol-97" value="ID_REG_DATA1 [31:0]" style="text;html=1;strokeColor=none;fillColor=none;align=center;verticalAlign=middle;whiteSpace=wrap;rounded=0;fontFamily=Roboto;fontSource=https%3A%2F%2Ffonts.googleapis.com%2Fcss%3Ffamily%3DRoboto;" parent="1" vertex="1">
          <mxGeometry x="1730" y="-2300" width="120" height="20" as="geometry" />
        </mxCell>
        <mxCell id="OJpxC2O1msqaGfNZDnol-98" value="ID_REG_DATA2 [31:0]" style="text;html=1;strokeColor=none;fillColor=none;align=center;verticalAlign=middle;whiteSpace=wrap;rounded=0;fontFamily=Roboto;fontSource=https%3A%2F%2Ffonts.googleapis.com%2Fcss%3Ffamily%3DRoboto;" parent="1" vertex="1">
          <mxGeometry x="1730" y="-2060" width="120" height="20" as="geometry" />
        </mxCell>
        <mxCell id="OJpxC2O1msqaGfNZDnol-100" value="" style="edgeStyle=orthogonalEdgeStyle;rounded=0;orthogonalLoop=1;jettySize=auto;html=1;exitDx=0;exitDy=0;entryDx=0;entryDy=0;strokeWidth=4;endArrow=none;endFill=0;" parent="1" source="OJpxC2O1msqaGfNZDnol-91" target="OJpxC2O1msqaGfNZDnol-99" edge="1">
          <mxGeometry relative="1" as="geometry">
            <mxPoint x="1040" y="-2240" as="sourcePoint" />
            <mxPoint x="1280" y="-1800" as="targetPoint" />
            <Array as="points" />
          </mxGeometry>
        </mxCell>
        <mxCell id="OJpxC2O1msqaGfNZDnol-101" value="" style="edgeStyle=orthogonalEdgeStyle;rounded=0;orthogonalLoop=1;jettySize=auto;html=1;entryX=0;entryY=0.5;entryDx=0;entryDy=0;fillColor=#008a00;strokeColor=#005700;strokeWidth=3;" parent="1" source="OJpxC2O1msqaGfNZDnol-99" target="AQ1_ctODMUg5cEXQnaUs-37" edge="1">
          <mxGeometry relative="1" as="geometry">
            <mxPoint x="1100" y="-2210" as="targetPoint" />
          </mxGeometry>
        </mxCell>
        <mxCell id="OJpxC2O1msqaGfNZDnol-99" value="" style="shape=waypoint;sketch=0;fillStyle=solid;size=6;pointerEvents=1;points=[];fillColor=none;resizable=0;rotatable=0;perimeter=centerPerimeter;snapToPoint=1;strokeWidth=4;" parent="1" vertex="1">
          <mxGeometry x="1030" y="-2226" width="20" height="20" as="geometry" />
        </mxCell>
        <mxCell id="OJpxC2O1msqaGfNZDnol-108" value="" style="edgeStyle=orthogonalEdgeStyle;rounded=0;orthogonalLoop=1;jettySize=auto;html=1;exitDx=0;exitDy=0;strokeWidth=4;endArrow=none;endFill=0;" parent="1" source="OJpxC2O1msqaGfNZDnol-99" target="OJpxC2O1msqaGfNZDnol-114" edge="1">
          <mxGeometry relative="1" as="geometry">
            <mxPoint x="1040" y="-2216" as="sourcePoint" />
            <mxPoint x="1040" y="-2180" as="targetPoint" />
            <Array as="points" />
          </mxGeometry>
        </mxCell>
        <mxCell id="OJpxC2O1msqaGfNZDnol-117" value="" style="edgeStyle=orthogonalEdgeStyle;rounded=0;orthogonalLoop=1;jettySize=auto;html=1;entryX=0;entryY=0.5;entryDx=0;entryDy=0;fillColor=#008a00;strokeColor=#005700;strokeWidth=3;" parent="1" source="OJpxC2O1msqaGfNZDnol-114" target="AQ1_ctODMUg5cEXQnaUs-38" edge="1">
          <mxGeometry relative="1" as="geometry">
            <mxPoint x="1100" y="-2100" as="targetPoint" />
          </mxGeometry>
        </mxCell>
        <mxCell id="OJpxC2O1msqaGfNZDnol-114" value="" style="shape=waypoint;sketch=0;fillStyle=solid;size=6;pointerEvents=1;points=[];fillColor=none;resizable=0;rotatable=0;perimeter=centerPerimeter;snapToPoint=1;strokeWidth=4;" parent="1" vertex="1">
          <mxGeometry x="1030" y="-2118" width="20" height="20" as="geometry" />
        </mxCell>
        <mxCell id="OJpxC2O1msqaGfNZDnol-118" value="ID_INSTRUCTION [19:15]" style="text;html=1;strokeColor=none;fillColor=none;align=center;verticalAlign=middle;whiteSpace=wrap;rounded=0;fontFamily=Roboto;fontSource=https%3A%2F%2Ffonts.googleapis.com%2Fcss%3Ffamily%3DRoboto;" parent="1" vertex="1">
          <mxGeometry x="1055" y="-2240" width="150" height="20" as="geometry" />
        </mxCell>
        <mxCell id="OJpxC2O1msqaGfNZDnol-119" value="ID_INSTRUCTION [24:20]" style="text;html=1;strokeColor=none;fillColor=none;align=center;verticalAlign=middle;whiteSpace=wrap;rounded=0;fontFamily=Roboto;fontSource=https%3A%2F%2Ffonts.googleapis.com%2Fcss%3Ffamily%3DRoboto;" parent="1" vertex="1">
          <mxGeometry x="1060" y="-2130" width="140" height="20" as="geometry" />
        </mxCell>
        <mxCell id="OJpxC2O1msqaGfNZDnol-123" value="" style="edgeStyle=orthogonalEdgeStyle;rounded=0;orthogonalLoop=1;jettySize=auto;html=1;exitDx=0;exitDy=0;entryDx=0;entryDy=0;strokeWidth=4;endArrow=none;endFill=0;" parent="1" source="OJpxC2O1msqaGfNZDnol-114" target="OJpxC2O1msqaGfNZDnol-122" edge="1">
          <mxGeometry relative="1" as="geometry">
            <mxPoint x="1040" y="-2108" as="sourcePoint" />
            <mxPoint x="1300" y="-1800" as="targetPoint" />
            <Array as="points" />
          </mxGeometry>
        </mxCell>
        <mxCell id="OJpxC2O1msqaGfNZDnol-125" value="" style="edgeStyle=orthogonalEdgeStyle;rounded=0;orthogonalLoop=1;jettySize=auto;html=1;strokeWidth=4;endArrow=none;endFill=0;" parent="1" edge="1">
          <mxGeometry relative="1" as="geometry">
            <mxPoint x="1040" y="-1480" as="sourcePoint" />
            <mxPoint x="1040" y="-1480" as="targetPoint" />
          </mxGeometry>
        </mxCell>
        <mxCell id="OJpxC2O1msqaGfNZDnol-122" value="" style="shape=waypoint;sketch=0;fillStyle=solid;size=6;pointerEvents=1;points=[];fillColor=none;resizable=0;rotatable=0;perimeter=centerPerimeter;snapToPoint=1;strokeWidth=4;" parent="1" vertex="1">
          <mxGeometry x="1030" y="-1810" width="20" height="20" as="geometry" />
        </mxCell>
        <mxCell id="OJpxC2O1msqaGfNZDnol-127" value="" style="edgeStyle=orthogonalEdgeStyle;rounded=0;orthogonalLoop=1;jettySize=auto;html=1;strokeWidth=4;endArrow=none;endFill=0;" parent="1" source="OJpxC2O1msqaGfNZDnol-122" target="OJpxC2O1msqaGfNZDnol-126" edge="1">
          <mxGeometry relative="1" as="geometry">
            <mxPoint x="1040" y="-1800" as="sourcePoint" />
            <mxPoint x="1040" y="-1430" as="targetPoint" />
          </mxGeometry>
        </mxCell>
        <mxCell id="OJpxC2O1msqaGfNZDnol-129" value="" style="edgeStyle=orthogonalEdgeStyle;rounded=0;orthogonalLoop=1;jettySize=auto;html=1;entryX=0;entryY=0.5;entryDx=0;entryDy=0;fillColor=#008a00;strokeColor=#005700;strokeWidth=3;" parent="1" source="OJpxC2O1msqaGfNZDnol-126" target="OJpxC2O1msqaGfNZDnol-26" edge="1">
          <mxGeometry relative="1" as="geometry">
            <mxPoint x="1080" y="-1640" as="targetPoint" />
          </mxGeometry>
        </mxCell>
        <mxCell id="OJpxC2O1msqaGfNZDnol-126" value="" style="shape=waypoint;sketch=0;fillStyle=solid;size=6;pointerEvents=1;points=[];fillColor=none;resizable=0;rotatable=0;perimeter=centerPerimeter;snapToPoint=1;strokeWidth=4;" parent="1" vertex="1">
          <mxGeometry x="1030" y="-1650" width="20" height="20" as="geometry" />
        </mxCell>
        <mxCell id="OJpxC2O1msqaGfNZDnol-132" value="" style="edgeStyle=orthogonalEdgeStyle;rounded=0;orthogonalLoop=1;jettySize=auto;html=1;strokeWidth=4;endArrow=none;endFill=0;" parent="1" source="OJpxC2O1msqaGfNZDnol-126" target="OJpxC2O1msqaGfNZDnol-131" edge="1">
          <mxGeometry relative="1" as="geometry">
            <mxPoint x="1040" y="-1640" as="sourcePoint" />
            <mxPoint x="1040" y="-1430" as="targetPoint" />
          </mxGeometry>
        </mxCell>
        <mxCell id="OJpxC2O1msqaGfNZDnol-134" value="" style="edgeStyle=orthogonalEdgeStyle;rounded=0;orthogonalLoop=1;jettySize=auto;html=1;entryX=0;entryY=0.5;entryDx=0;entryDy=0;fillColor=#008a00;strokeColor=#005700;strokeWidth=3;" parent="1" source="OJpxC2O1msqaGfNZDnol-131" target="OJpxC2O1msqaGfNZDnol-25" edge="1">
          <mxGeometry relative="1" as="geometry">
            <mxPoint x="1080" y="-1560" as="targetPoint" />
          </mxGeometry>
        </mxCell>
        <mxCell id="OJpxC2O1msqaGfNZDnol-131" value="" style="shape=waypoint;sketch=0;fillStyle=solid;size=6;pointerEvents=1;points=[];fillColor=none;resizable=0;rotatable=0;perimeter=centerPerimeter;snapToPoint=1;strokeWidth=4;" parent="1" vertex="1">
          <mxGeometry x="1030" y="-1570" width="20" height="20" as="geometry" />
        </mxCell>
        <mxCell id="OJpxC2O1msqaGfNZDnol-136" value="" style="edgeStyle=orthogonalEdgeStyle;rounded=0;orthogonalLoop=1;jettySize=auto;html=1;strokeWidth=4;endArrow=none;endFill=0;" parent="1" source="OJpxC2O1msqaGfNZDnol-137" edge="1">
          <mxGeometry relative="1" as="geometry">
            <mxPoint x="1040" y="-1560" as="sourcePoint" />
            <mxPoint x="1040" y="-1480" as="targetPoint" />
          </mxGeometry>
        </mxCell>
        <mxCell id="OJpxC2O1msqaGfNZDnol-138" value="" style="edgeStyle=orthogonalEdgeStyle;rounded=0;orthogonalLoop=1;jettySize=auto;html=1;strokeWidth=4;endArrow=none;endFill=0;" parent="1" source="OJpxC2O1msqaGfNZDnol-131" target="OJpxC2O1msqaGfNZDnol-137" edge="1">
          <mxGeometry relative="1" as="geometry">
            <mxPoint x="1040" y="-1560" as="sourcePoint" />
            <mxPoint x="1040" y="-1480" as="targetPoint" />
          </mxGeometry>
        </mxCell>
        <mxCell id="OJpxC2O1msqaGfNZDnol-140" value="" style="edgeStyle=orthogonalEdgeStyle;rounded=0;orthogonalLoop=1;jettySize=auto;html=1;entryX=0;entryY=0.5;entryDx=0;entryDy=0;fillColor=#008a00;strokeColor=#005700;strokeWidth=3;" parent="1" source="OJpxC2O1msqaGfNZDnol-137" target="OJpxC2O1msqaGfNZDnol-24" edge="1">
          <mxGeometry relative="1" as="geometry">
            <mxPoint x="1099.9999999999998" y="-1480.0000000000005" as="targetPoint" />
          </mxGeometry>
        </mxCell>
        <mxCell id="OJpxC2O1msqaGfNZDnol-137" value="" style="shape=waypoint;sketch=0;fillStyle=solid;size=6;pointerEvents=1;points=[];fillColor=none;resizable=0;rotatable=0;perimeter=centerPerimeter;snapToPoint=1;strokeWidth=4;" parent="1" vertex="1">
          <mxGeometry x="1030" y="-1490" width="20" height="20" as="geometry" />
        </mxCell>
        <mxCell id="OJpxC2O1msqaGfNZDnol-141" value="ID_INSTRUCTION [19:15]" style="text;html=1;strokeColor=none;fillColor=none;align=center;verticalAlign=middle;whiteSpace=wrap;rounded=0;fontFamily=Roboto;fontSource=https%3A%2F%2Ffonts.googleapis.com%2Fcss%3Ffamily%3DRoboto;" parent="1" vertex="1">
          <mxGeometry x="1070" y="-1660" width="140" height="20" as="geometry" />
        </mxCell>
        <mxCell id="OJpxC2O1msqaGfNZDnol-142" value="ID_INSTRUCTION [24:20]" style="text;html=1;strokeColor=none;fillColor=none;align=center;verticalAlign=middle;whiteSpace=wrap;rounded=0;fontFamily=Roboto;fontSource=https%3A%2F%2Ffonts.googleapis.com%2Fcss%3Ffamily%3DRoboto;" parent="1" vertex="1">
          <mxGeometry x="1070" y="-1580" width="140" height="20" as="geometry" />
        </mxCell>
        <mxCell id="OJpxC2O1msqaGfNZDnol-143" value="ID_INSTRUCTION [11:7]" style="text;html=1;strokeColor=none;fillColor=none;align=center;verticalAlign=middle;whiteSpace=wrap;rounded=0;fontFamily=Roboto;fontSource=https%3A%2F%2Ffonts.googleapis.com%2Fcss%3Ffamily%3DRoboto;" parent="1" vertex="1">
          <mxGeometry x="1070" y="-1500" width="140" height="20" as="geometry" />
        </mxCell>
        <mxCell id="OJpxC2O1msqaGfNZDnol-144" style="edgeStyle=orthogonalEdgeStyle;rounded=0;orthogonalLoop=1;jettySize=auto;html=1;exitX=1;exitY=0.5;exitDx=0;exitDy=0;entryX=0;entryY=0.5;entryDx=0;entryDy=0;strokeWidth=3;fillColor=#0050ef;strokeColor=#001DBC;" parent="1" source="AQ1_ctODMUg5cEXQnaUs-51" target="OJpxC2O1msqaGfNZDnol-15" edge="1">
          <mxGeometry relative="1" as="geometry" />
        </mxCell>
        <mxCell id="OJpxC2O1msqaGfNZDnol-145" style="edgeStyle=orthogonalEdgeStyle;rounded=0;orthogonalLoop=1;jettySize=auto;html=1;exitX=1;exitY=0.5;exitDx=0;exitDy=0;entryX=0;entryY=0.5;entryDx=0;entryDy=0;strokeWidth=3;fillColor=#0050ef;strokeColor=#001DBC;" parent="1" source="AQ1_ctODMUg5cEXQnaUs-52" target="OJpxC2O1msqaGfNZDnol-12" edge="1">
          <mxGeometry relative="1" as="geometry">
            <Array as="points">
              <mxPoint x="1730" y="-3250" />
              <mxPoint x="1730" y="-3320" />
            </Array>
          </mxGeometry>
        </mxCell>
        <mxCell id="OJpxC2O1msqaGfNZDnol-146" style="edgeStyle=orthogonalEdgeStyle;rounded=0;orthogonalLoop=1;jettySize=auto;html=1;exitX=1;exitY=0.5;exitDx=0;exitDy=0;entryX=0;entryY=0.5;entryDx=0;entryDy=0;strokeWidth=3;fillColor=#0050ef;strokeColor=#001DBC;" parent="1" source="AQ1_ctODMUg5cEXQnaUs-53" target="OJpxC2O1msqaGfNZDnol-20" edge="1">
          <mxGeometry relative="1" as="geometry">
            <Array as="points">
              <mxPoint x="1740" y="-3206" />
              <mxPoint x="1740" y="-3240" />
            </Array>
          </mxGeometry>
        </mxCell>
        <mxCell id="OJpxC2O1msqaGfNZDnol-147" style="edgeStyle=orthogonalEdgeStyle;rounded=0;orthogonalLoop=1;jettySize=auto;html=1;exitX=1;exitY=0.5;exitDx=0;exitDy=0;entryX=0;entryY=0.5;entryDx=0;entryDy=0;strokeWidth=3;fillColor=#0050ef;strokeColor=#001DBC;" parent="1" source="AQ1_ctODMUg5cEXQnaUs-54" target="OJpxC2O1msqaGfNZDnol-13" edge="1">
          <mxGeometry relative="1" as="geometry" />
        </mxCell>
        <mxCell id="OJpxC2O1msqaGfNZDnol-148" style="edgeStyle=orthogonalEdgeStyle;rounded=0;orthogonalLoop=1;jettySize=auto;html=1;exitX=1;exitY=0.5;exitDx=0;exitDy=0;entryX=0;entryY=0.5;entryDx=0;entryDy=0;strokeWidth=3;fillColor=#0050ef;strokeColor=#001DBC;" parent="1" source="AQ1_ctODMUg5cEXQnaUs-55" target="OJpxC2O1msqaGfNZDnol-11" edge="1">
          <mxGeometry relative="1" as="geometry">
            <Array as="points">
              <mxPoint x="1740" y="-3120" />
              <mxPoint x="1740" y="-3080" />
            </Array>
          </mxGeometry>
        </mxCell>
        <mxCell id="OJpxC2O1msqaGfNZDnol-149" style="edgeStyle=orthogonalEdgeStyle;rounded=0;orthogonalLoop=1;jettySize=auto;html=1;exitDx=0;exitDy=0;entryX=0;entryY=0.5;entryDx=0;entryDy=0;strokeWidth=3;fillColor=#0050ef;strokeColor=#001DBC;" parent="1" source="hj1TQCpyKpw-rvz4jUIR-23" target="OJpxC2O1msqaGfNZDnol-17" edge="1">
          <mxGeometry relative="1" as="geometry">
            <Array as="points">
              <mxPoint x="1730" y="-3080" />
              <mxPoint x="1730" y="-3000" />
            </Array>
          </mxGeometry>
        </mxCell>
        <mxCell id="OJpxC2O1msqaGfNZDnol-150" style="edgeStyle=orthogonalEdgeStyle;rounded=0;orthogonalLoop=1;jettySize=auto;html=1;exitDx=0;exitDy=0;entryX=0;entryY=0.5;entryDx=0;entryDy=0;strokeWidth=3;fillColor=#0050ef;strokeColor=#001DBC;" parent="1" source="hj1TQCpyKpw-rvz4jUIR-27" target="OJpxC2O1msqaGfNZDnol-18" edge="1">
          <mxGeometry relative="1" as="geometry">
            <Array as="points">
              <mxPoint x="1720" y="-3040" />
              <mxPoint x="1720" y="-2920" />
            </Array>
          </mxGeometry>
        </mxCell>
        <mxCell id="OJpxC2O1msqaGfNZDnol-152" style="edgeStyle=orthogonalEdgeStyle;rounded=0;orthogonalLoop=1;jettySize=auto;html=1;exitX=1;exitY=0.5;exitDx=0;exitDy=0;entryX=0;entryY=0.5;entryDx=0;entryDy=0;strokeWidth=3;fillColor=#0050ef;strokeColor=#001DBC;" parent="1" source="AQ1_ctODMUg5cEXQnaUs-59" target="OJpxC2O1msqaGfNZDnol-16" edge="1">
          <mxGeometry relative="1" as="geometry">
            <Array as="points">
              <mxPoint x="1710" y="-3000" />
              <mxPoint x="1710" y="-2840" />
            </Array>
          </mxGeometry>
        </mxCell>
        <mxCell id="OJpxC2O1msqaGfNZDnol-160" value="ID_IMMEDIATE_SELECT [2:0]" style="text;html=1;strokeColor=none;fillColor=none;align=center;verticalAlign=middle;whiteSpace=wrap;rounded=0;fontFamily=Roboto;fontSource=https%3A%2F%2Ffonts.googleapis.com%2Fcss%3Ffamily%3DRoboto;rotation=90;" parent="1" vertex="1">
          <mxGeometry x="1530" y="-1990" width="170" height="20" as="geometry" />
        </mxCell>
        <mxCell id="OJpxC2O1msqaGfNZDnol-161" value="ID_PC [31:0]" style="text;html=1;strokeColor=none;fillColor=none;align=center;verticalAlign=middle;whiteSpace=wrap;rounded=0;fontFamily=Roboto;fontSource=https%3A%2F%2Ffonts.googleapis.com%2Fcss%3Ffamily%3DRoboto;" parent="1" vertex="1">
          <mxGeometry x="890" y="-2500" width="80" height="20" as="geometry" />
        </mxCell>
        <mxCell id="OJpxC2O1msqaGfNZDnol-162" value="ID_PC [31:0]" style="text;html=1;strokeColor=none;fillColor=none;align=center;verticalAlign=middle;whiteSpace=wrap;rounded=0;fontFamily=Roboto;fontSource=https%3A%2F%2Ffonts.googleapis.com%2Fcss%3Ffamily%3DRoboto;" parent="1" vertex="1">
          <mxGeometry x="1790" y="-2500" width="80" height="20" as="geometry" />
        </mxCell>
        <mxCell id="ypKwjD0F9mnU9vVVUhoT-3" value="" style="edgeStyle=orthogonalEdgeStyle;rounded=0;orthogonalLoop=1;jettySize=auto;html=1;entryX=0;entryY=0.5;entryDx=0;entryDy=0;fillColor=#e51400;strokeColor=#B20000;strokeWidth=3;" parent="1" source="ypKwjD0F9mnU9vVVUhoT-65" target="OJpxC2O1msqaGfNZDnol-28" edge="1">
          <mxGeometry relative="1" as="geometry">
            <mxPoint x="2690" y="-2300" as="targetPoint" />
            <Array as="points">
              <mxPoint x="2700" y="-2280" />
              <mxPoint x="2700" y="-2280" />
            </Array>
          </mxGeometry>
        </mxCell>
        <mxCell id="ypKwjD0F9mnU9vVVUhoT-8" style="edgeStyle=orthogonalEdgeStyle;rounded=0;orthogonalLoop=1;jettySize=auto;html=1;exitX=0.5;exitY=0;exitDx=0;exitDy=0;entryX=0;entryY=0.2;entryDx=0;entryDy=0;entryPerimeter=0;fillColor=#e51400;strokeColor=#B20000;strokeWidth=3;" parent="1" source="ypKwjD0F9mnU9vVVUhoT-5" target="AQ1_ctODMUg5cEXQnaUs-15" edge="1">
          <mxGeometry relative="1" as="geometry" />
        </mxCell>
        <mxCell id="ypKwjD0F9mnU9vVVUhoT-5" value="OP1&lt;br&gt;SELECT" style="shape=trapezoid;perimeter=trapezoidPerimeter;whiteSpace=wrap;html=1;fixedSize=1;rotation=90;size=30;textDirection=ltr;verticalAlign=middle;horizontal=0;fontFamily=Roboto;fontSource=https%3A%2F%2Ffonts.googleapis.com%2Fcss%3Ffamily%3DRoboto;fontStyle=1;fillColor=#b1ddf0;strokeColor=#10739e;" parent="1" vertex="1">
          <mxGeometry x="2330" y="-2430" width="120" height="60" as="geometry" />
        </mxCell>
        <mxCell id="ypKwjD0F9mnU9vVVUhoT-6" style="edgeStyle=orthogonalEdgeStyle;rounded=0;orthogonalLoop=1;jettySize=auto;html=1;exitDx=0;exitDy=0;entryX=0.25;entryY=1;entryDx=0;entryDy=0;fillColor=#008a00;strokeColor=#005700;strokeWidth=3;" parent="1" source="ypKwjD0F9mnU9vVVUhoT-45" target="ypKwjD0F9mnU9vVVUhoT-5" edge="1">
          <mxGeometry relative="1" as="geometry">
            <Array as="points">
              <mxPoint x="2040" y="-2430" />
            </Array>
          </mxGeometry>
        </mxCell>
        <mxCell id="ypKwjD0F9mnU9vVVUhoT-7" style="edgeStyle=orthogonalEdgeStyle;rounded=0;orthogonalLoop=1;jettySize=auto;html=1;exitX=1;exitY=0.5;exitDx=0;exitDy=0;endArrow=classic;endFill=1;entryX=0.25;entryY=1;entryDx=0;entryDy=0;fillColor=#e51400;strokeColor=#B20000;strokeWidth=3;" parent="1" source="OJpxC2O1msqaGfNZDnol-21" target="bYtuZZROuVN-XpoLcYeS-10" edge="1">
          <mxGeometry relative="1" as="geometry">
            <mxPoint x="2250" y="-2340" as="targetPoint" />
            <Array as="points">
              <mxPoint x="2040" y="-2280" />
              <mxPoint x="2040" y="-2380" />
            </Array>
          </mxGeometry>
        </mxCell>
        <mxCell id="ypKwjD0F9mnU9vVVUhoT-10" style="edgeStyle=orthogonalEdgeStyle;rounded=0;orthogonalLoop=1;jettySize=auto;html=1;exitX=0.5;exitY=0;exitDx=0;exitDy=0;entryX=0;entryY=0.8;entryDx=0;entryDy=0;entryPerimeter=0;fillColor=#e51400;strokeColor=#B20000;strokeWidth=3;" parent="1" source="ypKwjD0F9mnU9vVVUhoT-9" target="AQ1_ctODMUg5cEXQnaUs-15" edge="1">
          <mxGeometry relative="1" as="geometry" />
        </mxCell>
        <mxCell id="ypKwjD0F9mnU9vVVUhoT-9" value="OP2&lt;br&gt;SELECT" style="shape=trapezoid;perimeter=trapezoidPerimeter;whiteSpace=wrap;html=1;fixedSize=1;rotation=90;size=30;textDirection=ltr;verticalAlign=middle;horizontal=0;fontFamily=Roboto;fontSource=https%3A%2F%2Ffonts.googleapis.com%2Fcss%3Ffamily%3DRoboto;fontStyle=1;fillColor=#b1ddf0;strokeColor=#10739e;" parent="1" vertex="1">
          <mxGeometry x="2330" y="-2170" width="120" height="60" as="geometry" />
        </mxCell>
        <mxCell id="ypKwjD0F9mnU9vVVUhoT-11" style="edgeStyle=orthogonalEdgeStyle;rounded=0;orthogonalLoop=1;jettySize=auto;html=1;entryX=0.75;entryY=1;entryDx=0;entryDy=0;exitX=1;exitY=0.5;exitDx=0;exitDy=0;fillColor=#e51400;strokeColor=#B20000;strokeWidth=3;" parent="1" source="OJpxC2O1msqaGfNZDnol-22" target="bYtuZZROuVN-XpoLcYeS-14" edge="1">
          <mxGeometry relative="1" as="geometry">
            <Array as="points">
              <mxPoint x="2040" y="-2040" />
              <mxPoint x="2040" y="-2160" />
            </Array>
            <mxPoint x="2040" y="-2040" as="sourcePoint" />
          </mxGeometry>
        </mxCell>
        <mxCell id="ypKwjD0F9mnU9vVVUhoT-12" style="edgeStyle=orthogonalEdgeStyle;rounded=0;orthogonalLoop=1;jettySize=auto;html=1;exitX=1;exitY=0.5;exitDx=0;exitDy=0;endArrow=classic;endFill=1;entryX=0.75;entryY=1;entryDx=0;entryDy=0;fillColor=#e51400;strokeColor=#B20000;strokeWidth=3;" parent="1" source="OJpxC2O1msqaGfNZDnol-23" target="ypKwjD0F9mnU9vVVUhoT-9" edge="1">
          <mxGeometry relative="1" as="geometry">
            <Array as="points">
              <mxPoint x="2060" y="-1800" />
              <mxPoint x="2060" y="-2110" />
            </Array>
            <mxPoint x="2310" y="-2110" as="targetPoint" />
          </mxGeometry>
        </mxCell>
        <mxCell id="ypKwjD0F9mnU9vVVUhoT-17" value="" style="edgeStyle=orthogonalEdgeStyle;rounded=0;orthogonalLoop=1;jettySize=auto;html=1;entryX=0.75;entryY=1;entryDx=0;entryDy=0;exitDx=0;exitDy=0;fillColor=#e51400;strokeColor=#B20000;strokeWidth=3;" parent="1" source="ypKwjD0F9mnU9vVVUhoT-13" target="ypKwjD0F9mnU9vVVUhoT-5" edge="1">
          <mxGeometry relative="1" as="geometry">
            <mxPoint x="2259.9999999999995" y="-2346" as="targetPoint" />
            <mxPoint x="2280" y="-2360" as="sourcePoint" />
            <Array as="points">
              <mxPoint x="2340" y="-2350" />
              <mxPoint x="2340" y="-2370" />
            </Array>
          </mxGeometry>
        </mxCell>
        <mxCell id="ypKwjD0F9mnU9vVVUhoT-19" value="" style="edgeStyle=orthogonalEdgeStyle;rounded=0;orthogonalLoop=1;jettySize=auto;html=1;entryX=0;entryY=0.25;entryDx=0;entryDy=0;fillColor=#e51400;strokeColor=#B20000;strokeWidth=3;" parent="1" source="ypKwjD0F9mnU9vVVUhoT-13" target="AQ1_ctODMUg5cEXQnaUs-96" edge="1">
          <mxGeometry relative="1" as="geometry">
            <mxPoint x="2160" y="-2246" as="targetPoint" />
            <Array as="points">
              <mxPoint x="2290" y="-1920" />
            </Array>
          </mxGeometry>
        </mxCell>
        <mxCell id="ypKwjD0F9mnU9vVVUhoT-23" value="" style="edgeStyle=orthogonalEdgeStyle;rounded=0;orthogonalLoop=1;jettySize=auto;html=1;entryX=0;entryY=0.75;entryDx=0;entryDy=0;exitDx=0;exitDy=0;exitPerimeter=0;fillColor=#e51400;strokeColor=#B20000;strokeWidth=3;" parent="1" source="bYtuZZROuVN-XpoLcYeS-121" target="AQ1_ctODMUg5cEXQnaUs-96" edge="1">
          <mxGeometry relative="1" as="geometry">
            <mxPoint x="2200" y="-2084" as="targetPoint" />
            <Array as="points">
              <mxPoint x="2310" y="-1840" />
            </Array>
            <mxPoint x="2310" y="-2070" as="sourcePoint" />
          </mxGeometry>
        </mxCell>
        <mxCell id="ypKwjD0F9mnU9vVVUhoT-24" value="" style="group" parent="1" vertex="1" connectable="0">
          <mxGeometry x="2480" y="-2440" width="160" height="320" as="geometry" />
        </mxCell>
        <mxCell id="AQ1_ctODMUg5cEXQnaUs-15" value="&lt;font size=&quot;1&quot; data-font-src=&quot;https://fonts.googleapis.com/css?family=Roboto&quot; face=&quot;Roboto&quot;&gt;&lt;b style=&quot;font-size: 24px;&quot;&gt;&amp;nbsp; &amp;nbsp; ALU&amp;nbsp; &amp;nbsp;&lt;/b&gt;&lt;/font&gt;" style="shape=stencil(tZXtDoIgFIavhr8NYVZ/G9V9oJ2SZeCQvu4+BN0i05ofm3M778HnvOirIsrKjBeACM4Q3SJCIozt2dZ3X6/rkpcFpMZrN64FT3LwndJodYa7OJgaIWQGWpiqS3cIb+ya6qAsVVJaiFCyDDpvfQvjQtpr8cPD6vHPoCos/wIGdO3Zq4js/8cu4nnA0Ux+Q2zjfnK/04FDx9FcD24ycDQcS5lVusJNWcLT80mrqzx8NVPw6sVpNZr2Rd3gx+vwfZsNIBfyDbAOCSQejVgNQHyEAw/YSIhYDjDxgYhHm6Cj70SvBRezVlqc2hExyo5KQ0/2jiLP/fe7Z2rnAje6NcGp/q/ihBc=);whiteSpace=wrap;html=1;points=[[0,0,0,0,0],[0,0.2,0,0,0],[0,0.8,0,0,0],[0,1,0,0,0],[0.5,0.13,0,0,0],[0.5,0.88,0,0,0],[1,0.25,0,0,0],[1,0.5,0,0,0],[1,0.75,0,0,0]];connectable=1;fillColor=#d0cee2;strokeColor=#56517e;" parent="ypKwjD0F9mnU9vVVUhoT-24" vertex="1">
          <mxGeometry width="160" height="320" as="geometry" />
        </mxCell>
        <mxCell id="AQ1_ctODMUg5cEXQnaUs-9" value="&lt;font data-font-src=&quot;https://fonts.googleapis.com/css?family=Roboto&quot; face=&quot;Roboto&quot; style=&quot;font-size: 18px;&quot;&gt;DATA1&lt;/font&gt;" style="text;html=1;strokeColor=none;fillColor=none;align=center;verticalAlign=middle;whiteSpace=wrap;rounded=0;fontSize=18;glass=0;connectable=0;" parent="ypKwjD0F9mnU9vVVUhoT-24" vertex="1">
          <mxGeometry y="50" width="59.0625" height="28" as="geometry" />
        </mxCell>
        <mxCell id="AQ1_ctODMUg5cEXQnaUs-10" value="&lt;font data-font-src=&quot;https://fonts.googleapis.com/css?family=Roboto&quot; face=&quot;Roboto&quot; style=&quot;font-size: 18px;&quot;&gt;DATA2&lt;/font&gt;" style="text;html=1;strokeColor=none;fillColor=none;align=center;verticalAlign=middle;whiteSpace=wrap;rounded=0;fontSize=18;connectable=0;" parent="ypKwjD0F9mnU9vVVUhoT-24" vertex="1">
          <mxGeometry y="240" width="59.0625" height="33.32" as="geometry" />
        </mxCell>
        <mxCell id="AQ1_ctODMUg5cEXQnaUs-11" value="&lt;font data-font-src=&quot;https://fonts.googleapis.com/css?family=Roboto&quot; face=&quot;Roboto&quot; style=&quot;font-size: 18px;&quot;&gt;RESULT&lt;/font&gt;" style="text;html=1;strokeColor=none;fillColor=none;align=center;verticalAlign=middle;whiteSpace=wrap;rounded=0;fontSize=18;connectable=0;rotation=-90;" parent="ypKwjD0F9mnU9vVVUhoT-24" vertex="1">
          <mxGeometry x="110.40999999999985" y="145.42000000000007" width="69.06" height="29.17" as="geometry" />
        </mxCell>
        <mxCell id="ypKwjD0F9mnU9vVVUhoT-29" value="&lt;font data-font-src=&quot;https://fonts.googleapis.com/css?family=Roboto&quot; face=&quot;Roboto&quot; style=&quot;font-size: 18px;&quot;&gt;SEL&lt;/font&gt;" style="text;html=1;strokeColor=none;fillColor=none;align=center;verticalAlign=middle;whiteSpace=wrap;rounded=0;fontSize=18;glass=0;connectable=0;rotation=0;" parent="ypKwjD0F9mnU9vVVUhoT-24" vertex="1">
          <mxGeometry x="51.35" y="40" width="59.0625" height="28" as="geometry" />
        </mxCell>
        <mxCell id="ypKwjD0F9mnU9vVVUhoT-25" style="edgeStyle=orthogonalEdgeStyle;rounded=0;orthogonalLoop=1;jettySize=auto;html=1;exitX=1;exitY=0.5;exitDx=0;exitDy=0;entryX=0.5;entryY=0;entryDx=0;entryDy=0;strokeWidth=3;fillColor=#0050ef;strokeColor=#001DBC;" parent="1" source="OJpxC2O1msqaGfNZDnol-16" target="AQ1_ctODMUg5cEXQnaUs-96" edge="1">
          <mxGeometry relative="1" as="geometry">
            <Array as="points">
              <mxPoint x="2330" y="-2840" />
              <mxPoint x="2330" y="-2000" />
              <mxPoint x="2510" y="-2000" />
            </Array>
          </mxGeometry>
        </mxCell>
        <mxCell id="ypKwjD0F9mnU9vVVUhoT-26" style="edgeStyle=orthogonalEdgeStyle;rounded=0;orthogonalLoop=1;jettySize=auto;html=1;exitX=1;exitY=0.5;exitDx=0;exitDy=0;entryX=0;entryY=0.5;entryDx=0;entryDy=0;strokeWidth=3;fillColor=#0050ef;strokeColor=#001DBC;" parent="1" source="OJpxC2O1msqaGfNZDnol-17" target="ypKwjD0F9mnU9vVVUhoT-5" edge="1">
          <mxGeometry relative="1" as="geometry" />
        </mxCell>
        <mxCell id="ypKwjD0F9mnU9vVVUhoT-27" style="edgeStyle=orthogonalEdgeStyle;rounded=0;orthogonalLoop=1;jettySize=auto;html=1;exitX=1;exitY=0.5;exitDx=0;exitDy=0;entryX=0;entryY=0.5;entryDx=0;entryDy=0;strokeWidth=3;fillColor=#0050ef;strokeColor=#001DBC;" parent="1" source="OJpxC2O1msqaGfNZDnol-18" target="ypKwjD0F9mnU9vVVUhoT-9" edge="1">
          <mxGeometry relative="1" as="geometry">
            <Array as="points">
              <mxPoint x="2440" y="-2920" />
              <mxPoint x="2440" y="-2280" />
              <mxPoint x="2390" y="-2280" />
            </Array>
          </mxGeometry>
        </mxCell>
        <mxCell id="ypKwjD0F9mnU9vVVUhoT-28" style="edgeStyle=orthogonalEdgeStyle;rounded=0;orthogonalLoop=1;jettySize=auto;html=1;exitX=1;exitY=0.5;exitDx=0;exitDy=0;entryX=0.5;entryY=0.13;entryDx=0;entryDy=0;entryPerimeter=0;strokeWidth=3;fillColor=#0050ef;strokeColor=#001DBC;" parent="1" source="OJpxC2O1msqaGfNZDnol-11" target="AQ1_ctODMUg5cEXQnaUs-15" edge="1">
          <mxGeometry relative="1" as="geometry">
            <mxPoint x="2550" y="-2580" as="targetPoint" />
          </mxGeometry>
        </mxCell>
        <mxCell id="ypKwjD0F9mnU9vVVUhoT-30" style="edgeStyle=orthogonalEdgeStyle;rounded=0;orthogonalLoop=1;jettySize=auto;html=1;exitX=1;exitY=0.5;exitDx=0;exitDy=0;entryX=0;entryY=0.5;entryDx=0;entryDy=0;strokeWidth=3;fillColor=#0050ef;strokeColor=#001DBC;" parent="1" source="OJpxC2O1msqaGfNZDnol-13" target="OJpxC2O1msqaGfNZDnol-41" edge="1">
          <mxGeometry relative="1" as="geometry" />
        </mxCell>
        <mxCell id="ypKwjD0F9mnU9vVVUhoT-31" style="edgeStyle=orthogonalEdgeStyle;rounded=0;orthogonalLoop=1;jettySize=auto;html=1;exitX=1;exitY=0.5;exitDx=0;exitDy=0;entryX=0;entryY=0.5;entryDx=0;entryDy=0;strokeWidth=3;fillColor=#0050ef;strokeColor=#001DBC;" parent="1" source="OJpxC2O1msqaGfNZDnol-20" target="OJpxC2O1msqaGfNZDnol-38" edge="1">
          <mxGeometry relative="1" as="geometry" />
        </mxCell>
        <mxCell id="ypKwjD0F9mnU9vVVUhoT-32" style="edgeStyle=orthogonalEdgeStyle;rounded=0;orthogonalLoop=1;jettySize=auto;html=1;exitX=1;exitY=0.5;exitDx=0;exitDy=0;entryX=0;entryY=0.5;entryDx=0;entryDy=0;strokeWidth=3;fillColor=#0050ef;strokeColor=#001DBC;" parent="1" source="OJpxC2O1msqaGfNZDnol-12" target="OJpxC2O1msqaGfNZDnol-40" edge="1">
          <mxGeometry relative="1" as="geometry" />
        </mxCell>
        <mxCell id="ypKwjD0F9mnU9vVVUhoT-33" style="edgeStyle=orthogonalEdgeStyle;rounded=0;orthogonalLoop=1;jettySize=auto;html=1;exitDx=0;exitDy=0;entryX=0;entryY=0.5;entryDx=0;entryDy=0;strokeWidth=3;fillColor=#0050ef;strokeColor=#001DBC;" parent="1" source="hj1TQCpyKpw-rvz4jUIR-32" target="OJpxC2O1msqaGfNZDnol-39" edge="1">
          <mxGeometry relative="1" as="geometry" />
        </mxCell>
        <mxCell id="ypKwjD0F9mnU9vVVUhoT-34" style="edgeStyle=orthogonalEdgeStyle;rounded=0;orthogonalLoop=1;jettySize=auto;html=1;exitDx=0;exitDy=0;entryX=0;entryY=0.5;entryDx=0;entryDy=0;fillColor=#008a00;strokeColor=#005700;strokeWidth=3;" parent="1" source="bYtuZZROuVN-XpoLcYeS-37" target="OJpxC2O1msqaGfNZDnol-31" edge="1">
          <mxGeometry relative="1" as="geometry" />
        </mxCell>
        <mxCell id="ypKwjD0F9mnU9vVVUhoT-35" style="edgeStyle=orthogonalEdgeStyle;rounded=0;orthogonalLoop=1;jettySize=auto;html=1;exitDx=0;exitDy=0;entryX=0;entryY=0.5;entryDx=0;entryDy=0;fillColor=#008a00;strokeColor=#005700;strokeWidth=3;" parent="1" source="hj1TQCpyKpw-rvz4jUIR-36" target="OJpxC2O1msqaGfNZDnol-30" edge="1">
          <mxGeometry relative="1" as="geometry" />
        </mxCell>
        <mxCell id="ypKwjD0F9mnU9vVVUhoT-36" value="" style="group;fillColor=#d0cee2;strokeColor=#56517e;" parent="1" vertex="1" connectable="0">
          <mxGeometry x="2390" y="-1960" width="240" height="160" as="geometry" />
        </mxCell>
        <mxCell id="AQ1_ctODMUg5cEXQnaUs-96" value="&lt;font style=&quot;font-size: 24px;&quot;&gt;&lt;span style=&quot;&quot;&gt;BRANCH&lt;/span&gt;&lt;br style=&quot;&quot;&gt;&lt;span style=&quot;&quot;&gt;CTRL UNIT&lt;/span&gt;&lt;/font&gt;" style="rounded=0;whiteSpace=wrap;html=1;fontFamily=Roboto;fontSize=18;fontColor=default;fillColor=none;gradientColor=none;fontSource=https%3A%2F%2Ffonts.googleapis.com%2Fcss%3Ffamily%3DRoboto;fontStyle=1;container=0;" parent="ypKwjD0F9mnU9vVVUhoT-36" vertex="1">
          <mxGeometry width="239.30050621260926" height="160" as="geometry" />
        </mxCell>
        <mxCell id="AQ1_ctODMUg5cEXQnaUs-97" value="DATA1" style="text;html=1;strokeColor=none;fillColor=none;align=center;verticalAlign=middle;whiteSpace=wrap;rounded=0;fontSize=18;fontFamily=Helvetica;fontColor=default;container=0;" parent="ypKwjD0F9mnU9vVVUhoT-36" vertex="1">
          <mxGeometry y="16.8599999999999" width="60" height="45.71" as="geometry" />
        </mxCell>
        <mxCell id="AQ1_ctODMUg5cEXQnaUs-98" value="OUT" style="text;html=1;strokeColor=none;fillColor=none;align=center;verticalAlign=middle;whiteSpace=wrap;rounded=0;fontSize=18;fontFamily=Helvetica;fontColor=default;container=0;" parent="ypKwjD0F9mnU9vVVUhoT-36" vertex="1">
          <mxGeometry x="196.96893994178845" y="57.14742857142846" width="43.03106005821147" height="45.71428571428571" as="geometry" />
        </mxCell>
        <mxCell id="AQ1_ctODMUg5cEXQnaUs-99" value="SELECT" style="text;html=1;strokeColor=none;fillColor=none;align=center;verticalAlign=middle;whiteSpace=wrap;rounded=0;fontSize=18;fontFamily=Helvetica;fontColor=default;container=0;" parent="ypKwjD0F9mnU9vVVUhoT-36" vertex="1">
          <mxGeometry x="80" width="80" height="35.71" as="geometry" />
        </mxCell>
        <mxCell id="AQ1_ctODMUg5cEXQnaUs-102" value="DATA2" style="text;html=1;strokeColor=none;fillColor=none;align=center;verticalAlign=middle;whiteSpace=wrap;rounded=0;fontSize=18;fontFamily=Helvetica;fontColor=default;container=0;" parent="ypKwjD0F9mnU9vVVUhoT-36" vertex="1">
          <mxGeometry y="97.1400000000001" width="60" height="45.71" as="geometry" />
        </mxCell>
        <mxCell id="ypKwjD0F9mnU9vVVUhoT-37" value="ID_INSTRUCTION [19:15]" style="text;html=1;strokeColor=none;fillColor=none;align=center;verticalAlign=middle;whiteSpace=wrap;rounded=0;fontFamily=Roboto;fontSource=https%3A%2F%2Ffonts.googleapis.com%2Fcss%3Ffamily%3DRoboto;" parent="1" vertex="1">
          <mxGeometry x="1730" y="-1660" width="140" height="20" as="geometry" />
        </mxCell>
        <mxCell id="ypKwjD0F9mnU9vVVUhoT-38" value="ID_INSTRUCTION [24:20]" style="text;html=1;strokeColor=none;fillColor=none;align=center;verticalAlign=middle;whiteSpace=wrap;rounded=0;fontFamily=Roboto;fontSource=https%3A%2F%2Ffonts.googleapis.com%2Fcss%3Ffamily%3DRoboto;" parent="1" vertex="1">
          <mxGeometry x="1730" y="-1580" width="140" height="20" as="geometry" />
        </mxCell>
        <mxCell id="ypKwjD0F9mnU9vVVUhoT-39" value="ID_INSTRUCTION [11:7]" style="text;html=1;strokeColor=none;fillColor=none;align=center;verticalAlign=middle;whiteSpace=wrap;rounded=0;fontFamily=Roboto;fontSource=https%3A%2F%2Ffonts.googleapis.com%2Fcss%3Ffamily%3DRoboto;" parent="1" vertex="1">
          <mxGeometry x="1730" y="-1500" width="140" height="20" as="geometry" />
        </mxCell>
        <mxCell id="ypKwjD0F9mnU9vVVUhoT-44" value="" style="edgeStyle=orthogonalEdgeStyle;rounded=0;orthogonalLoop=1;jettySize=auto;html=1;entryX=0;entryY=0.5;entryDx=0;entryDy=0;fillColor=#e51400;strokeColor=#B20000;strokeWidth=3;" parent="1" source="bYtuZZROuVN-XpoLcYeS-121" target="OJpxC2O1msqaGfNZDnol-29" edge="1">
          <mxGeometry relative="1" as="geometry">
            <mxPoint x="2080" y="-2039.9906542056074" as="targetPoint" />
            <mxPoint x="2390" y="-2050" as="sourcePoint" />
          </mxGeometry>
        </mxCell>
        <mxCell id="ypKwjD0F9mnU9vVVUhoT-46" value="" style="edgeStyle=orthogonalEdgeStyle;rounded=0;orthogonalLoop=1;jettySize=auto;html=1;exitX=1;exitY=0.5;exitDx=0;exitDy=0;entryDx=0;entryDy=0;endArrow=none;endFill=0;" parent="1" source="OJpxC2O1msqaGfNZDnol-7" target="ypKwjD0F9mnU9vVVUhoT-45" edge="1">
          <mxGeometry relative="1" as="geometry">
            <mxPoint x="1960" y="-2480" as="sourcePoint" />
            <mxPoint x="2360" y="-2406" as="targetPoint" />
            <Array as="points">
              <mxPoint x="2040" y="-2480" />
            </Array>
          </mxGeometry>
        </mxCell>
        <mxCell id="ypKwjD0F9mnU9vVVUhoT-48" value="" style="edgeStyle=orthogonalEdgeStyle;rounded=0;orthogonalLoop=1;jettySize=auto;html=1;entryX=0;entryY=0.5;entryDx=0;entryDy=0;fillColor=#008a00;strokeColor=#005700;strokeWidth=3;" parent="1" source="ypKwjD0F9mnU9vVVUhoT-45" target="OJpxC2O1msqaGfNZDnol-8" edge="1">
          <mxGeometry relative="1" as="geometry">
            <mxPoint x="2100" y="-2480" as="targetPoint" />
          </mxGeometry>
        </mxCell>
        <mxCell id="ypKwjD0F9mnU9vVVUhoT-45" value="" style="shape=waypoint;sketch=0;fillStyle=solid;size=6;pointerEvents=1;points=[];fillColor=none;resizable=0;rotatable=0;perimeter=centerPerimeter;snapToPoint=1;" parent="1" vertex="1">
          <mxGeometry x="2030" y="-2490" width="20" height="20" as="geometry" />
        </mxCell>
        <mxCell id="ypKwjD0F9mnU9vVVUhoT-49" style="edgeStyle=orthogonalEdgeStyle;rounded=0;orthogonalLoop=1;jettySize=auto;html=1;exitDx=0;exitDy=0;entryX=0;entryY=0.5;entryDx=0;entryDy=0;strokeWidth=3;fillColor=#0050ef;strokeColor=#001DBC;" parent="1" source="ypKwjD0F9mnU9vVVUhoT-83" target="OJpxC2O1msqaGfNZDnol-36" edge="1">
          <mxGeometry relative="1" as="geometry" />
        </mxCell>
        <mxCell id="ypKwjD0F9mnU9vVVUhoT-50" style="edgeStyle=orthogonalEdgeStyle;rounded=0;orthogonalLoop=1;jettySize=auto;html=1;exitDx=0;exitDy=0;entryX=0;entryY=0.5;entryDx=0;entryDy=0;fillColor=#0050ef;strokeColor=#001DBC;strokeWidth=3;" parent="1" source="bYtuZZROuVN-XpoLcYeS-45" target="OJpxC2O1msqaGfNZDnol-37" edge="1">
          <mxGeometry relative="1" as="geometry" />
        </mxCell>
        <mxCell id="ypKwjD0F9mnU9vVVUhoT-51" style="edgeStyle=orthogonalEdgeStyle;rounded=0;orthogonalLoop=1;jettySize=auto;html=1;exitX=1;exitY=0.5;exitDx=0;exitDy=0;entryX=0;entryY=0.5;entryDx=0;entryDy=0;fillColor=#0050ef;strokeColor=#001DBC;strokeWidth=3;" parent="1" source="OJpxC2O1msqaGfNZDnol-38" target="OJpxC2O1msqaGfNZDnol-35" edge="1">
          <mxGeometry relative="1" as="geometry" />
        </mxCell>
        <mxCell id="ypKwjD0F9mnU9vVVUhoT-53" style="edgeStyle=orthogonalEdgeStyle;rounded=0;orthogonalLoop=1;jettySize=auto;html=1;exitDx=0;exitDy=0;entryX=0;entryY=0.5;entryDx=0;entryDy=0;fillColor=#008a00;strokeColor=#005700;strokeWidth=3;" parent="1" source="bYtuZZROuVN-XpoLcYeS-41" target="OJpxC2O1msqaGfNZDnol-34" edge="1">
          <mxGeometry relative="1" as="geometry" />
        </mxCell>
        <mxCell id="ypKwjD0F9mnU9vVVUhoT-55" style="edgeStyle=orthogonalEdgeStyle;rounded=0;orthogonalLoop=1;jettySize=auto;html=1;exitDx=0;exitDy=0;entryX=0;entryY=0.5;entryDx=0;entryDy=0;fillColor=#e51400;strokeColor=#B20000;strokeWidth=3;" parent="1" source="ypKwjD0F9mnU9vVVUhoT-92" target="OJpxC2O1msqaGfNZDnol-32" edge="1">
          <mxGeometry relative="1" as="geometry">
            <Array as="points">
              <mxPoint x="2840" y="-2360" />
              <mxPoint x="3480" y="-2360" />
              <mxPoint x="3480" y="-2280" />
            </Array>
          </mxGeometry>
        </mxCell>
        <mxCell id="ypKwjD0F9mnU9vVVUhoT-56" value="" style="endArrow=classic;html=1;rounded=0;exitX=1;exitY=0.5;exitDx=0;exitDy=0;exitPerimeter=0;entryX=0;entryY=0.5;entryDx=0;entryDy=0;fillColor=#008a00;strokeColor=#005700;strokeWidth=3;" parent="1" source="AQ1_ctODMUg5cEXQnaUs-124" target="OJpxC2O1msqaGfNZDnol-9" edge="1">
          <mxGeometry width="50" height="50" relative="1" as="geometry">
            <mxPoint x="3050" y="-2480" as="sourcePoint" />
            <mxPoint x="3390" y="-2490" as="targetPoint" />
          </mxGeometry>
        </mxCell>
        <mxCell id="ypKwjD0F9mnU9vVVUhoT-57" style="edgeStyle=orthogonalEdgeStyle;rounded=0;orthogonalLoop=1;jettySize=auto;html=1;exitX=1;exitY=0.5;exitDx=0;exitDy=0;entryX=0;entryY=0.8;entryDx=0;entryDy=0;entryPerimeter=0;fillColor=#008a00;strokeColor=#005700;strokeWidth=3;" parent="1" source="OJpxC2O1msqaGfNZDnol-8" target="AQ1_ctODMUg5cEXQnaUs-124" edge="1">
          <mxGeometry relative="1" as="geometry">
            <Array as="points">
              <mxPoint x="3040" y="-2480" />
              <mxPoint x="3040" y="-2444" />
            </Array>
          </mxGeometry>
        </mxCell>
        <mxCell id="ypKwjD0F9mnU9vVVUhoT-58" value="EX_PC [31:0]" style="text;html=1;strokeColor=none;fillColor=none;align=center;verticalAlign=middle;whiteSpace=wrap;rounded=0;fontFamily=Roboto;fontSource=https%3A%2F%2Ffonts.googleapis.com%2Fcss%3Ffamily%3DRoboto;" parent="1" vertex="1">
          <mxGeometry x="1960" y="-2500" width="80" height="20" as="geometry" />
        </mxCell>
        <mxCell id="ypKwjD0F9mnU9vVVUhoT-59" value="EX_PC [31:0]" style="text;html=1;strokeColor=none;fillColor=none;align=center;verticalAlign=middle;whiteSpace=wrap;rounded=0;fontFamily=Roboto;fontSource=https%3A%2F%2Ffonts.googleapis.com%2Fcss%3Ffamily%3DRoboto;" parent="1" vertex="1">
          <mxGeometry x="2630" y="-2500" width="80" height="20" as="geometry" />
        </mxCell>
        <mxCell id="ypKwjD0F9mnU9vVVUhoT-60" value="EX_REG_DATA1 &lt;br&gt;[31:0]" style="text;html=1;strokeColor=none;fillColor=none;align=center;verticalAlign=middle;whiteSpace=wrap;rounded=0;fontFamily=Roboto;fontSource=https%3A%2F%2Ffonts.googleapis.com%2Fcss%3Ffamily%3DRoboto;" parent="1" vertex="1">
          <mxGeometry x="1965" y="-2274" width="80" height="20" as="geometry" />
        </mxCell>
        <mxCell id="ypKwjD0F9mnU9vVVUhoT-61" value="EX_REG_DATA2&lt;br&gt;[31:0]" style="text;html=1;strokeColor=none;fillColor=none;align=center;verticalAlign=middle;whiteSpace=wrap;rounded=0;fontFamily=Roboto;fontSource=https%3A%2F%2Ffonts.googleapis.com%2Fcss%3Ffamily%3DRoboto;" parent="1" vertex="1">
          <mxGeometry x="1964" y="-2031" width="80" height="20" as="geometry" />
        </mxCell>
        <mxCell id="ypKwjD0F9mnU9vVVUhoT-62" value="EX_IMMEDIATE &lt;br&gt;[31:0]" style="text;html=1;strokeColor=none;fillColor=none;align=center;verticalAlign=middle;whiteSpace=wrap;rounded=0;fontFamily=Roboto;fontSource=https%3A%2F%2Ffonts.googleapis.com%2Fcss%3Ffamily%3DRoboto;" parent="1" vertex="1">
          <mxGeometry x="1964" y="-1830" width="90" height="20" as="geometry" />
        </mxCell>
        <mxCell id="ypKwjD0F9mnU9vVVUhoT-63" value="EX_ALU_OUT [31:0]" style="text;html=1;strokeColor=none;fillColor=none;align=center;verticalAlign=middle;whiteSpace=wrap;rounded=0;fontFamily=Roboto;fontSource=https%3A%2F%2Ffonts.googleapis.com%2Fcss%3Ffamily%3DRoboto;" parent="1" vertex="1">
          <mxGeometry x="2640" y="-2309.99" width="80" height="20" as="geometry" />
        </mxCell>
        <mxCell id="ypKwjD0F9mnU9vVVUhoT-64" style="edgeStyle=orthogonalEdgeStyle;rounded=0;orthogonalLoop=1;jettySize=auto;html=1;exitDx=0;exitDy=0;entryX=1;entryY=0.5;entryDx=0;entryDy=0;fillColor=#0050ef;strokeColor=#001DBC;strokeWidth=3;" parent="1" source="hj1TQCpyKpw-rvz4jUIR-68" target="OJpxC2O1msqaGfNZDnol-48" edge="1">
          <mxGeometry relative="1" as="geometry">
            <mxPoint x="110" y="-2110" as="targetPoint" />
            <Array as="points">
              <mxPoint x="97" y="-1260" />
            </Array>
          </mxGeometry>
        </mxCell>
        <mxCell id="ypKwjD0F9mnU9vVVUhoT-66" value="" style="edgeStyle=orthogonalEdgeStyle;rounded=0;orthogonalLoop=1;jettySize=auto;html=1;entryDx=0;entryDy=0;endArrow=none;endFill=0;fillColor=#e51400;strokeColor=#B20000;strokeWidth=3;" parent="1" source="AQ1_ctODMUg5cEXQnaUs-15" target="ypKwjD0F9mnU9vVVUhoT-65" edge="1">
          <mxGeometry relative="1" as="geometry">
            <mxPoint x="2640" y="-2280" as="sourcePoint" />
            <mxPoint x="2720" y="-2280" as="targetPoint" />
            <Array as="points">
              <mxPoint x="2660" y="-2280" />
              <mxPoint x="2660" y="-2280" />
            </Array>
          </mxGeometry>
        </mxCell>
        <mxCell id="ypKwjD0F9mnU9vVVUhoT-68" value="" style="edgeStyle=orthogonalEdgeStyle;rounded=0;orthogonalLoop=1;jettySize=auto;html=1;entryX=0.75;entryY=1;entryDx=0;entryDy=0;fillColor=#e51400;strokeColor=#B20000;strokeWidth=3;" parent="1" source="ypKwjD0F9mnU9vVVUhoT-65" target="OJpxC2O1msqaGfNZDnol-48" edge="1">
          <mxGeometry relative="1" as="geometry">
            <mxPoint x="220" y="-1850" as="targetPoint" />
            <Array as="points">
              <mxPoint x="2680" y="-1280" />
              <mxPoint x="47" y="-1280" />
              <mxPoint x="47" y="-2210" />
            </Array>
          </mxGeometry>
        </mxCell>
        <mxCell id="ypKwjD0F9mnU9vVVUhoT-65" value="" style="shape=waypoint;sketch=0;fillStyle=solid;size=6;pointerEvents=1;points=[];fillColor=none;resizable=0;rotatable=0;perimeter=centerPerimeter;snapToPoint=1;" parent="1" vertex="1">
          <mxGeometry x="2670" y="-2289.99" width="20" height="20" as="geometry" />
        </mxCell>
        <mxCell id="ypKwjD0F9mnU9vVVUhoT-69" value="EX_BRANCH_SELECT" style="text;html=1;strokeColor=none;fillColor=none;align=center;verticalAlign=middle;whiteSpace=wrap;rounded=0;fontFamily=Roboto;fontSource=https%3A%2F%2Ffonts.googleapis.com%2Fcss%3Ffamily%3DRoboto;rotation=90;" parent="1" vertex="1">
          <mxGeometry x="2591" y="-1827" width="116" height="20" as="geometry" />
        </mxCell>
        <mxCell id="ypKwjD0F9mnU9vVVUhoT-71" value="" style="group" parent="1" vertex="1" connectable="0">
          <mxGeometry x="425" y="-2320" width="200" height="120" as="geometry" />
        </mxCell>
        <mxCell id="AQ1_ctODMUg5cEXQnaUs-105" value="&lt;div style=&quot;font-size: 24px;&quot;&gt;&lt;font style=&quot;font-size: 24px;&quot; data-font-src=&quot;https://fonts.googleapis.com/css?family=Roboto&quot;&gt;&lt;b style=&quot;font-size: 24px;&quot;&gt;INSTR MEM&lt;/b&gt;&lt;/font&gt;&lt;/div&gt;&lt;div style=&quot;font-size: 24px;&quot;&gt;&lt;font style=&quot;font-size: 24px;&quot; data-font-src=&quot;https://fonts.googleapis.com/css?family=Roboto&quot;&gt;&lt;b style=&quot;font-size: 24px;&quot;&gt;&lt;br style=&quot;font-size: 24px;&quot;&gt;&lt;/b&gt;&lt;/font&gt;&lt;/div&gt;&lt;div style=&quot;font-size: 24px;&quot;&gt;&lt;br style=&quot;font-size: 24px;&quot;&gt;&lt;/div&gt;" style="verticalAlign=middle;align=center;vsdxID=7;shape=stencil(nZBRDoQgDERP03+WHsHFe5iISyOCQdT19kIaIxq//Jtp3zTpAFaTaUYNUkwx+F6v1EYD+AUpyRkdKCYFqACrzgf9C352LfuxyWRWg1/yhT/nRE5IsZWuZtCSK8CPeI0e/hF+jV7AJM4PO7KWCyr390bSiNtEtQM=);spacingTop=-3;spacingBottom=-3;spacingLeft=-3;spacingRight=-3;points=[];labelBackgroundColor=none;rounded=0;html=1;whiteSpace=wrap;container=0;fontSize=24;fillColor=#CCCCCC;fontFamily=Roboto;fontSource=https%3A%2F%2Ffonts.googleapis.com%2Fcss%3Ffamily%3DRoboto;" parent="ypKwjD0F9mnU9vVVUhoT-71" vertex="1">
          <mxGeometry width="200" height="120" as="geometry" />
        </mxCell>
        <mxCell id="AQ1_ctODMUg5cEXQnaUs-106" value="&lt;div style=&quot;font-size: 18px;&quot;&gt;&lt;span style=&quot;font-size: 18px;&quot;&gt;ADDR&lt;/span&gt;&lt;/div&gt;" style="verticalAlign=middle;align=center;vsdxID=118;fillColor=none;shape=stencil(nZBRDoQgDERP03+WHsHFe5iISyOCQdT19kIaIxq//Jtp3zTpAFaTaUYNUkwx+F6v1EYD+AUpyRkdKCYFqACrzgf9C352LfuxyWRWg1/yhT/nRE5IsZWuZtCSK8CPeI0e/hF+jV7AJM4PO7KWCyr390bSiNtEtQM=);strokeColor=none;spacingTop=-3;spacingBottom=-3;spacingLeft=-3;spacingRight=-3;points=[];labelBackgroundColor=none;rounded=0;html=1;whiteSpace=wrap;container=0;strokeWidth=1;fontSize=18;fontFamily=Roboto;fontSource=https%3A%2F%2Ffonts.googleapis.com%2Fcss%3Ffamily%3DRoboto;" parent="ypKwjD0F9mnU9vVVUhoT-71" vertex="1">
          <mxGeometry y="65" width="60" height="30" as="geometry" />
        </mxCell>
        <mxCell id="AQ1_ctODMUg5cEXQnaUs-107" value="&lt;div style=&quot;font-size: 18px;&quot;&gt;&lt;span style=&quot;font-size: 18px;&quot;&gt;INSTR&lt;/span&gt;&lt;/div&gt;" style="verticalAlign=middle;align=center;vsdxID=118;fillColor=none;shape=stencil(nZBRDoQgDERP03+WHsHFe5iISyOCQdT19kIaIxq//Jtp3zTpAFaTaUYNUkwx+F6v1EYD+AUpyRkdKCYFqACrzgf9C352LfuxyWRWg1/yhT/nRE5IsZWuZtCSK8CPeI0e/hF+jV7AJM4PO7KWCyr390bSiNtEtQM=);strokeColor=none;spacingTop=-3;spacingBottom=-3;spacingLeft=-3;spacingRight=-3;points=[];labelBackgroundColor=none;rounded=0;html=1;whiteSpace=wrap;container=0;strokeWidth=1;fontSize=18;fontFamily=Roboto;fontSource=https%3A%2F%2Ffonts.googleapis.com%2Fcss%3Ffamily%3DRoboto;" parent="ypKwjD0F9mnU9vVVUhoT-71" vertex="1">
          <mxGeometry x="140" y="65" width="60" height="30" as="geometry" />
        </mxCell>
        <mxCell id="ypKwjD0F9mnU9vVVUhoT-82" style="edgeStyle=orthogonalEdgeStyle;rounded=0;orthogonalLoop=1;jettySize=auto;html=1;exitDx=0;exitDy=0;strokeWidth=3;fillColor=#0050ef;strokeColor=#001DBC;" parent="1" source="bYtuZZROuVN-XpoLcYeS-143" target="ypKwjD0F9mnU9vVVUhoT-78" edge="1">
          <mxGeometry relative="1" as="geometry">
            <mxPoint x="3140" y="-2316.800048828125" as="targetPoint" />
          </mxGeometry>
        </mxCell>
        <mxCell id="ypKwjD0F9mnU9vVVUhoT-84" value="" style="edgeStyle=orthogonalEdgeStyle;rounded=0;orthogonalLoop=1;jettySize=auto;html=1;exitX=1;exitY=0.5;exitDx=0;exitDy=0;entryDx=0;entryDy=0;endArrow=none;endFill=0;strokeWidth=3;fillColor=#0050ef;strokeColor=#001DBC;" parent="1" source="OJpxC2O1msqaGfNZDnol-39" target="ypKwjD0F9mnU9vVVUhoT-83" edge="1">
          <mxGeometry relative="1" as="geometry">
            <mxPoint x="2800" y="-3400" as="sourcePoint" />
            <mxPoint x="3550" y="-3400" as="targetPoint" />
          </mxGeometry>
        </mxCell>
        <mxCell id="ypKwjD0F9mnU9vVVUhoT-86" value="" style="edgeStyle=orthogonalEdgeStyle;rounded=0;orthogonalLoop=1;jettySize=auto;html=1;fillColor=#0050ef;strokeColor=#001DBC;strokeWidth=3;" parent="1" source="ypKwjD0F9mnU9vVVUhoT-83" target="ypKwjD0F9mnU9vVVUhoT-79" edge="1">
          <mxGeometry relative="1" as="geometry">
            <mxPoint x="3270" y="-2300" as="targetPoint" />
          </mxGeometry>
        </mxCell>
        <mxCell id="ypKwjD0F9mnU9vVVUhoT-83" value="" style="shape=waypoint;sketch=0;fillStyle=solid;size=6;pointerEvents=1;points=[];fillColor=none;resizable=0;rotatable=0;perimeter=centerPerimeter;snapToPoint=1;" parent="1" vertex="1">
          <mxGeometry x="3321" y="-3410" width="20" height="20" as="geometry" />
        </mxCell>
        <mxCell id="ypKwjD0F9mnU9vVVUhoT-87" style="edgeStyle=orthogonalEdgeStyle;rounded=0;orthogonalLoop=1;jettySize=auto;html=1;exitX=1;exitY=0.5;exitDx=0;exitDy=0;entryX=0.25;entryY=1;entryDx=0;entryDy=0;fillColor=#e51400;strokeColor=#B20000;strokeWidth=3;" parent="1" source="OJpxC2O1msqaGfNZDnol-29" target="bYtuZZROuVN-XpoLcYeS-112" edge="1">
          <mxGeometry relative="1" as="geometry">
            <mxPoint x="2890" y="-2000" as="targetPoint" />
            <Array as="points">
              <mxPoint x="2880" y="-2040" />
              <mxPoint x="2880" y="-2070" />
            </Array>
          </mxGeometry>
        </mxCell>
        <mxCell id="ypKwjD0F9mnU9vVVUhoT-89" value="" style="edgeStyle=orthogonalEdgeStyle;rounded=0;orthogonalLoop=1;jettySize=auto;html=1;entryX=0;entryY=0.5;entryDx=0;entryDy=0;fillColor=#e51400;strokeColor=#B20000;strokeWidth=3;" parent="1" source="ypKwjD0F9mnU9vVVUhoT-75" target="OJpxC2O1msqaGfNZDnol-33" edge="1">
          <mxGeometry relative="1" as="geometry">
            <mxPoint x="3455.67" y="-2040" as="targetPoint" />
          </mxGeometry>
        </mxCell>
        <mxCell id="ypKwjD0F9mnU9vVVUhoT-91" value="" style="group" parent="1" vertex="1" connectable="0">
          <mxGeometry x="3120" y="-2280" width="280.6700000000001" height="280" as="geometry" />
        </mxCell>
        <mxCell id="ypKwjD0F9mnU9vVVUhoT-73" value="&lt;div style=&quot;font-size: 24px;&quot;&gt;&lt;font style=&quot;font-size: 24px;&quot; data-font-src=&quot;https://fonts.googleapis.com/css?family=Roboto&quot;&gt;&lt;b style=&quot;font-size: 24px;&quot;&gt;DATA MEM&lt;/b&gt;&lt;/font&gt;&lt;/div&gt;" style="verticalAlign=middle;align=center;vsdxID=7;shape=stencil(nZBRDoQgDERP03+WHsHFe5iISyOCQdT19kIaIxq//Jtp3zTpAFaTaUYNUkwx+F6v1EYD+AUpyRkdKCYFqACrzgf9C352LfuxyWRWg1/yhT/nRE5IsZWuZtCSK8CPeI0e/hF+jV7AJM4PO7KWCyr390bSiNtEtQM=);spacingTop=-3;spacingBottom=-3;spacingLeft=-3;spacingRight=-3;points=[];labelBackgroundColor=none;rounded=0;html=1;whiteSpace=wrap;container=0;fontSize=24;fillColor=#CCCCCC;fontFamily=Roboto;fontSource=https%3A%2F%2Ffonts.googleapis.com%2Fcss%3Ffamily%3DRoboto;" parent="ypKwjD0F9mnU9vVVUhoT-91" vertex="1">
          <mxGeometry width="280.67" height="280" as="geometry" />
        </mxCell>
        <mxCell id="ypKwjD0F9mnU9vVVUhoT-74" value="&lt;div style=&quot;font-size: 18px;&quot;&gt;&lt;span style=&quot;font-size: 18px;&quot;&gt;WRITE_DATA&lt;/span&gt;&lt;/div&gt;" style="verticalAlign=middle;align=center;vsdxID=118;fillColor=none;shape=stencil(nZBRDoQgDERP03+WHsHFe5iISyOCQdT19kIaIxq//Jtp3zTpAFaTaUYNUkwx+F6v1EYD+AUpyRkdKCYFqACrzgf9C352LfuxyWRWg1/yhT/nRE5IsZWuZtCSK8CPeI0e/hF+jV7AJM4PO7KWCyr390bSiNtEtQM=);strokeColor=none;spacingTop=-3;spacingBottom=-3;spacingLeft=-3;spacingRight=-3;points=[];labelBackgroundColor=none;rounded=0;html=1;whiteSpace=wrap;container=0;strokeWidth=1;fontSize=18;fontFamily=Roboto;fontSource=https%3A%2F%2Ffonts.googleapis.com%2Fcss%3Ffamily%3DRoboto;" parent="ypKwjD0F9mnU9vVVUhoT-91" vertex="1">
          <mxGeometry y="225" width="120.67" height="30" as="geometry" />
        </mxCell>
        <mxCell id="ypKwjD0F9mnU9vVVUhoT-75" value="&lt;div style=&quot;font-size: 18px;&quot;&gt;READ_DATA&lt;/div&gt;" style="verticalAlign=middle;align=center;vsdxID=118;fillColor=none;shape=stencil(nZBRDoQgDERP03+WHsHFe5iISyOCQdT19kIaIxq//Jtp3zTpAFaTaUYNUkwx+F6v1EYD+AUpyRkdKCYFqACrzgf9C352LfuxyWRWg1/yhT/nRE5IsZWuZtCSK8CPeI0e/hF+jV7AJM4PO7KWCyr390bSiNtEtQM=);strokeColor=none;spacingTop=-3;spacingBottom=-3;spacingLeft=-3;spacingRight=-3;points=[];labelBackgroundColor=none;rounded=0;html=1;whiteSpace=wrap;container=0;strokeWidth=1;fontSize=18;fontFamily=Roboto;fontSource=https%3A%2F%2Ffonts.googleapis.com%2Fcss%3Ffamily%3DRoboto;" parent="ypKwjD0F9mnU9vVVUhoT-91" vertex="1">
          <mxGeometry x="170.67000000000007" y="225" width="110" height="30" as="geometry" />
        </mxCell>
        <mxCell id="ypKwjD0F9mnU9vVVUhoT-78" value="&lt;div style=&quot;font-size: 18px;&quot;&gt;&lt;span style=&quot;font-size: 18px;&quot;&gt;MEM_WRITE&lt;/span&gt;&lt;/div&gt;" style="verticalAlign=middle;align=center;vsdxID=118;fillColor=none;shape=stencil(nZBRDoQgDERP03+WHsHFe5iISyOCQdT19kIaIxq//Jtp3zTpAFaTaUYNUkwx+F6v1EYD+AUpyRkdKCYFqACrzgf9C352LfuxyWRWg1/yhT/nRE5IsZWuZtCSK8CPeI0e/hF+jV7AJM4PO7KWCyr390bSiNtEtQM=);strokeColor=none;spacingTop=-3;spacingBottom=-3;spacingLeft=-3;spacingRight=-3;points=[];labelBackgroundColor=none;rounded=0;html=1;whiteSpace=wrap;container=0;strokeWidth=1;fontSize=18;fontFamily=Roboto;fontSource=https%3A%2F%2Ffonts.googleapis.com%2Fcss%3Ffamily%3DRoboto;" parent="ypKwjD0F9mnU9vVVUhoT-91" vertex="1">
          <mxGeometry x="10" width="120.67" height="30" as="geometry" />
        </mxCell>
        <mxCell id="ypKwjD0F9mnU9vVVUhoT-79" value="&lt;div style=&quot;font-size: 18px;&quot;&gt;&lt;span style=&quot;font-size: 18px;&quot;&gt;MEM_READ&lt;/span&gt;&lt;/div&gt;" style="verticalAlign=middle;align=center;vsdxID=118;fillColor=none;shape=stencil(nZBRDoQgDERP03+WHsHFe5iISyOCQdT19kIaIxq//Jtp3zTpAFaTaUYNUkwx+F6v1EYD+AUpyRkdKCYFqACrzgf9C352LfuxyWRWg1/yhT/nRE5IsZWuZtCSK8CPeI0e/hF+jV7AJM4PO7KWCyr390bSiNtEtQM=);strokeColor=none;spacingTop=-3;spacingBottom=-3;spacingLeft=-3;spacingRight=-3;points=[];labelBackgroundColor=none;rounded=0;html=1;whiteSpace=wrap;container=0;strokeWidth=1;fontSize=18;fontFamily=Roboto;fontSource=https%3A%2F%2Ffonts.googleapis.com%2Fcss%3Ffamily%3DRoboto;" parent="ypKwjD0F9mnU9vVVUhoT-91" vertex="1">
          <mxGeometry x="150.67000000000007" width="120.67" height="30" as="geometry" />
        </mxCell>
        <mxCell id="ypKwjD0F9mnU9vVVUhoT-90" value="&lt;div style=&quot;font-size: 18px;&quot;&gt;&lt;span style=&quot;font-size: 18px;&quot;&gt;ADDRESS&lt;/span&gt;&lt;/div&gt;" style="verticalAlign=middle;align=center;vsdxID=118;fillColor=none;shape=stencil(nZBRDoQgDERP03+WHsHFe5iISyOCQdT19kIaIxq//Jtp3zTpAFaTaUYNUkwx+F6v1EYD+AUpyRkdKCYFqACrzgf9C352LfuxyWRWg1/yhT/nRE5IsZWuZtCSK8CPeI0e/hF+jV7AJM4PO7KWCyr390bSiNtEtQM=);strokeColor=none;spacingTop=-3;spacingBottom=-3;spacingLeft=-3;spacingRight=-3;points=[];labelBackgroundColor=none;rounded=0;html=1;whiteSpace=wrap;container=0;strokeWidth=1;fontSize=18;fontFamily=Roboto;fontSource=https%3A%2F%2Ffonts.googleapis.com%2Fcss%3Ffamily%3DRoboto;" parent="ypKwjD0F9mnU9vVVUhoT-91" vertex="1">
          <mxGeometry y="65" width="90" height="30" as="geometry" />
        </mxCell>
        <mxCell id="ypKwjD0F9mnU9vVVUhoT-93" value="" style="edgeStyle=orthogonalEdgeStyle;rounded=0;orthogonalLoop=1;jettySize=auto;html=1;exitX=1;exitY=0.5;exitDx=0;exitDy=0;entryDx=0;entryDy=0;endArrow=none;endFill=0;fillColor=#e51400;strokeColor=#B20000;strokeWidth=3;" parent="1" source="OJpxC2O1msqaGfNZDnol-28" target="ypKwjD0F9mnU9vVVUhoT-92" edge="1">
          <mxGeometry relative="1" as="geometry">
            <mxPoint x="2800" y="-2280" as="sourcePoint" />
            <mxPoint x="3550" y="-2280" as="targetPoint" />
            <Array as="points">
              <mxPoint x="2820" y="-2280" />
              <mxPoint x="2820" y="-2280" />
            </Array>
          </mxGeometry>
        </mxCell>
        <mxCell id="ypKwjD0F9mnU9vVVUhoT-96" value="" style="edgeStyle=orthogonalEdgeStyle;rounded=0;orthogonalLoop=1;jettySize=auto;html=1;entryX=0;entryY=0.5;entryDx=0;entryDy=0;entryPerimeter=0;fillColor=#e51400;strokeColor=#B20000;strokeWidth=3;" parent="1" source="bYtuZZROuVN-XpoLcYeS-68" target="ypKwjD0F9mnU9vVVUhoT-90" edge="1">
          <mxGeometry relative="1" as="geometry">
            <mxPoint x="3060" y="-2200" as="targetPoint" />
            <Array as="points">
              <mxPoint x="2840" y="-2200" />
            </Array>
          </mxGeometry>
        </mxCell>
        <mxCell id="ypKwjD0F9mnU9vVVUhoT-92" value="" style="shape=waypoint;sketch=0;fillStyle=solid;size=6;pointerEvents=1;points=[];fillColor=none;resizable=0;rotatable=0;perimeter=centerPerimeter;snapToPoint=1;" parent="1" vertex="1">
          <mxGeometry x="2830" y="-2289.99" width="20" height="20" as="geometry" />
        </mxCell>
        <mxCell id="ypKwjD0F9mnU9vVVUhoT-97" value="MEM_PC [31:0]" style="text;html=1;strokeColor=none;fillColor=none;align=center;verticalAlign=middle;whiteSpace=wrap;rounded=0;fontFamily=Roboto;fontSource=https%3A%2F%2Ffonts.googleapis.com%2Fcss%3Ffamily%3DRoboto;" parent="1" vertex="1">
          <mxGeometry x="2800" y="-2500" width="90" height="20" as="geometry" />
        </mxCell>
        <mxCell id="ypKwjD0F9mnU9vVVUhoT-98" value="MEM_PC_PLUS_4 [31:0]" style="text;html=1;strokeColor=none;fillColor=none;align=center;verticalAlign=middle;whiteSpace=wrap;rounded=0;fontFamily=Roboto;fontSource=https%3A%2F%2Ffonts.googleapis.com%2Fcss%3Ffamily%3DRoboto;" parent="1" vertex="1">
          <mxGeometry x="3450" y="-2510" width="90" height="30" as="geometry" />
        </mxCell>
        <mxCell id="ypKwjD0F9mnU9vVVUhoT-106" style="edgeStyle=orthogonalEdgeStyle;rounded=0;orthogonalLoop=1;jettySize=auto;html=1;exitDx=0;exitDy=0;entryX=0;entryY=0.5;entryDx=0;entryDy=0;fillColor=#0050ef;strokeColor=#001DBC;strokeWidth=3;" parent="1" source="bYtuZZROuVN-XpoLcYeS-94" target="AQ1_ctODMUg5cEXQnaUs-33" edge="1">
          <mxGeometry relative="1" as="geometry">
            <Array as="points">
              <mxPoint x="1280" y="-1200" />
              <mxPoint x="1280" y="-2144" />
            </Array>
          </mxGeometry>
        </mxCell>
        <mxCell id="ypKwjD0F9mnU9vVVUhoT-100" value="WB&lt;br&gt;VALUE&lt;br&gt;SELECT" style="shape=trapezoid;perimeter=trapezoidPerimeter;whiteSpace=wrap;html=1;fixedSize=1;rotation=90;size=30;textDirection=ltr;verticalAlign=middle;horizontal=0;fontFamily=Roboto;fontSource=https%3A%2F%2Ffonts.googleapis.com%2Fcss%3Ffamily%3DRoboto;fontStyle=1;fillColor=#b0e3e6;strokeColor=#0e8088;" parent="1" vertex="1">
          <mxGeometry x="3740" y="-2319.99" width="200" height="80" as="geometry" />
        </mxCell>
        <mxCell id="bYtuZZROuVN-XpoLcYeS-10" value="OP1&lt;br&gt;FWD" style="shape=trapezoid;perimeter=trapezoidPerimeter;whiteSpace=wrap;html=1;fixedSize=1;rotation=90;size=30;textDirection=ltr;verticalAlign=middle;horizontal=0;fontFamily=Roboto;fontSource=https%3A%2F%2Ffonts.googleapis.com%2Fcss%3Ffamily%3DRoboto;fontStyle=1;fillColor=#b1ddf0;strokeColor=#10739e;" parent="1" vertex="1">
          <mxGeometry x="2145" y="-2380" width="120" height="60" as="geometry" />
        </mxCell>
        <mxCell id="bYtuZZROuVN-XpoLcYeS-12" value="" style="edgeStyle=orthogonalEdgeStyle;rounded=0;orthogonalLoop=1;jettySize=auto;html=1;entryDx=0;entryDy=0;exitX=0.5;exitY=0;exitDx=0;exitDy=0;endArrow=none;endFill=0;fillColor=#e51400;strokeColor=#B20000;strokeWidth=3;" parent="1" source="bYtuZZROuVN-XpoLcYeS-10" target="ypKwjD0F9mnU9vVVUhoT-13" edge="1">
          <mxGeometry relative="1" as="geometry">
            <mxPoint x="2360" y="-2370" as="targetPoint" />
            <mxPoint x="2235" y="-2350" as="sourcePoint" />
            <Array as="points" />
          </mxGeometry>
        </mxCell>
        <mxCell id="ypKwjD0F9mnU9vVVUhoT-13" value="" style="shape=waypoint;sketch=0;fillStyle=solid;size=6;pointerEvents=1;points=[];fillColor=none;resizable=0;rotatable=0;perimeter=centerPerimeter;snapToPoint=1;" parent="1" vertex="1">
          <mxGeometry x="2280" y="-2360" width="20" height="20" as="geometry" />
        </mxCell>
        <mxCell id="bYtuZZROuVN-XpoLcYeS-15" style="edgeStyle=orthogonalEdgeStyle;rounded=0;orthogonalLoop=1;jettySize=auto;html=1;exitDx=0;exitDy=0;entryX=0.25;entryY=1;entryDx=0;entryDy=0;fillColor=#e51400;strokeColor=#B20000;strokeWidth=3;" parent="1" source="bYtuZZROuVN-XpoLcYeS-114" target="ypKwjD0F9mnU9vVVUhoT-9" edge="1">
          <mxGeometry relative="1" as="geometry">
            <Array as="points">
              <mxPoint x="2320" y="-2170" />
              <mxPoint x="2320" y="-2170" />
            </Array>
          </mxGeometry>
        </mxCell>
        <mxCell id="bYtuZZROuVN-XpoLcYeS-14" value="OP2&lt;br&gt;FWD" style="shape=trapezoid;perimeter=trapezoidPerimeter;whiteSpace=wrap;html=1;fixedSize=1;rotation=90;size=30;textDirection=ltr;verticalAlign=middle;horizontal=0;fontFamily=Roboto;fontSource=https%3A%2F%2Ffonts.googleapis.com%2Fcss%3Ffamily%3DRoboto;fontStyle=1;fillColor=#b1ddf0;strokeColor=#10739e;" parent="1" vertex="1">
          <mxGeometry x="2145" y="-2220" width="120" height="60" as="geometry" />
        </mxCell>
        <mxCell id="bYtuZZROuVN-XpoLcYeS-33" value="" style="group;fillColor=#d0cee2;strokeColor=#56517e;" parent="1" vertex="1" connectable="0">
          <mxGeometry x="2220" y="-1752" width="320" height="160" as="geometry" />
        </mxCell>
        <mxCell id="bYtuZZROuVN-XpoLcYeS-1" value="&lt;br&gt;EX&lt;br style=&quot;font-size: 24px;&quot;&gt;FWD&lt;br style=&quot;font-size: 24px;&quot;&gt;UNIT" style="rounded=0;whiteSpace=wrap;html=1;fontFamily=Roboto;fontSource=https%3A%2F%2Ffonts.googleapis.com%2Fcss%3Ffamily%3DRoboto;fontSize=24;fontStyle=1;fillColor=#d0cee2;strokeColor=#56517e;" parent="bYtuZZROuVN-XpoLcYeS-33" vertex="1">
          <mxGeometry width="320" height="160" as="geometry" />
        </mxCell>
        <mxCell id="bYtuZZROuVN-XpoLcYeS-16" value="OP1_FWD_SEL" style="text;html=1;strokeColor=none;fillColor=none;align=center;verticalAlign=middle;whiteSpace=wrap;rounded=0;fontSize=18;fontFamily=Helvetica;fontColor=default;container=0;" parent="bYtuZZROuVN-XpoLcYeS-33" vertex="1">
          <mxGeometry y="10" width="140" height="30" as="geometry" />
        </mxCell>
        <mxCell id="bYtuZZROuVN-XpoLcYeS-17" value="OP2_FWD_SEL" style="text;html=1;strokeColor=none;fillColor=none;align=center;verticalAlign=middle;whiteSpace=wrap;rounded=0;fontSize=18;fontFamily=Helvetica;fontColor=default;container=0;" parent="bYtuZZROuVN-XpoLcYeS-33" vertex="1">
          <mxGeometry y="40" width="140" height="25.71" as="geometry" />
        </mxCell>
        <mxCell id="bYtuZZROuVN-XpoLcYeS-22" value="ADDR1" style="text;html=1;strokeColor=none;fillColor=none;align=center;verticalAlign=middle;whiteSpace=wrap;rounded=0;fontSize=18;fontFamily=Helvetica;fontColor=default;container=0;" parent="bYtuZZROuVN-XpoLcYeS-33" vertex="1">
          <mxGeometry y="100" width="80" height="25.71" as="geometry" />
        </mxCell>
        <mxCell id="bYtuZZROuVN-XpoLcYeS-23" value="ADDR2" style="text;html=1;strokeColor=none;fillColor=none;align=center;verticalAlign=middle;whiteSpace=wrap;rounded=0;fontSize=18;fontFamily=Helvetica;fontColor=default;container=0;" parent="bYtuZZROuVN-XpoLcYeS-33" vertex="1">
          <mxGeometry y="130" width="80" height="25.71" as="geometry" />
        </mxCell>
        <mxCell id="bYtuZZROuVN-XpoLcYeS-25" value="MEM_ADDR" style="text;html=1;strokeColor=none;fillColor=none;align=center;verticalAlign=middle;whiteSpace=wrap;rounded=0;fontSize=18;fontFamily=Helvetica;fontColor=default;container=0;" parent="bYtuZZROuVN-XpoLcYeS-33" vertex="1">
          <mxGeometry x="200" y="10" width="120" height="30" as="geometry" />
        </mxCell>
        <mxCell id="bYtuZZROuVN-XpoLcYeS-26" value="MEM_W_EN" style="text;html=1;strokeColor=none;fillColor=none;align=center;verticalAlign=middle;whiteSpace=wrap;rounded=0;fontSize=18;fontFamily=Helvetica;fontColor=default;container=0;" parent="bYtuZZROuVN-XpoLcYeS-33" vertex="1">
          <mxGeometry x="200" y="35.710000000000036" width="120" height="30" as="geometry" />
        </mxCell>
        <mxCell id="bYtuZZROuVN-XpoLcYeS-28" value="WB_ADDR" style="text;html=1;strokeColor=none;fillColor=none;align=center;verticalAlign=middle;whiteSpace=wrap;rounded=0;fontSize=18;fontFamily=Helvetica;fontColor=default;container=0;" parent="bYtuZZROuVN-XpoLcYeS-33" vertex="1">
          <mxGeometry x="210" y="96.85" width="110" height="30" as="geometry" />
        </mxCell>
        <mxCell id="bYtuZZROuVN-XpoLcYeS-29" value="WB_W_EN" style="text;html=1;strokeColor=none;fillColor=none;align=center;verticalAlign=middle;whiteSpace=wrap;rounded=0;fontSize=18;fontFamily=Helvetica;fontColor=default;container=0;" parent="bYtuZZROuVN-XpoLcYeS-33" vertex="1">
          <mxGeometry x="210" y="125.71" width="110" height="30" as="geometry" />
        </mxCell>
        <mxCell id="bYtuZZROuVN-XpoLcYeS-34" style="edgeStyle=orthogonalEdgeStyle;rounded=0;orthogonalLoop=1;jettySize=auto;html=1;exitX=0;exitY=0.5;exitDx=0;exitDy=0;entryX=1;entryY=0.5;entryDx=0;entryDy=0;fillColor=#0050ef;strokeColor=#001DBC;strokeWidth=3;" parent="1" source="bYtuZZROuVN-XpoLcYeS-16" target="bYtuZZROuVN-XpoLcYeS-10" edge="1">
          <mxGeometry relative="1" as="geometry">
            <mxPoint x="2170" y="-1880" as="targetPoint" />
            <Array as="points">
              <mxPoint x="2180" y="-1727" />
              <mxPoint x="2180" y="-2020" />
              <mxPoint x="2260" y="-2020" />
              <mxPoint x="2260" y="-2280" />
              <mxPoint x="2205" y="-2280" />
            </Array>
          </mxGeometry>
        </mxCell>
        <mxCell id="bYtuZZROuVN-XpoLcYeS-35" style="edgeStyle=orthogonalEdgeStyle;rounded=0;orthogonalLoop=1;jettySize=auto;html=1;exitX=0;exitY=0.5;exitDx=0;exitDy=0;entryX=1;entryY=0.5;entryDx=0;entryDy=0;fillColor=#0050ef;strokeColor=#001DBC;strokeWidth=3;" parent="1" source="bYtuZZROuVN-XpoLcYeS-17" target="bYtuZZROuVN-XpoLcYeS-14" edge="1">
          <mxGeometry relative="1" as="geometry">
            <Array as="points">
              <mxPoint x="2205" y="-1699" />
            </Array>
          </mxGeometry>
        </mxCell>
        <mxCell id="bYtuZZROuVN-XpoLcYeS-36" style="edgeStyle=orthogonalEdgeStyle;rounded=0;orthogonalLoop=1;jettySize=auto;html=1;exitX=1;exitY=0.5;exitDx=0;exitDy=0;entryX=0;entryY=0.5;entryDx=0;entryDy=0;fillColor=#008a00;strokeColor=#005700;strokeWidth=3;" parent="1" source="OJpxC2O1msqaGfNZDnol-26" target="bYtuZZROuVN-XpoLcYeS-22" edge="1">
          <mxGeometry relative="1" as="geometry" />
        </mxCell>
        <mxCell id="bYtuZZROuVN-XpoLcYeS-38" value="" style="edgeStyle=orthogonalEdgeStyle;rounded=0;orthogonalLoop=1;jettySize=auto;html=1;exitX=1;exitY=0.5;exitDx=0;exitDy=0;entryDx=0;entryDy=0;endArrow=none;endFill=0;fillColor=#008a00;strokeColor=#005700;strokeWidth=3;" parent="1" source="OJpxC2O1msqaGfNZDnol-25" target="bYtuZZROuVN-XpoLcYeS-37" edge="1">
          <mxGeometry relative="1" as="geometry">
            <mxPoint x="1960" y="-1560" as="sourcePoint" />
            <mxPoint x="2720" y="-1560" as="targetPoint" />
          </mxGeometry>
        </mxCell>
        <mxCell id="bYtuZZROuVN-XpoLcYeS-40" value="" style="edgeStyle=orthogonalEdgeStyle;rounded=0;orthogonalLoop=1;jettySize=auto;html=1;entryX=0;entryY=0.5;entryDx=0;entryDy=0;fillColor=#008a00;strokeColor=#005700;strokeWidth=3;" parent="1" source="bYtuZZROuVN-XpoLcYeS-37" target="bYtuZZROuVN-XpoLcYeS-23" edge="1">
          <mxGeometry relative="1" as="geometry">
            <mxPoint x="2160" y="-1660" as="targetPoint" />
            <Array as="points">
              <mxPoint x="2160" y="-1609" />
            </Array>
          </mxGeometry>
        </mxCell>
        <mxCell id="bYtuZZROuVN-XpoLcYeS-37" value="" style="shape=waypoint;sketch=0;fillStyle=solid;size=6;pointerEvents=1;points=[];fillColor=none;resizable=0;rotatable=0;perimeter=centerPerimeter;snapToPoint=1;" parent="1" vertex="1">
          <mxGeometry x="2150" y="-1570" width="20" height="20" as="geometry" />
        </mxCell>
        <mxCell id="bYtuZZROuVN-XpoLcYeS-42" value="" style="edgeStyle=orthogonalEdgeStyle;rounded=0;orthogonalLoop=1;jettySize=auto;html=1;exitX=1;exitY=0.5;exitDx=0;exitDy=0;entryDx=0;entryDy=0;endArrow=none;endFill=0;fillColor=#008a00;strokeColor=#005700;strokeWidth=3;" parent="1" source="OJpxC2O1msqaGfNZDnol-30" target="bYtuZZROuVN-XpoLcYeS-41" edge="1">
          <mxGeometry relative="1" as="geometry">
            <mxPoint x="2800" y="-1480" as="sourcePoint" />
            <mxPoint x="3550" y="-1480" as="targetPoint" />
          </mxGeometry>
        </mxCell>
        <mxCell id="bYtuZZROuVN-XpoLcYeS-44" value="" style="edgeStyle=orthogonalEdgeStyle;rounded=0;orthogonalLoop=1;jettySize=auto;html=1;entryX=1;entryY=0.5;entryDx=0;entryDy=0;fillColor=#008a00;strokeColor=#005700;strokeWidth=3;" parent="1" source="bYtuZZROuVN-XpoLcYeS-41" target="bYtuZZROuVN-XpoLcYeS-25" edge="1">
          <mxGeometry relative="1" as="geometry">
            <mxPoint x="2570" y="-1630" as="targetPoint" />
            <Array as="points">
              <mxPoint x="2880" y="-1380" />
              <mxPoint x="2620" y="-1380" />
              <mxPoint x="2620" y="-1727" />
            </Array>
          </mxGeometry>
        </mxCell>
        <mxCell id="bYtuZZROuVN-XpoLcYeS-41" value="" style="shape=waypoint;sketch=0;fillStyle=solid;size=6;pointerEvents=1;points=[];fillColor=none;resizable=0;rotatable=0;perimeter=centerPerimeter;snapToPoint=1;" parent="1" vertex="1">
          <mxGeometry x="2870" y="-1490" width="20" height="20" as="geometry" />
        </mxCell>
        <mxCell id="bYtuZZROuVN-XpoLcYeS-46" value="" style="edgeStyle=orthogonalEdgeStyle;rounded=0;orthogonalLoop=1;jettySize=auto;html=1;exitX=1;exitY=0.5;exitDx=0;exitDy=0;entryDx=0;entryDy=0;endArrow=none;endFill=0;strokeWidth=3;fillColor=#0050ef;strokeColor=#001DBC;" parent="1" source="OJpxC2O1msqaGfNZDnol-40" target="bYtuZZROuVN-XpoLcYeS-45" edge="1">
          <mxGeometry relative="1" as="geometry">
            <mxPoint x="2800" y="-3320" as="sourcePoint" />
            <mxPoint x="3550" y="-3320" as="targetPoint" />
          </mxGeometry>
        </mxCell>
        <mxCell id="bYtuZZROuVN-XpoLcYeS-49" value="" style="edgeStyle=orthogonalEdgeStyle;rounded=0;orthogonalLoop=1;jettySize=auto;html=1;entryX=1;entryY=0.5;entryDx=0;entryDy=0;fillColor=#0050ef;strokeColor=#001DBC;strokeWidth=3;" parent="1" source="bYtuZZROuVN-XpoLcYeS-45" target="bYtuZZROuVN-XpoLcYeS-26" edge="1">
          <mxGeometry relative="1" as="geometry">
            <mxPoint x="2920" y="-3220" as="targetPoint" />
            <Array as="points">
              <mxPoint x="2920" y="-1360" />
              <mxPoint x="2600" y="-1360" />
              <mxPoint x="2600" y="-1701" />
            </Array>
          </mxGeometry>
        </mxCell>
        <mxCell id="bYtuZZROuVN-XpoLcYeS-45" value="" style="shape=waypoint;sketch=0;fillStyle=solid;size=6;pointerEvents=1;points=[];fillColor=none;resizable=0;rotatable=0;perimeter=centerPerimeter;snapToPoint=1;" parent="1" vertex="1">
          <mxGeometry x="2910" y="-3330" width="20" height="20" as="geometry" />
        </mxCell>
        <mxCell id="bYtuZZROuVN-XpoLcYeS-51" value="" style="edgeStyle=orthogonalEdgeStyle;rounded=0;orthogonalLoop=1;jettySize=auto;html=1;exitDx=0;exitDy=0;entryDx=0;entryDy=0;endArrow=none;endFill=0;fillColor=#008a00;strokeColor=#005700;strokeWidth=3;" parent="1" source="bYtuZZROuVN-XpoLcYeS-137" target="bYtuZZROuVN-XpoLcYeS-50" edge="1">
          <mxGeometry relative="1" as="geometry">
            <mxPoint x="1320" y="-2180" as="targetPoint" />
            <Array as="points" />
            <mxPoint x="3630" y="-1480" as="sourcePoint" />
          </mxGeometry>
        </mxCell>
        <mxCell id="bYtuZZROuVN-XpoLcYeS-53" value="" style="edgeStyle=orthogonalEdgeStyle;rounded=0;orthogonalLoop=1;jettySize=auto;html=1;entryX=1;entryY=0.5;entryDx=0;entryDy=0;fillColor=#008a00;strokeColor=#005700;strokeWidth=3;" parent="1" source="bYtuZZROuVN-XpoLcYeS-50" target="bYtuZZROuVN-XpoLcYeS-28" edge="1">
          <mxGeometry relative="1" as="geometry">
            <mxPoint x="2560" y="-1340" as="targetPoint" />
            <Array as="points">
              <mxPoint x="2580" y="-1240" />
              <mxPoint x="2580" y="-1640" />
            </Array>
          </mxGeometry>
        </mxCell>
        <mxCell id="bYtuZZROuVN-XpoLcYeS-50" value="" style="shape=waypoint;sketch=0;fillStyle=solid;size=6;pointerEvents=1;points=[];fillColor=none;resizable=0;rotatable=0;perimeter=centerPerimeter;snapToPoint=1;" parent="1" vertex="1">
          <mxGeometry x="2570" y="-1250" width="20" height="20" as="geometry" />
        </mxCell>
        <mxCell id="bYtuZZROuVN-XpoLcYeS-67" value="" style="edgeStyle=orthogonalEdgeStyle;rounded=0;orthogonalLoop=1;jettySize=auto;html=1;entryX=1;entryY=0.5;entryDx=0;entryDy=0;fillColor=#0050ef;strokeColor=#001DBC;strokeWidth=3;" parent="1" source="bYtuZZROuVN-XpoLcYeS-54" target="bYtuZZROuVN-XpoLcYeS-29" edge="1">
          <mxGeometry relative="1" as="geometry">
            <mxPoint x="2580" y="-1390" as="targetPoint" />
            <Array as="points">
              <mxPoint x="3760" y="-1220" />
              <mxPoint x="2560" y="-1220" />
              <mxPoint x="2560" y="-1611" />
            </Array>
          </mxGeometry>
        </mxCell>
        <mxCell id="bYtuZZROuVN-XpoLcYeS-54" value="" style="shape=waypoint;sketch=0;fillStyle=solid;size=6;pointerEvents=1;points=[];fillColor=none;resizable=0;rotatable=0;perimeter=centerPerimeter;snapToPoint=1;" parent="1" vertex="1">
          <mxGeometry x="3750" y="-3330" width="20" height="20" as="geometry" />
        </mxCell>
        <mxCell id="bYtuZZROuVN-XpoLcYeS-69" value="" style="edgeStyle=orthogonalEdgeStyle;rounded=0;orthogonalLoop=1;jettySize=auto;html=1;entryDx=0;entryDy=0;entryPerimeter=0;endArrow=none;endFill=0;fillColor=#e51400;strokeColor=#B20000;strokeWidth=3;" parent="1" source="ypKwjD0F9mnU9vVVUhoT-92" target="bYtuZZROuVN-XpoLcYeS-68" edge="1">
          <mxGeometry relative="1" as="geometry">
            <mxPoint x="3080" y="-2200" as="targetPoint" />
            <Array as="points" />
            <mxPoint x="2840" y="-2280" as="sourcePoint" />
          </mxGeometry>
        </mxCell>
        <mxCell id="bYtuZZROuVN-XpoLcYeS-71" value="" style="edgeStyle=orthogonalEdgeStyle;rounded=0;orthogonalLoop=1;jettySize=auto;html=1;entryX=1;entryY=1;entryDx=0;entryDy=0;entryPerimeter=0;exitX=0.471;exitY=0.864;exitDx=0;exitDy=0;exitPerimeter=0;endArrow=none;endFill=0;fillColor=#e51400;strokeColor=#B20000;strokeWidth=3;" parent="1" source="bYtuZZROuVN-XpoLcYeS-68" target="bYtuZZROuVN-XpoLcYeS-72" edge="1">
          <mxGeometry relative="1" as="geometry">
            <mxPoint x="2960" y="-1360" as="sourcePoint" />
            <mxPoint x="2840" y="-1338.6665852864583" as="targetPoint" />
            <Array as="points">
              <mxPoint x="2840" y="-1340" />
              <mxPoint x="2140" y="-1340" />
            </Array>
          </mxGeometry>
        </mxCell>
        <mxCell id="bYtuZZROuVN-XpoLcYeS-68" value="" style="shape=waypoint;sketch=0;fillStyle=solid;size=6;pointerEvents=1;points=[];fillColor=none;resizable=0;rotatable=0;perimeter=centerPerimeter;snapToPoint=1;" parent="1" vertex="1">
          <mxGeometry x="2830" y="-2210" width="20" height="20" as="geometry" />
        </mxCell>
        <mxCell id="bYtuZZROuVN-XpoLcYeS-81" value="" style="edgeStyle=orthogonalEdgeStyle;rounded=0;orthogonalLoop=1;jettySize=auto;html=1;entryX=0.5;entryY=1;entryDx=0;entryDy=0;" parent="1" source="bYtuZZROuVN-XpoLcYeS-72" target="bYtuZZROuVN-XpoLcYeS-14" edge="1">
          <mxGeometry relative="1" as="geometry">
            <mxPoint x="2040" y="-2190" as="targetPoint" />
          </mxGeometry>
        </mxCell>
        <mxCell id="bYtuZZROuVN-XpoLcYeS-84" value="" style="edgeStyle=orthogonalEdgeStyle;rounded=0;orthogonalLoop=1;jettySize=auto;html=1;entryX=0.5;entryY=1;entryDx=0;entryDy=0;fillColor=#e51400;strokeColor=#B20000;strokeWidth=3;" parent="1" source="bYtuZZROuVN-XpoLcYeS-72" target="bYtuZZROuVN-XpoLcYeS-10" edge="1">
          <mxGeometry relative="1" as="geometry">
            <mxPoint x="2040" y="-2190" as="targetPoint" />
            <Array as="points">
              <mxPoint x="2140" y="-2350" />
            </Array>
          </mxGeometry>
        </mxCell>
        <mxCell id="bYtuZZROuVN-XpoLcYeS-72" value="" style="shape=waypoint;sketch=0;fillStyle=solid;size=6;pointerEvents=1;points=[];fillColor=none;resizable=0;rotatable=0;perimeter=centerPerimeter;snapToPoint=1;" parent="1" vertex="1">
          <mxGeometry x="2130" y="-2200" width="20" height="20" as="geometry" />
        </mxCell>
        <mxCell id="bYtuZZROuVN-XpoLcYeS-86" value="" style="edgeStyle=orthogonalEdgeStyle;rounded=0;orthogonalLoop=1;jettySize=auto;html=1;exitX=1;exitY=0.5;exitDx=0;exitDy=0;entryDx=0;entryDy=0;endArrow=none;endFill=0;fillColor=#e51400;strokeColor=#B20000;strokeWidth=3;" parent="1" source="OJpxC2O1msqaGfNZDnol-32" edge="1">
          <mxGeometry relative="1" as="geometry">
            <mxPoint x="3680" y="-2280" as="targetPoint" />
            <Array as="points" />
            <mxPoint x="3630" y="-2280" as="sourcePoint" />
          </mxGeometry>
        </mxCell>
        <mxCell id="bYtuZZROuVN-XpoLcYeS-91" value="" style="edgeStyle=orthogonalEdgeStyle;rounded=0;orthogonalLoop=1;jettySize=auto;html=1;entryX=0.25;entryY=1;entryDx=0;entryDy=0;" parent="1" source="bYtuZZROuVN-XpoLcYeS-90" target="bYtuZZROuVN-XpoLcYeS-14" edge="1">
          <mxGeometry relative="1" as="geometry" />
        </mxCell>
        <mxCell id="bYtuZZROuVN-XpoLcYeS-93" value="" style="edgeStyle=orthogonalEdgeStyle;rounded=0;orthogonalLoop=1;jettySize=auto;html=1;entryX=0.75;entryY=1;entryDx=0;entryDy=0;fillColor=#e51400;strokeColor=#B20000;strokeWidth=3;" parent="1" source="bYtuZZROuVN-XpoLcYeS-90" target="bYtuZZROuVN-XpoLcYeS-10" edge="1">
          <mxGeometry relative="1" as="geometry">
            <mxPoint x="2120" y="-2320" as="targetPoint" />
            <Array as="points">
              <mxPoint x="2120" y="-2320" />
            </Array>
          </mxGeometry>
        </mxCell>
        <mxCell id="bYtuZZROuVN-XpoLcYeS-90" value="" style="shape=waypoint;sketch=0;fillStyle=solid;size=6;pointerEvents=1;points=[];fillColor=none;resizable=0;rotatable=0;perimeter=centerPerimeter;snapToPoint=1;" parent="1" vertex="1">
          <mxGeometry x="2110" y="-2230" width="20" height="20" as="geometry" />
        </mxCell>
        <mxCell id="bYtuZZROuVN-XpoLcYeS-95" value="" style="edgeStyle=orthogonalEdgeStyle;rounded=0;orthogonalLoop=1;jettySize=auto;html=1;exitDx=0;exitDy=0;entryDx=0;entryDy=0;endArrow=none;endFill=0;fillColor=#008a00;strokeColor=#005700;strokeWidth=3;" parent="1" source="bYtuZZROuVN-XpoLcYeS-147" target="bYtuZZROuVN-XpoLcYeS-94" edge="1">
          <mxGeometry relative="1" as="geometry">
            <Array as="points" />
            <mxPoint x="3880" y="-2280" as="sourcePoint" />
            <mxPoint x="1320" y="-2144" as="targetPoint" />
          </mxGeometry>
        </mxCell>
        <mxCell id="bYtuZZROuVN-XpoLcYeS-97" value="" style="edgeStyle=orthogonalEdgeStyle;rounded=0;orthogonalLoop=1;jettySize=auto;html=1;entryX=0.462;entryY=0.793;entryDx=0;entryDy=0;entryPerimeter=0;endArrow=none;endFill=0;fillColor=#e51400;strokeColor=#B20000;strokeWidth=3;" parent="1" source="bYtuZZROuVN-XpoLcYeS-94" target="bYtuZZROuVN-XpoLcYeS-90" edge="1">
          <mxGeometry relative="1" as="geometry">
            <mxPoint x="2120" y="-1300" as="targetPoint" />
          </mxGeometry>
        </mxCell>
        <mxCell id="bYtuZZROuVN-XpoLcYeS-94" value="" style="shape=waypoint;sketch=0;fillStyle=solid;size=6;pointerEvents=1;points=[];fillColor=none;resizable=0;rotatable=0;perimeter=centerPerimeter;snapToPoint=1;" parent="1" vertex="1">
          <mxGeometry x="2110" y="-1210" width="20" height="20" as="geometry" />
        </mxCell>
        <mxCell id="bYtuZZROuVN-XpoLcYeS-109" value="" style="group;fillColor=#d0cee2;strokeColor=#56517e;" parent="1" vertex="1" connectable="0">
          <mxGeometry x="3040" y="-1732" width="320" height="140" as="geometry" />
        </mxCell>
        <mxCell id="bYtuZZROuVN-XpoLcYeS-99" value="&lt;br&gt;MEM&lt;br style=&quot;font-size: 24px;&quot;&gt;FWD&lt;br style=&quot;font-size: 24px;&quot;&gt;UNIT" style="rounded=0;whiteSpace=wrap;html=1;fontFamily=Roboto;fontSource=https%3A%2F%2Ffonts.googleapis.com%2Fcss%3Ffamily%3DRoboto;fontSize=24;fontStyle=1;fillColor=#d0cee2;strokeColor=#56517e;" parent="bYtuZZROuVN-XpoLcYeS-109" vertex="1">
          <mxGeometry width="320" height="140" as="geometry" />
        </mxCell>
        <mxCell id="bYtuZZROuVN-XpoLcYeS-100" value="MEM_FWD_SEL" style="text;html=1;strokeColor=none;fillColor=none;align=center;verticalAlign=middle;whiteSpace=wrap;rounded=0;fontSize=18;fontFamily=Helvetica;fontColor=default;container=0;" parent="bYtuZZROuVN-XpoLcYeS-109" vertex="1">
          <mxGeometry x="85" width="150" height="30" as="geometry" />
        </mxCell>
        <mxCell id="bYtuZZROuVN-XpoLcYeS-104" value="MEM_WRITE" style="text;html=1;strokeColor=none;fillColor=none;align=center;verticalAlign=middle;whiteSpace=wrap;rounded=0;fontSize=18;fontFamily=Helvetica;fontColor=default;container=0;" parent="bYtuZZROuVN-XpoLcYeS-109" vertex="1">
          <mxGeometry y="50" width="120" height="30" as="geometry" />
        </mxCell>
        <mxCell id="bYtuZZROuVN-XpoLcYeS-106" value="WB_MEM_R" style="text;html=1;strokeColor=none;fillColor=none;align=center;verticalAlign=middle;whiteSpace=wrap;rounded=0;fontSize=18;fontFamily=Helvetica;fontColor=default;container=0;" parent="bYtuZZROuVN-XpoLcYeS-109" vertex="1">
          <mxGeometry x="200" y="50" width="120" height="30" as="geometry" />
        </mxCell>
        <mxCell id="bYtuZZROuVN-XpoLcYeS-107" value="WB_ADDR" style="text;html=1;strokeColor=none;fillColor=none;align=center;verticalAlign=middle;whiteSpace=wrap;rounded=0;fontSize=18;fontFamily=Helvetica;fontColor=default;container=0;" parent="bYtuZZROuVN-XpoLcYeS-109" vertex="1">
          <mxGeometry x="220" y="80" width="100" height="30" as="geometry" />
        </mxCell>
        <mxCell id="bYtuZZROuVN-XpoLcYeS-130" value="MEM_ADDR" style="text;html=1;strokeColor=none;fillColor=none;align=center;verticalAlign=middle;whiteSpace=wrap;rounded=0;fontSize=18;fontFamily=Helvetica;fontColor=default;container=0;" parent="bYtuZZROuVN-XpoLcYeS-109" vertex="1">
          <mxGeometry y="82" width="120" height="30" as="geometry" />
        </mxCell>
        <mxCell id="bYtuZZROuVN-XpoLcYeS-113" style="edgeStyle=orthogonalEdgeStyle;rounded=0;orthogonalLoop=1;jettySize=auto;html=1;exitX=0.5;exitY=0;exitDx=0;exitDy=0;" parent="1" source="bYtuZZROuVN-XpoLcYeS-112" target="ypKwjD0F9mnU9vVVUhoT-74" edge="1">
          <mxGeometry relative="1" as="geometry">
            <mxPoint x="3070" y="-2039.9444444444443" as="targetPoint" />
          </mxGeometry>
        </mxCell>
        <mxCell id="bYtuZZROuVN-XpoLcYeS-112" value="WRITE&lt;br&gt;DATA&lt;br&gt;FWD" style="shape=trapezoid;perimeter=trapezoidPerimeter;whiteSpace=wrap;html=1;fixedSize=1;rotation=90;size=30;textDirection=ltr;verticalAlign=middle;horizontal=0;fontFamily=Roboto;fontSource=https%3A%2F%2Ffonts.googleapis.com%2Fcss%3Ffamily%3DRoboto;fontStyle=1;fillColor=#b1ddf0;strokeColor=#10739e;" parent="1" vertex="1">
          <mxGeometry x="2990" y="-2070" width="120" height="60" as="geometry" />
        </mxCell>
        <mxCell id="bYtuZZROuVN-XpoLcYeS-118" style="edgeStyle=orthogonalEdgeStyle;rounded=0;orthogonalLoop=1;jettySize=auto;html=1;" parent="1" source="bYtuZZROuVN-XpoLcYeS-114" target="bYtuZZROuVN-XpoLcYeS-114" edge="1">
          <mxGeometry relative="1" as="geometry" />
        </mxCell>
        <mxCell id="bYtuZZROuVN-XpoLcYeS-119" value="" style="edgeStyle=orthogonalEdgeStyle;rounded=0;orthogonalLoop=1;jettySize=auto;html=1;exitX=0.5;exitY=0;exitDx=0;exitDy=0;entryDx=0;entryDy=0;endArrow=none;endFill=0;fillColor=#e51400;strokeColor=#B20000;strokeWidth=3;" parent="1" source="bYtuZZROuVN-XpoLcYeS-14" target="bYtuZZROuVN-XpoLcYeS-114" edge="1">
          <mxGeometry relative="1" as="geometry">
            <mxPoint x="2235" y="-2190" as="sourcePoint" />
            <mxPoint x="2360" y="-2170" as="targetPoint" />
            <Array as="points" />
          </mxGeometry>
        </mxCell>
        <mxCell id="bYtuZZROuVN-XpoLcYeS-114" value="" style="shape=waypoint;sketch=0;fillStyle=solid;size=6;pointerEvents=1;points=[];fillColor=none;resizable=0;rotatable=0;perimeter=centerPerimeter;snapToPoint=1;" parent="1" vertex="1">
          <mxGeometry x="2300" y="-2180" width="20" height="20" as="geometry" />
        </mxCell>
        <mxCell id="bYtuZZROuVN-XpoLcYeS-123" value="" style="edgeStyle=orthogonalEdgeStyle;rounded=0;orthogonalLoop=1;jettySize=auto;html=1;entryDx=0;entryDy=0;exitX=0.438;exitY=0.662;exitDx=0;exitDy=0;exitPerimeter=0;endArrow=none;endFill=0;fillColor=#e51400;strokeColor=#B20000;strokeWidth=3;" parent="1" source="bYtuZZROuVN-XpoLcYeS-114" target="bYtuZZROuVN-XpoLcYeS-121" edge="1">
          <mxGeometry relative="1" as="geometry">
            <mxPoint x="2390" y="-1840" as="targetPoint" />
            <Array as="points" />
            <mxPoint x="2310" y="-2170" as="sourcePoint" />
          </mxGeometry>
        </mxCell>
        <mxCell id="bYtuZZROuVN-XpoLcYeS-121" value="" style="shape=waypoint;sketch=0;fillStyle=solid;size=6;pointerEvents=1;points=[];fillColor=none;resizable=0;rotatable=0;perimeter=centerPerimeter;snapToPoint=1;" parent="1" vertex="1">
          <mxGeometry x="2300" y="-2050" width="20" height="20" as="geometry" />
        </mxCell>
        <mxCell id="bYtuZZROuVN-XpoLcYeS-136" style="edgeStyle=orthogonalEdgeStyle;rounded=0;orthogonalLoop=1;jettySize=auto;html=1;exitX=1;exitY=0.5;exitDx=0;exitDy=0;entryX=0;entryY=0.5;entryDx=0;entryDy=0;fillColor=#008a00;strokeColor=#005700;strokeWidth=3;" parent="1" source="OJpxC2O1msqaGfNZDnol-31" target="bYtuZZROuVN-XpoLcYeS-130" edge="1">
          <mxGeometry relative="1" as="geometry">
            <Array as="points">
              <mxPoint x="2960" y="-1560" />
              <mxPoint x="2960" y="-1635" />
            </Array>
          </mxGeometry>
        </mxCell>
        <mxCell id="bYtuZZROuVN-XpoLcYeS-138" value="" style="edgeStyle=orthogonalEdgeStyle;rounded=0;orthogonalLoop=1;jettySize=auto;html=1;exitX=1;exitY=0.5;exitDx=0;exitDy=0;entryDx=0;entryDy=0;endArrow=none;endFill=0;fillColor=#008a00;strokeColor=#005700;strokeWidth=3;" parent="1" source="OJpxC2O1msqaGfNZDnol-34" target="bYtuZZROuVN-XpoLcYeS-137" edge="1">
          <mxGeometry relative="1" as="geometry">
            <mxPoint x="2580" y="-1240" as="targetPoint" />
            <Array as="points">
              <mxPoint x="3680" y="-1480" />
              <mxPoint x="3680" y="-1240" />
            </Array>
            <mxPoint x="3630" y="-1480" as="sourcePoint" />
          </mxGeometry>
        </mxCell>
        <mxCell id="bYtuZZROuVN-XpoLcYeS-140" value="" style="edgeStyle=orthogonalEdgeStyle;rounded=0;orthogonalLoop=1;jettySize=auto;html=1;entryX=1;entryY=0.5;entryDx=0;entryDy=0;fillColor=#008a00;strokeColor=#005700;strokeWidth=3;" parent="1" source="bYtuZZROuVN-XpoLcYeS-137" target="bYtuZZROuVN-XpoLcYeS-107" edge="1">
          <mxGeometry relative="1" as="geometry">
            <mxPoint x="3400" y="-1340" as="targetPoint" />
            <Array as="points">
              <mxPoint x="3400" y="-1637" />
            </Array>
          </mxGeometry>
        </mxCell>
        <mxCell id="bYtuZZROuVN-XpoLcYeS-137" value="" style="shape=waypoint;sketch=0;fillStyle=solid;size=6;pointerEvents=1;points=[];fillColor=none;resizable=0;rotatable=0;perimeter=centerPerimeter;snapToPoint=1;" parent="1" vertex="1">
          <mxGeometry x="3390" y="-1250" width="20" height="20" as="geometry" />
        </mxCell>
        <mxCell id="bYtuZZROuVN-XpoLcYeS-142" style="edgeStyle=orthogonalEdgeStyle;rounded=0;orthogonalLoop=1;jettySize=auto;html=1;exitX=0.5;exitY=0;exitDx=0;exitDy=0;entryX=1;entryY=0.5;entryDx=0;entryDy=0;fillColor=#0050ef;strokeColor=#001DBC;strokeWidth=3;" parent="1" source="bYtuZZROuVN-XpoLcYeS-100" target="bYtuZZROuVN-XpoLcYeS-112" edge="1">
          <mxGeometry relative="1" as="geometry">
            <Array as="points">
              <mxPoint x="3200" y="-1920" />
              <mxPoint x="3050" y="-1920" />
            </Array>
          </mxGeometry>
        </mxCell>
        <mxCell id="bYtuZZROuVN-XpoLcYeS-144" value="" style="edgeStyle=orthogonalEdgeStyle;rounded=0;orthogonalLoop=1;jettySize=auto;html=1;exitX=1;exitY=0.5;exitDx=0;exitDy=0;endArrow=none;endFill=0;fillColor=#0050ef;strokeColor=#001DBC;strokeWidth=3;" parent="1" source="OJpxC2O1msqaGfNZDnol-41" target="bYtuZZROuVN-XpoLcYeS-143" edge="1">
          <mxGeometry relative="1" as="geometry">
            <mxPoint x="3190" y="-2280" as="targetPoint" />
            <mxPoint x="2800" y="-3160" as="sourcePoint" />
          </mxGeometry>
        </mxCell>
        <mxCell id="bYtuZZROuVN-XpoLcYeS-146" value="" style="edgeStyle=orthogonalEdgeStyle;rounded=0;orthogonalLoop=1;jettySize=auto;html=1;entryX=0;entryY=0.5;entryDx=0;entryDy=0;strokeWidth=3;fillColor=#0050ef;strokeColor=#001DBC;" parent="1" source="bYtuZZROuVN-XpoLcYeS-143" target="bYtuZZROuVN-XpoLcYeS-104" edge="1">
          <mxGeometry relative="1" as="geometry">
            <mxPoint x="2960" y="-3060" as="targetPoint" />
            <Array as="points">
              <mxPoint x="2960" y="-1667" />
            </Array>
          </mxGeometry>
        </mxCell>
        <mxCell id="bYtuZZROuVN-XpoLcYeS-143" value="" style="shape=waypoint;sketch=0;fillStyle=solid;size=6;pointerEvents=1;points=[];fillColor=none;resizable=0;rotatable=0;perimeter=centerPerimeter;snapToPoint=1;" parent="1" vertex="1">
          <mxGeometry x="2950" y="-3170" width="20" height="20" as="geometry" />
        </mxCell>
        <mxCell id="bYtuZZROuVN-XpoLcYeS-148" value="" style="edgeStyle=orthogonalEdgeStyle;rounded=0;orthogonalLoop=1;jettySize=auto;html=1;exitX=0.5;exitY=0;exitDx=0;exitDy=0;entryDx=0;entryDy=0;endArrow=none;endFill=0;fillColor=#e51400;strokeColor=#B20000;strokeWidth=3;" parent="1" source="ypKwjD0F9mnU9vVVUhoT-100" target="bYtuZZROuVN-XpoLcYeS-147" edge="1">
          <mxGeometry relative="1" as="geometry">
            <Array as="points">
              <mxPoint x="3910" y="-2280" />
              <mxPoint x="3910" y="-1200" />
            </Array>
            <mxPoint x="3880" y="-2280" as="sourcePoint" />
            <mxPoint x="2120" y="-1200" as="targetPoint" />
          </mxGeometry>
        </mxCell>
        <mxCell id="bYtuZZROuVN-XpoLcYeS-150" value="" style="edgeStyle=orthogonalEdgeStyle;rounded=0;orthogonalLoop=1;jettySize=auto;html=1;entryX=0.75;entryY=1;entryDx=0;entryDy=0;fillColor=#e51400;strokeColor=#B20000;strokeWidth=3;" parent="1" source="bYtuZZROuVN-XpoLcYeS-147" target="bYtuZZROuVN-XpoLcYeS-112" edge="1">
          <mxGeometry relative="1" as="geometry">
            <mxPoint x="3000" y="-1300" as="targetPoint" />
            <Array as="points">
              <mxPoint x="3000" y="-2010" />
            </Array>
          </mxGeometry>
        </mxCell>
        <mxCell id="bYtuZZROuVN-XpoLcYeS-147" value="" style="shape=waypoint;sketch=0;fillStyle=solid;size=6;pointerEvents=1;points=[];fillColor=none;resizable=0;rotatable=0;perimeter=centerPerimeter;snapToPoint=1;" parent="1" vertex="1">
          <mxGeometry x="2990" y="-1210" width="20" height="20" as="geometry" />
        </mxCell>
        <mxCell id="bYtuZZROuVN-XpoLcYeS-151" value="MEM_WRITE[2]" style="text;html=1;strokeColor=none;fillColor=none;align=center;verticalAlign=middle;whiteSpace=wrap;rounded=0;fontFamily=Roboto;fontSource=https%3A%2F%2Ffonts.googleapis.com%2Fcss%3Ffamily%3DRoboto;rotation=90;" parent="1" vertex="1">
          <mxGeometry x="2930" y="-3120" width="80" height="20" as="geometry" />
        </mxCell>
        <mxCell id="bYtuZZROuVN-XpoLcYeS-152" value="MEM_READ[3]" style="text;html=1;strokeColor=none;fillColor=none;align=center;verticalAlign=middle;whiteSpace=wrap;rounded=0;fontFamily=Roboto;fontSource=https%3A%2F%2Ffonts.googleapis.com%2Fcss%3Ffamily%3DRoboto;rotation=0;" parent="1" vertex="1">
          <mxGeometry x="3460" y="-3420" width="80" height="20" as="geometry" />
        </mxCell>
        <mxCell id="hj1TQCpyKpw-rvz4jUIR-12" value="" style="group" parent="1" vertex="1" connectable="0">
          <mxGeometry x="1240" y="-2800" width="320" height="160" as="geometry" />
        </mxCell>
        <mxCell id="hj1TQCpyKpw-rvz4jUIR-2" value="HAZ&lt;br&gt;DETECT&lt;br&gt;UNIT" style="rounded=0;whiteSpace=wrap;html=1;fontFamily=Roboto;fontSource=https%3A%2F%2Ffonts.googleapis.com%2Fcss%3Ffamily%3DRoboto;fontSize=24;fontStyle=1;fillColor=#d0cee2;strokeColor=#56517e;" parent="hj1TQCpyKpw-rvz4jUIR-12" vertex="1">
          <mxGeometry width="320" height="160" as="geometry" />
        </mxCell>
        <mxCell id="hj1TQCpyKpw-rvz4jUIR-3" value="ID_ADDR1" style="text;html=1;strokeColor=none;fillColor=none;align=center;verticalAlign=middle;whiteSpace=wrap;rounded=0;fontSize=18;fontFamily=Helvetica;fontColor=default;container=0;" parent="hj1TQCpyKpw-rvz4jUIR-12" vertex="1">
          <mxGeometry y="10" width="110" height="30" as="geometry" />
        </mxCell>
        <mxCell id="hj1TQCpyKpw-rvz4jUIR-4" value="ID_ADDR2" style="text;html=1;strokeColor=none;fillColor=none;align=center;verticalAlign=middle;whiteSpace=wrap;rounded=0;fontSize=18;fontFamily=Helvetica;fontColor=default;container=0;" parent="hj1TQCpyKpw-rvz4jUIR-12" vertex="1">
          <mxGeometry y="40" width="110" height="25.71" as="geometry" />
        </mxCell>
        <mxCell id="hj1TQCpyKpw-rvz4jUIR-5" value="LU_HAZ_SIG" style="text;html=1;strokeColor=none;fillColor=none;align=center;verticalAlign=middle;whiteSpace=wrap;rounded=0;fontSize=18;fontFamily=Helvetica;fontColor=default;container=0;" parent="hj1TQCpyKpw-rvz4jUIR-12" vertex="1">
          <mxGeometry y="120" width="120" height="25.71" as="geometry" />
        </mxCell>
        <mxCell id="hj1TQCpyKpw-rvz4jUIR-7" value="EX_W_ADDR" style="text;html=1;strokeColor=none;fillColor=none;align=center;verticalAlign=middle;whiteSpace=wrap;rounded=0;fontSize=18;fontFamily=Helvetica;fontColor=default;container=0;" parent="hj1TQCpyKpw-rvz4jUIR-12" vertex="1">
          <mxGeometry x="200" y="10" width="120" height="30" as="geometry" />
        </mxCell>
        <mxCell id="hj1TQCpyKpw-rvz4jUIR-8" value="EX_MEM_R" style="text;html=1;strokeColor=none;fillColor=none;align=center;verticalAlign=middle;whiteSpace=wrap;rounded=0;fontSize=18;fontFamily=Helvetica;fontColor=default;container=0;" parent="hj1TQCpyKpw-rvz4jUIR-12" vertex="1">
          <mxGeometry x="210" y="35.710000000000036" width="110" height="30" as="geometry" />
        </mxCell>
        <mxCell id="hj1TQCpyKpw-rvz4jUIR-9" value="ID_OP1_SEL" style="text;html=1;strokeColor=none;fillColor=none;align=center;verticalAlign=middle;whiteSpace=wrap;rounded=0;fontSize=18;fontFamily=Helvetica;fontColor=default;container=0;" parent="hj1TQCpyKpw-rvz4jUIR-12" vertex="1">
          <mxGeometry x="200" y="96.84999999999991" width="120" height="30" as="geometry" />
        </mxCell>
        <mxCell id="hj1TQCpyKpw-rvz4jUIR-10" value="ID_OP2_SEL" style="text;html=1;strokeColor=none;fillColor=none;align=center;verticalAlign=middle;whiteSpace=wrap;rounded=0;fontSize=18;fontFamily=Helvetica;fontColor=default;container=0;" parent="hj1TQCpyKpw-rvz4jUIR-12" vertex="1">
          <mxGeometry x="200" y="125.71000000000004" width="120" height="30" as="geometry" />
        </mxCell>
        <mxCell id="hj1TQCpyKpw-rvz4jUIR-14" value="" style="edgeStyle=orthogonalEdgeStyle;rounded=0;orthogonalLoop=1;jettySize=auto;html=1;entryDx=0;entryDy=0;strokeWidth=4;endArrow=none;endFill=0;" parent="1" source="hj1TQCpyKpw-rvz4jUIR-15" target="hj1TQCpyKpw-rvz4jUIR-13" edge="1">
          <mxGeometry relative="1" as="geometry">
            <mxPoint x="1280" y="-3140" as="targetPoint" />
            <Array as="points" />
            <mxPoint x="1040" y="-2240" as="sourcePoint" />
          </mxGeometry>
        </mxCell>
        <mxCell id="hj1TQCpyKpw-rvz4jUIR-20" value="" style="edgeStyle=orthogonalEdgeStyle;rounded=0;orthogonalLoop=1;jettySize=auto;html=1;fillColor=#008a00;strokeColor=#005700;strokeWidth=3;" parent="1" source="hj1TQCpyKpw-rvz4jUIR-13" target="hj1TQCpyKpw-rvz4jUIR-3" edge="1">
          <mxGeometry relative="1" as="geometry">
            <mxPoint x="1140" y="-2780" as="targetPoint" />
          </mxGeometry>
        </mxCell>
        <mxCell id="hj1TQCpyKpw-rvz4jUIR-13" value="" style="shape=waypoint;sketch=0;fillStyle=solid;size=6;pointerEvents=1;points=[];fillColor=none;resizable=0;rotatable=0;perimeter=centerPerimeter;snapToPoint=1;strokeWidth=4;" parent="1" vertex="1">
          <mxGeometry x="1030" y="-2785" width="20" height="20" as="geometry" />
        </mxCell>
        <mxCell id="hj1TQCpyKpw-rvz4jUIR-16" value="" style="edgeStyle=orthogonalEdgeStyle;rounded=0;orthogonalLoop=1;jettySize=auto;html=1;entryDx=0;entryDy=0;strokeWidth=4;endArrow=none;endFill=0;" parent="1" source="OJpxC2O1msqaGfNZDnol-91" target="hj1TQCpyKpw-rvz4jUIR-15" edge="1">
          <mxGeometry relative="1" as="geometry">
            <mxPoint x="1040" y="-2780" as="targetPoint" />
            <Array as="points" />
            <mxPoint x="1040" y="-2240" as="sourcePoint" />
          </mxGeometry>
        </mxCell>
        <mxCell id="hj1TQCpyKpw-rvz4jUIR-18" value="" style="edgeStyle=orthogonalEdgeStyle;rounded=0;orthogonalLoop=1;jettySize=auto;html=1;entryX=0;entryY=0.5;entryDx=0;entryDy=0;fillColor=#008a00;strokeColor=#005700;strokeWidth=3;" parent="1" source="hj1TQCpyKpw-rvz4jUIR-15" target="hj1TQCpyKpw-rvz4jUIR-4" edge="1">
          <mxGeometry relative="1" as="geometry">
            <mxPoint x="1140" y="-2744.29" as="targetPoint" />
          </mxGeometry>
        </mxCell>
        <mxCell id="hj1TQCpyKpw-rvz4jUIR-15" value="" style="shape=waypoint;sketch=0;fillStyle=solid;size=6;pointerEvents=1;points=[];fillColor=none;resizable=0;rotatable=0;perimeter=centerPerimeter;snapToPoint=1;strokeWidth=4;" parent="1" vertex="1">
          <mxGeometry x="1030" y="-2757.15" width="20" height="20" as="geometry" />
        </mxCell>
        <mxCell id="hj1TQCpyKpw-rvz4jUIR-21" value="ID_INSTRUCTION [19:15]" style="text;html=1;strokeColor=none;fillColor=none;align=center;verticalAlign=middle;whiteSpace=wrap;rounded=0;fontFamily=Roboto;fontSource=https%3A%2F%2Ffonts.googleapis.com%2Fcss%3Ffamily%3DRoboto;" parent="1" vertex="1">
          <mxGeometry x="1045" y="-2795" width="150" height="20" as="geometry" />
        </mxCell>
        <mxCell id="hj1TQCpyKpw-rvz4jUIR-22" value="ID_INSTRUCTION [24:20]" style="text;html=1;strokeColor=none;fillColor=none;align=center;verticalAlign=middle;whiteSpace=wrap;rounded=0;fontFamily=Roboto;fontSource=https%3A%2F%2Ffonts.googleapis.com%2Fcss%3Ffamily%3DRoboto;" parent="1" vertex="1">
          <mxGeometry x="1050" y="-2747" width="140" height="20" as="geometry" />
        </mxCell>
        <mxCell id="hj1TQCpyKpw-rvz4jUIR-25" value="" style="edgeStyle=orthogonalEdgeStyle;rounded=0;orthogonalLoop=1;jettySize=auto;html=1;exitX=1;exitY=0.5;exitDx=0;exitDy=0;entryDx=0;entryDy=0;endArrow=none;endFill=0;strokeWidth=3;fillColor=#0050ef;strokeColor=#001DBC;" parent="1" source="AQ1_ctODMUg5cEXQnaUs-57" target="hj1TQCpyKpw-rvz4jUIR-23" edge="1">
          <mxGeometry relative="1" as="geometry">
            <Array as="points" />
            <mxPoint x="1560" y="-3080" as="sourcePoint" />
            <mxPoint x="1880" y="-3000" as="targetPoint" />
          </mxGeometry>
        </mxCell>
        <mxCell id="hj1TQCpyKpw-rvz4jUIR-29" value="" style="edgeStyle=orthogonalEdgeStyle;rounded=0;orthogonalLoop=1;jettySize=auto;html=1;entryX=1;entryY=0.5;entryDx=0;entryDy=0;strokeWidth=3;fillColor=#0050ef;strokeColor=#001DBC;" parent="1" source="hj1TQCpyKpw-rvz4jUIR-23" target="hj1TQCpyKpw-rvz4jUIR-9" edge="1">
          <mxGeometry relative="1" as="geometry">
            <mxPoint x="1640" y="-2860" as="targetPoint" />
            <Array as="points">
              <mxPoint x="1640" y="-2688" />
            </Array>
          </mxGeometry>
        </mxCell>
        <mxCell id="hj1TQCpyKpw-rvz4jUIR-23" value="" style="shape=waypoint;sketch=0;fillStyle=solid;size=6;pointerEvents=1;points=[];fillColor=none;resizable=0;rotatable=0;perimeter=centerPerimeter;snapToPoint=1;" parent="1" vertex="1">
          <mxGeometry x="1629.6100000000001" y="-3090" width="20" height="20" as="geometry" />
        </mxCell>
        <mxCell id="hj1TQCpyKpw-rvz4jUIR-28" value="" style="edgeStyle=orthogonalEdgeStyle;rounded=0;orthogonalLoop=1;jettySize=auto;html=1;exitX=1;exitY=0.5;exitDx=0;exitDy=0;entryDx=0;entryDy=0;endArrow=none;endFill=0;strokeWidth=3;fillColor=#0050ef;strokeColor=#001DBC;" parent="1" source="AQ1_ctODMUg5cEXQnaUs-58" target="hj1TQCpyKpw-rvz4jUIR-27" edge="1">
          <mxGeometry relative="1" as="geometry">
            <mxPoint x="1560" y="-3040" as="sourcePoint" />
            <mxPoint x="1880" y="-2920" as="targetPoint" />
          </mxGeometry>
        </mxCell>
        <mxCell id="hj1TQCpyKpw-rvz4jUIR-31" value="" style="edgeStyle=orthogonalEdgeStyle;rounded=0;orthogonalLoop=1;jettySize=auto;html=1;entryX=1;entryY=0.5;entryDx=0;entryDy=0;strokeWidth=3;fillColor=#0050ef;strokeColor=#001DBC;" parent="1" source="hj1TQCpyKpw-rvz4jUIR-27" target="hj1TQCpyKpw-rvz4jUIR-10" edge="1">
          <mxGeometry relative="1" as="geometry">
            <mxPoint x="1659.6100000000001" y="-2940" as="targetPoint" />
            <Array as="points">
              <mxPoint x="1660" y="-2659" />
            </Array>
          </mxGeometry>
        </mxCell>
        <mxCell id="hj1TQCpyKpw-rvz4jUIR-27" value="" style="shape=waypoint;sketch=0;fillStyle=solid;size=6;pointerEvents=1;points=[];fillColor=none;resizable=0;rotatable=0;perimeter=centerPerimeter;snapToPoint=1;" parent="1" vertex="1">
          <mxGeometry x="1649.6100000000001" y="-3050" width="20" height="20" as="geometry" />
        </mxCell>
        <mxCell id="hj1TQCpyKpw-rvz4jUIR-33" value="" style="edgeStyle=orthogonalEdgeStyle;rounded=0;orthogonalLoop=1;jettySize=auto;html=1;exitX=1;exitY=0.5;exitDx=0;exitDy=0;entryDx=0;entryDy=0;endArrow=none;endFill=0;fillColor=#0050ef;strokeColor=#001DBC;strokeWidth=3;" parent="1" source="OJpxC2O1msqaGfNZDnol-15" target="hj1TQCpyKpw-rvz4jUIR-32" edge="1">
          <mxGeometry relative="1" as="geometry">
            <mxPoint x="1960" y="-3400" as="sourcePoint" />
            <mxPoint x="2720" y="-3400" as="targetPoint" />
            <Array as="points">
              <mxPoint x="1980" y="-3400" />
              <mxPoint x="1980" y="-3400" />
            </Array>
          </mxGeometry>
        </mxCell>
        <mxCell id="hj1TQCpyKpw-rvz4jUIR-35" value="" style="edgeStyle=orthogonalEdgeStyle;rounded=0;orthogonalLoop=1;jettySize=auto;html=1;entryX=1;entryY=0.5;entryDx=0;entryDy=0;strokeWidth=3;fillColor=#0050ef;strokeColor=#001DBC;" parent="1" source="hj1TQCpyKpw-rvz4jUIR-32" target="hj1TQCpyKpw-rvz4jUIR-8" edge="1">
          <mxGeometry relative="1" as="geometry">
            <mxPoint x="2000" y="-3500" as="targetPoint" />
            <Array as="points">
              <mxPoint x="2000" y="-3460" />
              <mxPoint x="1820" y="-3460" />
              <mxPoint x="1820" y="-2749" />
            </Array>
          </mxGeometry>
        </mxCell>
        <mxCell id="hj1TQCpyKpw-rvz4jUIR-32" value="" style="shape=waypoint;sketch=0;fillStyle=solid;size=6;pointerEvents=1;points=[];fillColor=none;resizable=0;rotatable=0;perimeter=centerPerimeter;snapToPoint=1;" parent="1" vertex="1">
          <mxGeometry x="1990" y="-3410" width="20" height="20" as="geometry" />
        </mxCell>
        <mxCell id="hj1TQCpyKpw-rvz4jUIR-37" value="" style="edgeStyle=orthogonalEdgeStyle;rounded=0;orthogonalLoop=1;jettySize=auto;html=1;exitX=1;exitY=0.5;exitDx=0;exitDy=0;entryDx=0;entryDy=0;endArrow=none;endFill=0;fillColor=#008a00;strokeColor=#005700;strokeWidth=3;" parent="1" source="OJpxC2O1msqaGfNZDnol-24" target="hj1TQCpyKpw-rvz4jUIR-36" edge="1">
          <mxGeometry relative="1" as="geometry">
            <mxPoint x="1960" y="-1480" as="sourcePoint" />
            <mxPoint x="2720" y="-1480" as="targetPoint" />
          </mxGeometry>
        </mxCell>
        <mxCell id="hj1TQCpyKpw-rvz4jUIR-39" value="" style="edgeStyle=orthogonalEdgeStyle;rounded=0;orthogonalLoop=1;jettySize=auto;html=1;entryX=1;entryY=0.5;entryDx=0;entryDy=0;strokeWidth=3;fillColor=#008a00;strokeColor=#005700;" parent="1" source="hj1TQCpyKpw-rvz4jUIR-36" target="hj1TQCpyKpw-rvz4jUIR-7" edge="1">
          <mxGeometry relative="1" as="geometry">
            <mxPoint x="1810" y="-2812.8571428571427" as="targetPoint" />
            <Array as="points">
              <mxPoint x="2080" y="-3480" />
              <mxPoint x="1780" y="-3480" />
              <mxPoint x="1780" y="-2775" />
            </Array>
          </mxGeometry>
        </mxCell>
        <mxCell id="hj1TQCpyKpw-rvz4jUIR-36" value="" style="shape=waypoint;sketch=0;fillStyle=solid;size=6;pointerEvents=1;points=[];fillColor=none;resizable=0;rotatable=0;perimeter=centerPerimeter;snapToPoint=1;" parent="1" vertex="1">
          <mxGeometry x="2070" y="-1490" width="20" height="20" as="geometry" />
        </mxCell>
        <mxCell id="hj1TQCpyKpw-rvz4jUIR-40" value="MEM_READ[3]" style="text;html=1;strokeColor=none;fillColor=none;align=center;verticalAlign=middle;whiteSpace=wrap;rounded=0;fontFamily=Roboto;fontSource=https%3A%2F%2Ffonts.googleapis.com%2Fcss%3Ffamily%3DRoboto;rotation=0;" parent="1" vertex="1">
          <mxGeometry x="1740" y="-2747" width="80" height="20" as="geometry" />
        </mxCell>
        <mxCell id="hj1TQCpyKpw-rvz4jUIR-48" value="" style="group;fillColor=#cdeb8b;strokeColor=#36393d;" parent="1" vertex="1" connectable="0">
          <mxGeometry x="800" y="-3440" width="80" height="2040" as="geometry" />
        </mxCell>
        <mxCell id="OJpxC2O1msqaGfNZDnol-1" value="" style="rounded=0;whiteSpace=wrap;html=1;fillColor=#fff2cc;strokeColor=#d6b656;" parent="hj1TQCpyKpw-rvz4jUIR-48" vertex="1">
          <mxGeometry width="80" height="2040" as="geometry" />
        </mxCell>
        <mxCell id="OJpxC2O1msqaGfNZDnol-5" value="INSTR" style="whiteSpace=wrap;html=1;aspect=fixed;fontFamily=Roboto;fontSource=https%3A%2F%2Ffonts.googleapis.com%2Fcss%3Ffamily%3DRoboto;fontSize=16;fontStyle=1;fillColor=#eeeeee;strokeColor=#36393d;" parent="hj1TQCpyKpw-rvz4jUIR-48" vertex="1">
          <mxGeometry y="1160" width="80" height="80" as="geometry" />
        </mxCell>
        <mxCell id="OJpxC2O1msqaGfNZDnol-6" value="PC" style="whiteSpace=wrap;html=1;aspect=fixed;fontFamily=Roboto;fontSource=https%3A%2F%2Ffonts.googleapis.com%2Fcss%3Ffamily%3DRoboto;fontSize=16;fontStyle=1;fillColor=#cdeb8b;strokeColor=#36393d;" parent="hj1TQCpyKpw-rvz4jUIR-48" vertex="1">
          <mxGeometry y="920" width="80" height="80" as="geometry" />
        </mxCell>
        <mxCell id="hj1TQCpyKpw-rvz4jUIR-44" value="RES" style="rounded=0;whiteSpace=wrap;html=1;fontFamily=Roboto;fontSource=https%3A%2F%2Ffonts.googleapis.com%2Fcss%3Ffamily%3DRoboto;fontSize=16;fontStyle=1;fillColor=#eeeeee;strokeColor=#36393d;" parent="hj1TQCpyKpw-rvz4jUIR-48" vertex="1">
          <mxGeometry y="2000" width="40" height="40" as="geometry" />
        </mxCell>
        <mxCell id="hj1TQCpyKpw-rvz4jUIR-62" value="HLD" style="rounded=0;whiteSpace=wrap;html=1;fontFamily=Roboto;fontSource=https%3A%2F%2Ffonts.googleapis.com%2Fcss%3Ffamily%3DRoboto;fontSize=16;fontStyle=1;fillColor=#eeeeee;strokeColor=#36393d;" parent="hj1TQCpyKpw-rvz4jUIR-48" vertex="1">
          <mxGeometry x="40" y="2000" width="40" height="40" as="geometry" />
        </mxCell>
        <mxCell id="hj1TQCpyKpw-rvz4jUIR-49" value="" style="group;fillColor=#dae8fc;strokeColor=#6c8ebf;" parent="1" vertex="1" connectable="0">
          <mxGeometry x="1880" y="-3440" width="80" height="2040" as="geometry" />
        </mxCell>
        <mxCell id="OJpxC2O1msqaGfNZDnol-2" value="" style="rounded=0;whiteSpace=wrap;html=1;fillColor=#fff2cc;strokeColor=#d6b656;" parent="hj1TQCpyKpw-rvz4jUIR-49" vertex="1">
          <mxGeometry width="80" height="2040" as="geometry" />
        </mxCell>
        <mxCell id="OJpxC2O1msqaGfNZDnol-7" value="PC" style="whiteSpace=wrap;html=1;aspect=fixed;fontFamily=Roboto;fontSource=https%3A%2F%2Ffonts.googleapis.com%2Fcss%3Ffamily%3DRoboto;fontSize=16;fontStyle=1;fillColor=#cdeb8b;strokeColor=#36393d;" parent="hj1TQCpyKpw-rvz4jUIR-49" vertex="1">
          <mxGeometry y="920" width="80" height="80" as="geometry" />
        </mxCell>
        <mxCell id="OJpxC2O1msqaGfNZDnol-11" value="ALU_SEL" style="whiteSpace=wrap;html=1;aspect=fixed;fontFamily=Roboto;fontSource=https%3A%2F%2Ffonts.googleapis.com%2Fcss%3Ffamily%3DRoboto;fontSize=16;fontStyle=1;fillColor=#dae8fc;strokeColor=#6c8ebf;" parent="hj1TQCpyKpw-rvz4jUIR-49" vertex="1">
          <mxGeometry y="320" width="80" height="80" as="geometry" />
        </mxCell>
        <mxCell id="OJpxC2O1msqaGfNZDnol-12" value="REG_&lt;br&gt;WRITE_EN" style="whiteSpace=wrap;html=1;aspect=fixed;fontFamily=Roboto;fontSource=https%3A%2F%2Ffonts.googleapis.com%2Fcss%3Ffamily%3DRoboto;fontSize=16;fontStyle=1;fillColor=#dae8fc;strokeColor=#6c8ebf;" parent="hj1TQCpyKpw-rvz4jUIR-49" vertex="1">
          <mxGeometry y="80" width="80" height="80" as="geometry" />
        </mxCell>
        <mxCell id="OJpxC2O1msqaGfNZDnol-13" value="MEM_&lt;br&gt;WRITE" style="whiteSpace=wrap;html=1;aspect=fixed;fontFamily=Roboto;fontSource=https%3A%2F%2Ffonts.googleapis.com%2Fcss%3Ffamily%3DRoboto;fontSize=16;fontStyle=1;fillColor=#dae8fc;strokeColor=#6c8ebf;" parent="hj1TQCpyKpw-rvz4jUIR-49" vertex="1">
          <mxGeometry y="240" width="80" height="80" as="geometry" />
        </mxCell>
        <mxCell id="OJpxC2O1msqaGfNZDnol-15" value="MEM_&lt;br&gt;READ" style="whiteSpace=wrap;html=1;aspect=fixed;fontFamily=Roboto;fontSource=https%3A%2F%2Ffonts.googleapis.com%2Fcss%3Ffamily%3DRoboto;fontSize=16;fontStyle=1;fillColor=#dae8fc;strokeColor=#6c8ebf;" parent="hj1TQCpyKpw-rvz4jUIR-49" vertex="1">
          <mxGeometry width="80" height="80" as="geometry" />
        </mxCell>
        <mxCell id="OJpxC2O1msqaGfNZDnol-16" value="BRANCH_&lt;br&gt;CTRL" style="whiteSpace=wrap;html=1;aspect=fixed;fontFamily=Roboto;fontSource=https%3A%2F%2Ffonts.googleapis.com%2Fcss%3Ffamily%3DRoboto;fontSize=16;fontStyle=1;fillColor=#dae8fc;strokeColor=#6c8ebf;" parent="hj1TQCpyKpw-rvz4jUIR-49" vertex="1">
          <mxGeometry y="560" width="80" height="80" as="geometry" />
        </mxCell>
        <mxCell id="OJpxC2O1msqaGfNZDnol-17" value="OP1_SEL" style="whiteSpace=wrap;html=1;aspect=fixed;fontFamily=Roboto;fontSource=https%3A%2F%2Ffonts.googleapis.com%2Fcss%3Ffamily%3DRoboto;fontSize=16;fontStyle=1;fillColor=#dae8fc;strokeColor=#6c8ebf;" parent="hj1TQCpyKpw-rvz4jUIR-49" vertex="1">
          <mxGeometry y="400" width="80" height="80" as="geometry" />
        </mxCell>
        <mxCell id="OJpxC2O1msqaGfNZDnol-18" value="OP2_SEL" style="whiteSpace=wrap;html=1;aspect=fixed;fontFamily=Roboto;fontSource=https%3A%2F%2Ffonts.googleapis.com%2Fcss%3Ffamily%3DRoboto;fontSize=16;fontStyle=1;fillColor=#dae8fc;strokeColor=#6c8ebf;" parent="hj1TQCpyKpw-rvz4jUIR-49" vertex="1">
          <mxGeometry y="480" width="80" height="80" as="geometry" />
        </mxCell>
        <mxCell id="OJpxC2O1msqaGfNZDnol-20" value="WB_VAL_&lt;br&gt;SEL" style="whiteSpace=wrap;html=1;aspect=fixed;fontFamily=Roboto;fontSource=https%3A%2F%2Ffonts.googleapis.com%2Fcss%3Ffamily%3DRoboto;fontSize=16;fontStyle=1;fillColor=#dae8fc;strokeColor=#6c8ebf;" parent="hj1TQCpyKpw-rvz4jUIR-49" vertex="1">
          <mxGeometry y="160" width="80" height="80" as="geometry" />
        </mxCell>
        <mxCell id="OJpxC2O1msqaGfNZDnol-21" value="REG_&lt;br&gt;DATA1" style="whiteSpace=wrap;html=1;aspect=fixed;fontFamily=Roboto;fontSource=https%3A%2F%2Ffonts.googleapis.com%2Fcss%3Ffamily%3DRoboto;fontSize=16;fontStyle=1;fillColor=#ffcccc;strokeColor=#36393d;" parent="hj1TQCpyKpw-rvz4jUIR-49" vertex="1">
          <mxGeometry y="1120" width="80" height="80" as="geometry" />
        </mxCell>
        <mxCell id="OJpxC2O1msqaGfNZDnol-22" value="REG_&lt;br&gt;DATA2" style="whiteSpace=wrap;html=1;aspect=fixed;fontFamily=Roboto;fontSource=https%3A%2F%2Ffonts.googleapis.com%2Fcss%3Ffamily%3DRoboto;fontSize=16;fontStyle=1;fillColor=#ffcccc;strokeColor=#36393d;" parent="hj1TQCpyKpw-rvz4jUIR-49" vertex="1">
          <mxGeometry y="1360" width="80" height="80" as="geometry" />
        </mxCell>
        <mxCell id="OJpxC2O1msqaGfNZDnol-23" value="IMM" style="whiteSpace=wrap;html=1;aspect=fixed;fontFamily=Roboto;fontSource=https%3A%2F%2Ffonts.googleapis.com%2Fcss%3Ffamily%3DRoboto;fontSize=16;fontStyle=1;fillColor=#ffcccc;strokeColor=#36393d;" parent="hj1TQCpyKpw-rvz4jUIR-49" vertex="1">
          <mxGeometry y="1600" width="80" height="80" as="geometry" />
        </mxCell>
        <mxCell id="OJpxC2O1msqaGfNZDnol-24" value="REG_&lt;br style=&quot;border-color: var(--border-color);&quot;&gt;WRITE_&lt;br style=&quot;border-color: var(--border-color);&quot;&gt;ADDR" style="whiteSpace=wrap;html=1;aspect=fixed;fontFamily=Roboto;fontSource=https%3A%2F%2Ffonts.googleapis.com%2Fcss%3Ffamily%3DRoboto;fontSize=16;fontStyle=1;fillColor=#cdeb8b;strokeColor=#36393d;" parent="hj1TQCpyKpw-rvz4jUIR-49" vertex="1">
          <mxGeometry y="1920" width="80" height="80" as="geometry" />
        </mxCell>
        <mxCell id="OJpxC2O1msqaGfNZDnol-25" value="REG_&lt;br style=&quot;border-color: var(--border-color);&quot;&gt;READ_&lt;br style=&quot;border-color: var(--border-color);&quot;&gt;ADDR2" style="whiteSpace=wrap;html=1;aspect=fixed;fontFamily=Roboto;fontSource=https%3A%2F%2Ffonts.googleapis.com%2Fcss%3Ffamily%3DRoboto;fontSize=16;fontStyle=1;fillColor=#cdeb8b;strokeColor=#36393d;" parent="hj1TQCpyKpw-rvz4jUIR-49" vertex="1">
          <mxGeometry y="1840" width="80" height="80" as="geometry" />
        </mxCell>
        <mxCell id="OJpxC2O1msqaGfNZDnol-26" value="REG_&lt;br&gt;READ_&lt;br&gt;ADDR1" style="whiteSpace=wrap;html=1;aspect=fixed;fontFamily=Roboto;fontSource=https%3A%2F%2Ffonts.googleapis.com%2Fcss%3Ffamily%3DRoboto;fontSize=16;fontStyle=1;fillColor=#cdeb8b;strokeColor=#36393d;" parent="hj1TQCpyKpw-rvz4jUIR-49" vertex="1">
          <mxGeometry y="1760" width="80" height="80" as="geometry" />
        </mxCell>
        <mxCell id="hj1TQCpyKpw-rvz4jUIR-45" value="RESET" style="rounded=0;whiteSpace=wrap;html=1;fontFamily=Roboto;fontSource=https%3A%2F%2Ffonts.googleapis.com%2Fcss%3Ffamily%3DRoboto;fontSize=16;fontStyle=1;fillColor=#eeeeee;strokeColor=#36393d;" parent="hj1TQCpyKpw-rvz4jUIR-49" vertex="1">
          <mxGeometry y="2000" width="80" height="40" as="geometry" />
        </mxCell>
        <mxCell id="hj1TQCpyKpw-rvz4jUIR-50" value="" style="group;fillColor=#fff2cc;strokeColor=#d6b656;" parent="1" vertex="1" connectable="0">
          <mxGeometry x="2720" y="-3440" width="80" height="2040" as="geometry" />
        </mxCell>
        <mxCell id="OJpxC2O1msqaGfNZDnol-3" value="" style="rounded=0;whiteSpace=wrap;html=1;fillColor=#fff2cc;strokeColor=#d6b656;" parent="hj1TQCpyKpw-rvz4jUIR-50" vertex="1">
          <mxGeometry width="80" height="2040" as="geometry" />
        </mxCell>
        <mxCell id="OJpxC2O1msqaGfNZDnol-8" value="PC" style="whiteSpace=wrap;html=1;aspect=fixed;fontFamily=Roboto;fontSource=https%3A%2F%2Ffonts.googleapis.com%2Fcss%3Ffamily%3DRoboto;fontSize=16;fontStyle=1;fillColor=#cdeb8b;strokeColor=#36393d;" parent="hj1TQCpyKpw-rvz4jUIR-50" vertex="1">
          <mxGeometry y="920" width="80" height="80" as="geometry" />
        </mxCell>
        <mxCell id="OJpxC2O1msqaGfNZDnol-28" value="ALU_&lt;br&gt;OUT" style="whiteSpace=wrap;html=1;aspect=fixed;fontFamily=Roboto;fontSource=https%3A%2F%2Ffonts.googleapis.com%2Fcss%3Ffamily%3DRoboto;fontSize=16;fontStyle=1;fillColor=#ffcccc;strokeColor=#36393d;" parent="hj1TQCpyKpw-rvz4jUIR-50" vertex="1">
          <mxGeometry y="1120" width="80" height="80" as="geometry" />
        </mxCell>
        <mxCell id="OJpxC2O1msqaGfNZDnol-29" value="REG_&lt;br&gt;DATA2" style="whiteSpace=wrap;html=1;aspect=fixed;fontFamily=Roboto;fontSource=https%3A%2F%2Ffonts.googleapis.com%2Fcss%3Ffamily%3DRoboto;fontSize=16;fontStyle=1;fillColor=#ffcccc;strokeColor=#36393d;" parent="hj1TQCpyKpw-rvz4jUIR-50" vertex="1">
          <mxGeometry y="1360" width="80" height="80" as="geometry" />
        </mxCell>
        <mxCell id="OJpxC2O1msqaGfNZDnol-30" value="REG_&lt;br style=&quot;border-color: var(--border-color);&quot;&gt;WRITE_&lt;br style=&quot;border-color: var(--border-color);&quot;&gt;ADDR" style="whiteSpace=wrap;html=1;aspect=fixed;fontFamily=Roboto;fontSource=https%3A%2F%2Ffonts.googleapis.com%2Fcss%3Ffamily%3DRoboto;fontSize=16;fontStyle=1;fillColor=#cdeb8b;strokeColor=#36393d;" parent="hj1TQCpyKpw-rvz4jUIR-50" vertex="1">
          <mxGeometry y="1920" width="80" height="80" as="geometry" />
        </mxCell>
        <mxCell id="OJpxC2O1msqaGfNZDnol-31" value="REG_&lt;br style=&quot;border-color: var(--border-color);&quot;&gt;READ_&lt;br style=&quot;border-color: var(--border-color);&quot;&gt;ADDR2" style="whiteSpace=wrap;html=1;aspect=fixed;fontFamily=Roboto;fontSource=https%3A%2F%2Ffonts.googleapis.com%2Fcss%3Ffamily%3DRoboto;fontSize=16;fontStyle=1;fillColor=#cdeb8b;strokeColor=#36393d;" parent="hj1TQCpyKpw-rvz4jUIR-50" vertex="1">
          <mxGeometry y="1840" width="80" height="80" as="geometry" />
        </mxCell>
        <mxCell id="OJpxC2O1msqaGfNZDnol-38" value="WB_VAL_&lt;br&gt;SEL" style="whiteSpace=wrap;html=1;aspect=fixed;fontFamily=Roboto;fontSource=https%3A%2F%2Ffonts.googleapis.com%2Fcss%3Ffamily%3DRoboto;fontSize=16;fontStyle=1;fillColor=#cce5ff;strokeColor=#36393d;" parent="hj1TQCpyKpw-rvz4jUIR-50" vertex="1">
          <mxGeometry y="160" width="80" height="80" as="geometry" />
        </mxCell>
        <mxCell id="OJpxC2O1msqaGfNZDnol-39" value="MEM_&lt;br&gt;READ" style="whiteSpace=wrap;html=1;aspect=fixed;fontFamily=Roboto;fontSource=https%3A%2F%2Ffonts.googleapis.com%2Fcss%3Ffamily%3DRoboto;fontSize=16;fontStyle=1;fillColor=#cce5ff;strokeColor=#36393d;" parent="hj1TQCpyKpw-rvz4jUIR-50" vertex="1">
          <mxGeometry width="80" height="80" as="geometry" />
        </mxCell>
        <mxCell id="OJpxC2O1msqaGfNZDnol-40" value="REG_&lt;br&gt;WRITE_EN" style="whiteSpace=wrap;html=1;aspect=fixed;fontFamily=Roboto;fontSource=https%3A%2F%2Ffonts.googleapis.com%2Fcss%3Ffamily%3DRoboto;fontSize=16;fontStyle=1;fillColor=#cce5ff;strokeColor=#36393d;" parent="hj1TQCpyKpw-rvz4jUIR-50" vertex="1">
          <mxGeometry y="80" width="80" height="80" as="geometry" />
        </mxCell>
        <mxCell id="OJpxC2O1msqaGfNZDnol-41" value="MEM_&lt;br&gt;WRITE" style="whiteSpace=wrap;html=1;aspect=fixed;fontFamily=Roboto;fontSource=https%3A%2F%2Ffonts.googleapis.com%2Fcss%3Ffamily%3DRoboto;fontSize=16;fontStyle=1;fillColor=#cce5ff;strokeColor=#36393d;" parent="hj1TQCpyKpw-rvz4jUIR-50" vertex="1">
          <mxGeometry y="240" width="80" height="80" as="geometry" />
        </mxCell>
        <mxCell id="hj1TQCpyKpw-rvz4jUIR-46" value="RESET" style="rounded=0;whiteSpace=wrap;html=1;fontFamily=Roboto;fontSource=https%3A%2F%2Ffonts.googleapis.com%2Fcss%3Ffamily%3DRoboto;fontSize=16;fontStyle=1;fillColor=#eeeeee;strokeColor=#36393d;" parent="hj1TQCpyKpw-rvz4jUIR-50" vertex="1">
          <mxGeometry y="2000" width="80" height="40" as="geometry" />
        </mxCell>
        <mxCell id="hj1TQCpyKpw-rvz4jUIR-51" value="" style="group;fillColor=#cdeb8b;strokeColor=#36393d;" parent="1" vertex="1" connectable="0">
          <mxGeometry x="3560" y="-3440" width="80" height="2040" as="geometry" />
        </mxCell>
        <mxCell id="OJpxC2O1msqaGfNZDnol-4" value="" style="rounded=0;whiteSpace=wrap;html=1;fillColor=#fff2cc;strokeColor=#d6b656;" parent="hj1TQCpyKpw-rvz4jUIR-51" vertex="1">
          <mxGeometry width="80" height="2040" as="geometry" />
        </mxCell>
        <mxCell id="OJpxC2O1msqaGfNZDnol-9" value="PC" style="whiteSpace=wrap;html=1;aspect=fixed;fontFamily=Roboto;fontSource=https%3A%2F%2Ffonts.googleapis.com%2Fcss%3Ffamily%3DRoboto;fontSize=16;fontStyle=1;fillColor=#cce5ff;strokeColor=#36393d;" parent="hj1TQCpyKpw-rvz4jUIR-51" vertex="1">
          <mxGeometry y="920" width="80" height="80" as="geometry" />
        </mxCell>
        <mxCell id="OJpxC2O1msqaGfNZDnol-32" value="ALU_&lt;br&gt;OUT" style="whiteSpace=wrap;html=1;aspect=fixed;fontFamily=Roboto;fontSource=https%3A%2F%2Ffonts.googleapis.com%2Fcss%3Ffamily%3DRoboto;fontSize=16;fontStyle=1;fillColor=#ffcccc;strokeColor=#36393d;" parent="hj1TQCpyKpw-rvz4jUIR-51" vertex="1">
          <mxGeometry y="1120" width="80" height="80" as="geometry" />
        </mxCell>
        <mxCell id="OJpxC2O1msqaGfNZDnol-33" value="MEM_&lt;br&gt;READ_&lt;br&gt;DATA" style="whiteSpace=wrap;html=1;aspect=fixed;fontFamily=Roboto;fontSource=https%3A%2F%2Ffonts.googleapis.com%2Fcss%3Ffamily%3DRoboto;fontSize=16;fontStyle=1;fillColor=#ffcccc;strokeColor=#36393d;" parent="hj1TQCpyKpw-rvz4jUIR-51" vertex="1">
          <mxGeometry y="1360" width="80" height="80" as="geometry" />
        </mxCell>
        <mxCell id="OJpxC2O1msqaGfNZDnol-34" value="REG_&lt;br style=&quot;border-color: var(--border-color);&quot;&gt;WRITE_&lt;br style=&quot;border-color: var(--border-color);&quot;&gt;ADDR" style="whiteSpace=wrap;html=1;aspect=fixed;fontFamily=Roboto;fontSource=https%3A%2F%2Ffonts.googleapis.com%2Fcss%3Ffamily%3DRoboto;fontSize=16;fontStyle=1;fillColor=#cdeb8b;strokeColor=#36393d;" parent="hj1TQCpyKpw-rvz4jUIR-51" vertex="1">
          <mxGeometry y="1920" width="80" height="80" as="geometry" />
        </mxCell>
        <mxCell id="OJpxC2O1msqaGfNZDnol-35" value="WB_VAL_&lt;br&gt;SEL" style="whiteSpace=wrap;html=1;aspect=fixed;fontFamily=Roboto;fontSource=https%3A%2F%2Ffonts.googleapis.com%2Fcss%3Ffamily%3DRoboto;fontSize=16;fontStyle=1;fillColor=#cce5ff;strokeColor=#36393d;" parent="hj1TQCpyKpw-rvz4jUIR-51" vertex="1">
          <mxGeometry y="160" width="80" height="80" as="geometry" />
        </mxCell>
        <mxCell id="OJpxC2O1msqaGfNZDnol-36" value="MEM_&lt;br&gt;READ" style="whiteSpace=wrap;html=1;aspect=fixed;fontFamily=Roboto;fontSource=https%3A%2F%2Ffonts.googleapis.com%2Fcss%3Ffamily%3DRoboto;fontSize=16;fontStyle=1;fillColor=#cce5ff;strokeColor=#36393d;" parent="hj1TQCpyKpw-rvz4jUIR-51" vertex="1">
          <mxGeometry width="80" height="80" as="geometry" />
        </mxCell>
        <mxCell id="OJpxC2O1msqaGfNZDnol-37" value="REG_&lt;br&gt;WRITE_EN" style="whiteSpace=wrap;html=1;aspect=fixed;fontFamily=Roboto;fontSource=https%3A%2F%2Ffonts.googleapis.com%2Fcss%3Ffamily%3DRoboto;fontSize=16;fontStyle=1;fillColor=#cce5ff;strokeColor=#36393d;" parent="hj1TQCpyKpw-rvz4jUIR-51" vertex="1">
          <mxGeometry y="80" width="80" height="80" as="geometry" />
        </mxCell>
        <mxCell id="hj1TQCpyKpw-rvz4jUIR-47" value="RESET" style="rounded=0;whiteSpace=wrap;html=1;fontFamily=Roboto;fontSource=https%3A%2F%2Ffonts.googleapis.com%2Fcss%3Ffamily%3DRoboto;fontSize=16;fontStyle=1" parent="hj1TQCpyKpw-rvz4jUIR-51" vertex="1">
          <mxGeometry y="2000" width="80" height="40" as="geometry" />
        </mxCell>
        <mxCell id="hj1TQCpyKpw-rvz4jUIR-52" value="" style="group;fillColor=#d0cee2;strokeColor=#56517e;" parent="1" vertex="1" connectable="0">
          <mxGeometry x="1400" y="-1440" width="320" height="130" as="geometry" />
        </mxCell>
        <mxCell id="hj1TQCpyKpw-rvz4jUIR-53" value="PR&lt;br&gt;FLUSH&lt;br&gt;UNIT" style="rounded=0;whiteSpace=wrap;html=1;fontFamily=Roboto;fontSource=https%3A%2F%2Ffonts.googleapis.com%2Fcss%3Ffamily%3DRoboto;fontSize=24;fontStyle=1;fillColor=#d0cee2;strokeColor=#56517e;" parent="hj1TQCpyKpw-rvz4jUIR-52" vertex="1">
          <mxGeometry width="320" height="130" as="geometry" />
        </mxCell>
        <mxCell id="hj1TQCpyKpw-rvz4jUIR-54" value="IF_ID_RES" style="text;html=1;strokeColor=none;fillColor=none;align=center;verticalAlign=middle;whiteSpace=wrap;rounded=0;fontSize=18;fontFamily=Helvetica;fontColor=default;container=0;" parent="hj1TQCpyKpw-rvz4jUIR-52" vertex="1">
          <mxGeometry y="8.125" width="100" height="24.375" as="geometry" />
        </mxCell>
        <mxCell id="hj1TQCpyKpw-rvz4jUIR-55" value="BJ_SIG" style="text;html=1;strokeColor=none;fillColor=none;align=center;verticalAlign=middle;whiteSpace=wrap;rounded=0;fontSize=18;fontFamily=Helvetica;fontColor=default;container=0;" parent="hj1TQCpyKpw-rvz4jUIR-52" vertex="1">
          <mxGeometry x="250" y="97.5" width="70" height="20.889374999999998" as="geometry" />
        </mxCell>
        <mxCell id="hj1TQCpyKpw-rvz4jUIR-56" value="LU_HAZ_SIG" style="text;html=1;strokeColor=none;fillColor=none;align=center;verticalAlign=middle;whiteSpace=wrap;rounded=0;fontSize=18;fontFamily=Helvetica;fontColor=default;container=0;" parent="hj1TQCpyKpw-rvz4jUIR-52" vertex="1">
          <mxGeometry y="97.5" width="120" height="20.889374999999998" as="geometry" />
        </mxCell>
        <mxCell id="hj1TQCpyKpw-rvz4jUIR-57" value="ID_EX_RES" style="text;html=1;strokeColor=none;fillColor=none;align=center;verticalAlign=middle;whiteSpace=wrap;rounded=0;fontSize=18;fontFamily=Helvetica;fontColor=default;container=0;" parent="hj1TQCpyKpw-rvz4jUIR-52" vertex="1">
          <mxGeometry x="210" y="8.125" width="110" height="24.375" as="geometry" />
        </mxCell>
        <mxCell id="hj1TQCpyKpw-rvz4jUIR-61" value="IF_ID_HOLD" style="text;html=1;strokeColor=none;fillColor=none;align=center;verticalAlign=middle;whiteSpace=wrap;rounded=0;fontSize=18;fontFamily=Helvetica;fontColor=default;container=0;" parent="hj1TQCpyKpw-rvz4jUIR-52" vertex="1">
          <mxGeometry y="29.014374999999998" width="110" height="24.375" as="geometry" />
        </mxCell>
        <mxCell id="hj1TQCpyKpw-rvz4jUIR-64" style="edgeStyle=orthogonalEdgeStyle;rounded=0;orthogonalLoop=1;jettySize=auto;html=1;exitX=1;exitY=0.5;exitDx=0;exitDy=0;entryX=0.5;entryY=1;entryDx=0;entryDy=0;fillColor=#0050ef;strokeColor=#001DBC;strokeWidth=3;" parent="1" source="hj1TQCpyKpw-rvz4jUIR-57" target="hj1TQCpyKpw-rvz4jUIR-45" edge="1">
          <mxGeometry relative="1" as="geometry" />
        </mxCell>
        <mxCell id="hj1TQCpyKpw-rvz4jUIR-65" style="edgeStyle=orthogonalEdgeStyle;rounded=0;orthogonalLoop=1;jettySize=auto;html=1;exitX=0;exitY=0.5;exitDx=0;exitDy=0;entryX=0.5;entryY=1;entryDx=0;entryDy=0;fillColor=#0050ef;strokeColor=#001DBC;strokeWidth=3;" parent="1" source="hj1TQCpyKpw-rvz4jUIR-54" target="hj1TQCpyKpw-rvz4jUIR-44" edge="1">
          <mxGeometry relative="1" as="geometry" />
        </mxCell>
        <mxCell id="hj1TQCpyKpw-rvz4jUIR-66" style="edgeStyle=orthogonalEdgeStyle;rounded=0;orthogonalLoop=1;jettySize=auto;html=1;exitX=0;exitY=0.5;exitDx=0;exitDy=0;entryX=0.5;entryY=1;entryDx=0;entryDy=0;fillColor=#0050ef;strokeColor=#001DBC;strokeWidth=3;" parent="1" source="hj1TQCpyKpw-rvz4jUIR-61" target="hj1TQCpyKpw-rvz4jUIR-62" edge="1">
          <mxGeometry relative="1" as="geometry">
            <Array as="points">
              <mxPoint x="1140" y="-1399" />
              <mxPoint x="1140" y="-1360" />
              <mxPoint x="860" y="-1360" />
            </Array>
          </mxGeometry>
        </mxCell>
        <mxCell id="hj1TQCpyKpw-rvz4jUIR-67" style="edgeStyle=orthogonalEdgeStyle;rounded=0;orthogonalLoop=1;jettySize=auto;html=1;exitDx=0;exitDy=0;entryX=0;entryY=0.5;entryDx=0;entryDy=0;fillColor=#0050ef;strokeColor=#001DBC;strokeWidth=3;" parent="1" source="hj1TQCpyKpw-rvz4jUIR-77" target="hj1TQCpyKpw-rvz4jUIR-56" edge="1">
          <mxGeometry relative="1" as="geometry">
            <Array as="points">
              <mxPoint x="1220" y="-1332" />
            </Array>
          </mxGeometry>
        </mxCell>
        <mxCell id="hj1TQCpyKpw-rvz4jUIR-69" value="" style="edgeStyle=orthogonalEdgeStyle;rounded=0;orthogonalLoop=1;jettySize=auto;html=1;exitX=1;exitY=0.5;exitDx=0;exitDy=0;entryDx=0;entryDy=0;endArrow=none;endFill=0;fillColor=#0050ef;strokeColor=#001DBC;strokeWidth=3;" parent="1" source="AQ1_ctODMUg5cEXQnaUs-98" target="hj1TQCpyKpw-rvz4jUIR-68" edge="1">
          <mxGeometry relative="1" as="geometry">
            <mxPoint x="97" y="-2195" as="targetPoint" />
            <Array as="points">
              <mxPoint x="2660" y="-1880" />
              <mxPoint x="2660" y="-1260" />
            </Array>
            <mxPoint x="2630" y="-1880" as="sourcePoint" />
          </mxGeometry>
        </mxCell>
        <mxCell id="hj1TQCpyKpw-rvz4jUIR-71" value="" style="edgeStyle=orthogonalEdgeStyle;rounded=0;orthogonalLoop=1;jettySize=auto;html=1;entryX=1;entryY=0.5;entryDx=0;entryDy=0;fillColor=#0050ef;strokeColor=#001DBC;strokeWidth=3;" parent="1" source="hj1TQCpyKpw-rvz4jUIR-68" target="hj1TQCpyKpw-rvz4jUIR-55" edge="1">
          <mxGeometry relative="1" as="geometry">
            <mxPoint x="1760" y="-1360" as="targetPoint" />
            <Array as="points">
              <mxPoint x="1760" y="-1332" />
            </Array>
          </mxGeometry>
        </mxCell>
        <mxCell id="hj1TQCpyKpw-rvz4jUIR-68" value="" style="shape=waypoint;sketch=0;fillStyle=solid;size=6;pointerEvents=1;points=[];fillColor=none;resizable=0;rotatable=0;perimeter=centerPerimeter;snapToPoint=1;" parent="1" vertex="1">
          <mxGeometry x="1750" y="-1270" width="20" height="20" as="geometry" />
        </mxCell>
        <mxCell id="hj1TQCpyKpw-rvz4jUIR-74" style="edgeStyle=orthogonalEdgeStyle;rounded=0;orthogonalLoop=1;jettySize=auto;html=1;exitX=0.5;exitY=0;exitDx=0;exitDy=0;entryX=0.25;entryY=1;entryDx=0;entryDy=0;fillColor=#008a00;strokeColor=#005700;strokeWidth=3;" parent="1" source="hj1TQCpyKpw-rvz4jUIR-73" target="OJpxC2O1msqaGfNZDnol-48" edge="1">
          <mxGeometry relative="1" as="geometry" />
        </mxCell>
        <mxCell id="hj1TQCpyKpw-rvz4jUIR-73" value="PC&lt;br&gt;SELECT" style="shape=trapezoid;perimeter=trapezoidPerimeter;whiteSpace=wrap;html=1;fixedSize=1;rotation=90;size=30;textDirection=ltr;verticalAlign=middle;horizontal=0;fontFamily=Roboto;fontSource=https%3A%2F%2Ffonts.googleapis.com%2Fcss%3Ffamily%3DRoboto;fontStyle=1;fillColor=#b1ddf0;strokeColor=#10739e;" parent="1" vertex="1">
          <mxGeometry x="-90" y="-2300" width="120" height="60" as="geometry" />
        </mxCell>
        <mxCell id="hj1TQCpyKpw-rvz4jUIR-78" value="" style="edgeStyle=orthogonalEdgeStyle;rounded=0;orthogonalLoop=1;jettySize=auto;html=1;exitX=0;exitY=0.5;exitDx=0;exitDy=0;entryDx=0;entryDy=0;endArrow=none;endFill=0;fillColor=#0050ef;strokeColor=#001DBC;strokeWidth=3;" parent="1" source="hj1TQCpyKpw-rvz4jUIR-5" target="hj1TQCpyKpw-rvz4jUIR-77" edge="1">
          <mxGeometry relative="1" as="geometry">
            <mxPoint x="1240" y="-2667" as="sourcePoint" />
            <mxPoint x="1400" y="-1332" as="targetPoint" />
          </mxGeometry>
        </mxCell>
        <mxCell id="hj1TQCpyKpw-rvz4jUIR-81" value="" style="edgeStyle=orthogonalEdgeStyle;rounded=0;orthogonalLoop=1;jettySize=auto;html=1;entryX=0;entryY=0.5;entryDx=0;entryDy=0;fillColor=#0050ef;strokeColor=#001DBC;strokeWidth=3;" parent="1" source="hj1TQCpyKpw-rvz4jUIR-77" target="hj1TQCpyKpw-rvz4jUIR-73" edge="1">
          <mxGeometry relative="1" as="geometry">
            <mxPoint x="1120" y="-2667.1500000000005" as="targetPoint" />
            <Array as="points">
              <mxPoint x="1220" y="-3480" />
              <mxPoint x="-30" y="-3480" />
            </Array>
          </mxGeometry>
        </mxCell>
        <mxCell id="hj1TQCpyKpw-rvz4jUIR-77" value="" style="shape=waypoint;sketch=0;fillStyle=solid;size=6;pointerEvents=1;points=[];fillColor=none;resizable=0;rotatable=0;perimeter=centerPerimeter;snapToPoint=1;" parent="1" vertex="1">
          <mxGeometry x="1210" y="-2677.15" width="20" height="20" as="geometry" />
        </mxCell>
      </root>
    </mxGraphModel>
  </diagram>
</mxfile>
